<svg xmlns="http://www.w3.org/2000/svg" xmlns:xlink="http://www.w3.org/1999/xlink" width="816" height="1056" viewBox="0 0 612 792"><path stroke-width=".399" stroke-miterlimit="10" fill="none" stroke="#000" d="M108.597 441.112H533.8m-425.202-35.42H533.8m-425.202 35.42V405.68m35.434 35.433V405.68m35.433 35.433V405.68m35.434 35.433V405.68m35.433 35.433V405.68m35.434 35.433V405.68m35.433 35.433V405.68m35.434 35.433V405.68m35.433 35.433V405.68m35.434 35.433V405.68m35.433 35.433V405.68m35.434 35.433V405.68m35.421 35.433V405.68m.012 0"/><path stroke-width="1.196" stroke-miterlimit="10" fill="none" stroke="#000" d="M108.597 441.112H533.8V405.68H108.597z"/><path stroke-width=".399" stroke-miterlimit="10" fill="none" stroke="#000" d="M108.597 374.674H533.8m-425.202-35.42H533.8m-425.202 35.42v-35.433m35.434 35.433v-35.433m35.433 35.433v-35.433m35.434 35.433v-35.433m35.433 35.433v-35.433m35.434 35.433v-35.433m35.433 35.433v-35.433m35.434 35.433v-35.433m35.433 35.433v-35.433m35.434 35.433v-35.433m35.433 35.433v-35.433m35.434 35.433v-35.433m35.421 35.433v-35.433m.012 0"/><path stroke-width="1.196" stroke-miterlimit="10" fill="none" stroke="#000" d="M108.597 374.675H533.8V339.24H108.597z"/><path stroke-width=".399" stroke-miterlimit="10" fill="none" stroke="#000" d="M108.597 321.524H533.8m-425.202-35.42H533.8m-425.202 35.42v-35.433m35.434 35.433v-35.433m35.433 35.433v-35.433m35.434 35.433v-35.433m35.433 35.433v-35.433m35.434 35.433v-35.433m35.433 35.433v-35.433m35.434 35.433v-35.433m35.433 35.433v-35.433m35.434 35.433v-35.433m35.433 35.433v-35.433m35.434 35.433v-35.433m35.421 35.433v-35.433m.012 0"/><path stroke-width="1.196" stroke-miterlimit="10" fill="none" stroke="#000" d="M108.597 321.524H533.8v-35.433H108.597z"/><path stroke-width=".399" stroke-miterlimit="10" fill="none" stroke="#000" d="M108.597 268.374H533.8m-425.202-35.421H533.8m-425.202 35.42V232.94m35.434 35.434V232.94m35.433 35.434V232.94m35.434 35.434V232.94m35.433 35.434V232.94m35.434 35.434V232.94m35.433 35.434V232.94m35.434 35.434V232.94m35.433 35.434V232.94m35.434 35.434V232.94m35.433 35.434V232.94m35.434 35.434V232.94m35.421 35.434V232.94m.012 0"/><path stroke-width="1.196" stroke-miterlimit="10" fill="none" stroke="#000" d="M108.597 268.374H533.8V232.94H108.597z"/><path stroke-width=".399" stroke-miterlimit="10" fill="none" stroke="#000" d="M108.597 215.224H533.8m-425.202-35.421H533.8m-425.202 35.42V179.79m35.434 35.434V179.79m35.433 35.434V179.79m35.434 35.434V179.79m35.433 35.434V179.79m35.434 35.434V179.79m35.433 35.434V179.79m35.434 35.434V179.79m35.433 35.434V179.79m35.434 35.434V179.79m35.433 35.434V179.79m35.434 35.434V179.79m35.421 35.434V179.79m.012 0"/><path stroke-width="1.196" stroke-miterlimit="10" fill="none" stroke="#000" d="M108.597 215.224H533.8V179.79H108.597z"/><path stroke-width=".399" stroke-miterlimit="10" fill="none" stroke="#000" d="M108.597 162.073H533.8m-425.202-35.42H533.8m-425.202 35.42V126.64m35.434 35.433V126.64m35.433 35.433V126.64m35.434 35.433V126.64m35.433 35.433V126.64m35.434 35.433V126.64m35.433 35.433V126.64m35.434 35.433V126.64m35.433 35.433V126.64m35.434 35.433V126.64m35.433 35.433V126.64m35.434 35.433V126.64m35.421 35.433V126.64m.012 0"/><path stroke-width="1.196" stroke-miterlimit="10" fill="none" stroke="#000" d="M108.597 162.073H533.8V126.64H108.597z"/><path d="M112.14 158.53h28.347v-28.347h-28.346z" fill="#bfffbf"/><path stroke-width="1.196" stroke-miterlimit="10" fill="none" stroke="#66b3b3" stroke-opacity=".75" d="M112.14 158.53h28.347v-28.347h-28.346z"/><path d="M147.574 158.53h28.347v-28.347h-28.347z" fill="#e6ffe6"/><path stroke-width="1.196" stroke-miterlimit="10" fill="none" stroke="#66b3b3" stroke-opacity=".35" d="M147.574 158.53h28.347v-28.347h-28.347z"/><path d="M183.008 158.53h28.346v-28.347h-28.346z" fill="#e6ffe6"/><path stroke-width="1.196" stroke-miterlimit="10" fill="none" stroke="#66b3b3" stroke-opacity=".35" d="M183.008 158.53h28.346v-28.347h-28.346z"/><path stroke-width="1.196" stroke-miterlimit="10" fill="none" stroke="#66b3b3" d="M126.314 130.183v-10.63h35.434v10.63M161.748 119.553h35.433v10.63"/><path d="M112.14 211.68h28.347v-28.346h-28.346z" fill="#bfbfff"/><path stroke-width="1.196" stroke-miterlimit="10" fill="none" stroke="#66f" stroke-opacity=".75" d="M112.14 211.68h28.347v-28.346h-28.346z"/><path d="M147.574 211.68h28.347v-28.346h-28.347z" fill="#e0e0e0"/><path stroke-width="1.196" stroke-miterlimit="10" fill="none" stroke="#797979" stroke-opacity=".2" d="M147.574 211.68h28.347v-28.346h-28.347z"/><path d="M183.008 211.68h28.346v-28.346h-28.346z" fill="#e0e0e0"/><path stroke-width="1.196" stroke-miterlimit="10" fill="none" stroke="#797979" stroke-opacity=".2" d="M183.008 211.68h28.346v-28.346h-28.346z"/><path d="M218.441 211.68h28.347v-28.346H218.44z" fill="#bfffbf"/><path stroke-width="1.196" stroke-miterlimit="10" fill="none" stroke="#66b3b3" stroke-opacity=".75" d="M218.441 211.68h28.347v-28.346H218.44z"/><path d="M360.175 211.68h28.347v-28.346h-28.347z" fill="#e6ffe6"/><path stroke-width="1.196" stroke-miterlimit="10" fill="none" stroke="#66b3b3" stroke-opacity=".35" d="M360.175 211.68h28.347v-28.346h-28.347z"/><path d="M501.91 211.68h28.346v-28.346h-28.347z" fill="#e6ffe6"/><path stroke-width="1.196" stroke-miterlimit="10" fill="none" stroke="#66b3b3" stroke-opacity=".35" d="M501.91 211.68h28.346v-28.346h-28.347z"/><path stroke-width="1.196" stroke-miterlimit="10" fill="none" stroke="#66b3b3" d="M232.615 183.334v-10.631h141.734v10.63"/><path stroke-width="1.196" stroke-miterlimit="10" fill="none" stroke="#66b3b3" d="M374.349 172.703h141.734v10.63"/><path d="M112.14 264.83h28.347v-28.346h-28.346z" fill="#bfbfff"/><path stroke-width="1.196" stroke-miterlimit="10" fill="none" stroke="#66f" stroke-opacity=".75" d="M112.14 264.83h28.347v-28.346h-28.346z"/><path d="M147.574 264.83h28.347v-28.346h-28.347z" fill="#e0e0e0"/><path stroke-width="1.196" stroke-miterlimit="10" fill="none" stroke="#797979" stroke-opacity=".2" d="M147.574 264.83h28.347v-28.346h-28.347z"/><path d="M183.008 264.83h28.346v-28.346h-28.346z" fill="#e0e0e0"/><path stroke-width="1.196" stroke-miterlimit="10" fill="none" stroke="#797979" stroke-opacity=".2" d="M183.008 264.83h28.346v-28.346h-28.346z"/><path d="M218.441 264.83h28.347v-28.346H218.44z" fill="#bfbfff"/><path stroke-width="1.196" stroke-miterlimit="10" fill="none" stroke="#66f" stroke-opacity=".75" d="M218.441 264.83h28.347v-28.346H218.44z"/><path d="M360.175 264.83h28.347v-28.346h-28.347z" fill="#e0e0e0"/><path stroke-width="1.196" stroke-miterlimit="10" fill="none" stroke="#797979" stroke-opacity=".35" d="M360.175 264.83h28.347v-28.346h-28.347z"/><path d="M501.91 264.83h28.346v-28.346h-28.347z" fill="#e0e0e0"/><path stroke-width="1.196" stroke-miterlimit="10" fill="none" stroke="#797979" stroke-opacity=".35" d="M501.91 264.83h28.346v-28.346h-28.347z"/><path d="M253.875 264.83h28.346v-28.346h-28.346z" fill="#bfffbf"/><path stroke-width="1.196" stroke-miterlimit="10" fill="none" stroke="#66b3b3" stroke-opacity=".75" d="M253.875 264.83h28.346v-28.346h-28.346z"/><path d="M431.042 264.83h28.347v-28.346h-28.347z" fill="#e6ffe6"/><path stroke-width="1.196" stroke-miterlimit="10" fill="none" stroke="#66b3b3" stroke-opacity=".35" d="M431.042 264.83h28.347v-28.346h-28.347z"/><path stroke-width="1.196" stroke-miterlimit="10" fill="none" stroke="#66b3b3" d="M268.048 236.484v-10.63h177.168v10.63M445.216 225.853h70.867M519.626 225.853h7.087M530.256 225.853h3.543"/><path d="M112.14 317.98h28.347v-28.346h-28.346z" fill="#bfbfff"/><path stroke-width="1.196" stroke-miterlimit="10" fill="none" stroke="#66f" stroke-opacity=".75" d="M112.14 317.98h28.347v-28.346h-28.346z"/><path d="M147.574 317.98h28.347v-28.346h-28.347z" fill="#e0e0e0"/><path stroke-width="1.196" stroke-miterlimit="10" fill="none" stroke="#797979" stroke-opacity=".2" d="M147.574 317.98h28.347v-28.346h-28.347z"/><path d="M183.008 317.98h28.346v-28.346h-28.346z" fill="#e0e0e0"/><path stroke-width="1.196" stroke-miterlimit="10" fill="none" stroke="#797979" stroke-opacity=".2" d="M183.008 317.98h28.346v-28.346h-28.346z"/><path d="M218.441 317.98h28.347v-28.346H218.44z" fill="#bfbfff"/><path stroke-width="1.196" stroke-miterlimit="10" fill="none" stroke="#66f" stroke-opacity=".75" d="M218.441 317.98h28.347v-28.346H218.44z"/><path d="M360.175 317.98h28.347v-28.346h-28.347z" fill="#e0e0e0"/><path stroke-width="1.196" stroke-miterlimit="10" fill="none" stroke="#797979" stroke-opacity=".35" d="M360.175 317.98h28.347v-28.346h-28.347z"/><path d="M501.91 317.98h28.346v-28.346h-28.347z" fill="#e0e0e0"/><path stroke-width="1.196" stroke-miterlimit="10" fill="none" stroke="#797979" stroke-opacity=".35" d="M501.91 317.98h28.346v-28.346h-28.347z"/><path d="M253.875 317.98h28.346v-28.346h-28.346z" fill="#bfbfff"/><path stroke-width="1.196" stroke-miterlimit="10" fill="none" stroke="#66f" stroke-opacity=".75" d="M253.875 317.98h28.346v-28.346h-28.346z"/><path d="M431.042 317.98h28.347v-28.346h-28.347z" fill="#e0e0e0"/><path stroke-width="1.196" stroke-miterlimit="10" fill="none" stroke="#797979" stroke-opacity=".35" d="M431.042 317.98h28.347v-28.346h-28.347z"/><path d="M289.308 317.98h28.347v-28.346h-28.347z" fill="#ffbfbf"/><path stroke-width="1.196" stroke-miterlimit="10" fill="none" stroke="#f66" stroke-opacity=".75" d="M289.308 317.98h28.347v-28.346h-28.347z"/><path d="M501.91 317.98h3.543l24.803-24.802v-3.544h-3.544l-24.803 24.803z" fill="#f66"/><path d="M501.91 289.634h3.543l24.803 24.803v3.544h-3.544l-24.803-24.803z" fill="#f66"/><path stroke-width="1.196" stroke-miterlimit="10" fill="none" stroke="#f66" d="M303.482 289.634v-10.63h212.6v10.63M519.626 279.004h7.087M530.256 279.004h3.543"/><path d="M112.14 371.13h28.347v-28.345h-28.346z" fill="#bfbfff"/><path stroke-width="1.196" stroke-miterlimit="10" fill="none" stroke="#66f" stroke-opacity=".75" d="M112.14 371.13h28.347v-28.345h-28.346z"/><path d="M147.574 371.13h28.347v-28.345h-28.347z" fill="#e0e0e0"/><path stroke-width="1.196" stroke-miterlimit="10" fill="none" stroke="#797979" stroke-opacity=".2" d="M147.574 371.13h28.347v-28.345h-28.347z"/><path d="M183.008 371.13h28.346v-28.345h-28.346z" fill="#e0e0e0"/><path stroke-width="1.196" stroke-miterlimit="10" fill="none" stroke="#797979" stroke-opacity=".2" d="M183.008 371.13h28.346v-28.345h-28.346z"/><path d="M218.441 371.13h28.347v-28.345H218.44z" fill="#bfbfff"/><path stroke-width="1.196" stroke-miterlimit="10" fill="none" stroke="#66f" stroke-opacity=".75" d="M218.441 371.13h28.347v-28.345H218.44z"/><path d="M360.175 371.13h28.347v-28.345h-28.347z" fill="#e0e0e0"/><path stroke-width="1.196" stroke-miterlimit="10" fill="none" stroke="#797979" stroke-opacity=".35" d="M360.175 371.13h28.347v-28.345h-28.347z"/><path d="M501.91 371.13h28.346v-28.345h-28.347z" fill="#e0e0e0"/><path stroke-width="1.196" stroke-miterlimit="10" fill="none" stroke="#797979" stroke-opacity=".35" d="M501.91 371.13h28.346v-28.345h-28.347z"/><path d="M253.875 371.13h28.346v-28.345h-28.346z" fill="#bfbfff"/><path stroke-width="1.196" stroke-miterlimit="10" fill="none" stroke="#66f" stroke-opacity=".75" d="M253.875 371.13h28.346v-28.345h-28.346z"/><path d="M431.042 371.13h28.347v-28.345h-28.347z" fill="#e0e0e0"/><path stroke-width="1.196" stroke-miterlimit="10" fill="none" stroke="#797979" stroke-opacity=".35" d="M431.042 371.13h28.347v-28.345h-28.347z"/><path d="M289.308 371.13h28.347v-28.345h-28.347z" fill="#e0e0e0"/><path stroke-width="1.196" stroke-miterlimit="10" fill="none" stroke="#797979" stroke-opacity=".35" d="M289.308 371.13h28.347v-28.345h-28.347z"/><path d="M289.308 371.13h3.544l24.803-24.802v-3.543h-3.544l-24.803 24.802z" fill="#a9a9a9"/><path d="M289.308 342.785h3.544l24.803 24.802v3.544h-3.544l-24.803-24.803z" fill="#a9a9a9"/><path d="M324.742 371.13h28.346v-28.345h-28.346z" fill="#bfffbf"/><path stroke-width="1.196" stroke-miterlimit="10" fill="none" stroke="#66b3b3" stroke-opacity=".75" d="M324.742 371.13h28.346v-28.345h-28.346z"/><path stroke-width="1.196" stroke-miterlimit="10" fill="none" stroke="#66b3b3" d="M338.915 342.785v-10.631h177.168M519.626 332.154h7.087M530.256 332.154h3.543"/><symbol id="a"><path d="M.156.078a.078.078 0 1 1-.156 0 .078.078 0 0 1 .156 0z"/></symbol><use xlink:href="#a" transform="matrix(12.45325 0 0 -12.45325 312.658 391.146)"/><use xlink:href="#a" transform="matrix(12.45325 0 0 -12.45325 319.021 391.146)"/><use xlink:href="#a" transform="matrix(12.45325 0 0 -12.45325 325.373 391.146)"/><path d="M112.14 437.569h28.347v-28.347h-28.346z" fill="#bfbfff"/><path stroke-width="1.196" stroke-miterlimit="10" fill="none" stroke="#66f" stroke-opacity=".75" d="M112.14 437.569h28.347v-28.347h-28.346z"/><path d="M147.574 437.569h28.347v-28.347h-28.347z" fill="#e0e0e0"/><path stroke-width="1.196" stroke-miterlimit="10" fill="none" stroke="#797979" stroke-opacity=".2" d="M147.574 437.569h28.347v-28.347h-28.347z"/><path d="M183.008 437.569h28.346v-28.347h-28.346z" fill="#e0e0e0"/><path stroke-width="1.196" stroke-miterlimit="10" fill="none" stroke="#797979" stroke-opacity=".2" d="M183.008 437.569h28.346v-28.347h-28.346z"/><path d="M218.441 437.569h28.347v-28.347H218.44z" fill="#bfbfff"/><path stroke-width="1.196" stroke-miterlimit="10" fill="none" stroke="#66f" stroke-opacity=".75" d="M218.441 437.569h28.347v-28.347H218.44z"/><path d="M360.175 437.569h28.347v-28.347h-28.347z" fill="#e0e0e0"/><path stroke-width="1.196" stroke-miterlimit="10" fill="none" stroke="#797979" stroke-opacity=".35" d="M360.175 437.569h28.347v-28.347h-28.347z"/><path d="M501.91 437.569h28.346v-28.347h-28.347z" fill="#e0e0e0"/><path stroke-width="1.196" stroke-miterlimit="10" fill="none" stroke="#797979" stroke-opacity=".35" d="M501.91 437.569h28.346v-28.347h-28.347z"/><path d="M253.875 437.569h28.346v-28.347h-28.346z" fill="#bfbfff"/><path stroke-width="1.196" stroke-miterlimit="10" fill="none" stroke="#66f" stroke-opacity=".75" d="M253.875 437.569h28.346v-28.347h-28.346z"/><path d="M431.042 437.569h28.347v-28.347h-28.347z" fill="#e0e0e0"/><path stroke-width="1.196" stroke-miterlimit="10" fill="none" stroke="#797979" stroke-opacity=".35" d="M431.042 437.569h28.347v-28.347h-28.347z"/><path d="M289.308 437.569h28.347v-28.347h-28.347z" fill="#e0e0e0"/><path stroke-width="1.196" stroke-miterlimit="10" fill="none" stroke="#797979" stroke-opacity=".35" d="M289.308 437.569h28.347v-28.347h-28.347z"/><path d="M289.308 437.569h3.544l24.803-24.803v-3.544h-3.544l-24.803 24.803z" fill="#a9a9a9"/><path d="M289.308 409.222h3.544l24.803 24.803v3.544h-3.544l-24.803-24.803z" fill="#a9a9a9"/><path d="M324.742 437.569h28.346v-28.347h-28.346z" fill="#bfbfff"/><path stroke-width="1.196" stroke-miterlimit="10" fill="none" stroke="#66f" stroke-opacity=".75" d="M324.742 437.569h28.346v-28.347h-28.346z"/><path d="M395.609 437.569h28.346v-28.347H395.61z" fill="#bfbfff"/><path stroke-width="1.196" stroke-miterlimit="10" fill="none" stroke="#66f" stroke-opacity=".75" d="M395.609 437.569h28.346v-28.347H395.61z"/><path d="M466.476 437.569h28.346v-28.347h-28.346z" fill="#bfbfff"/><path stroke-width="1.196" stroke-miterlimit="10" fill="none" stroke="#66f" stroke-opacity=".75" d="M466.476 437.569h28.346v-28.347h-28.346z"/><symbol id="b"><path d="M.205.64c0 .024 0 .026-.023.026C.12.602.032.602 0 .602V.571a.3.3 0 0 1 .131.026V.079C.131.043.128.031.038.031H.006V0c.035.003.122.003.162.003.04 0 .127 0 .162-.003v.031H.298c-.09 0-.093.011-.093.048V.64z"/></symbol><use xlink:href="#b" transform="matrix(12.45325 0 0 -12.45325 124.31 427.408)"/><use xlink:href="#b" transform="matrix(12.45325 0 0 -12.45325 124.31 360.971)"/><use xlink:href="#b" transform="matrix(12.45325 0 0 -12.45325 124.31 307.822)"/><use xlink:href="#b" transform="matrix(12.45325 0 0 -12.45325 124.31 254.672)"/><use xlink:href="#b" transform="matrix(12.45325 0 0 -12.45325 124.31 201.523)"/><use xlink:href="#b" transform="matrix(12.45325 0 0 -12.45325 124.31 148.373)"/><symbol id="c"><path d="M.077.077.183.18c.156.138.216.192.216.292 0 .114-.09.194-.212.194A.185.185 0 0 1 0 .485C0 .429.05.429.053.429c.017 0 .052.012.052.053a.05.05 0 0 1-.053.052L.039.533a.144.144 0 0 0 .135.102C.265.635.308.554.308.472c0-.08-.05-.159-.105-.221L.011.037C0 .026 0 .024 0 0h.371l.028.174H.374C.369.144.362.1.352.085.345.077.279.077.257.077h-.18z"/></symbol><use xlink:href="#c" transform="matrix(12.45325 0 0 -12.45325 159.257 427.408)"/><use xlink:href="#c" transform="matrix(12.45325 0 0 -12.45325 159.257 360.971)"/><use xlink:href="#c" transform="matrix(12.45325 0 0 -12.45325 159.257 307.822)"/><use xlink:href="#c" transform="matrix(12.45325 0 0 -12.45325 159.257 254.672)"/><use xlink:href="#c" transform="matrix(12.45325 0 0 -12.45325 159.257 201.523)"/><use xlink:href="#c" transform="matrix(12.45325 0 0 -12.45325 159.257 148.373)"/><symbol id="d"><path d="M.248.374c.082.027.14.097.14.176C.388.632.3.688.204.688.103.688.027.628.027.552.027.519.049.5.078.5.109.5.129.522.129.551c0 .05-.047.05-.062.05C.098.65.164.663.2.663.241.663.296.641.296.551A.25.25 0 0 0 .268.437C.238.389.204.386.179.385A.554.554 0 0 0 .14.382C.132.381.125.38.125.37c0-.011.007-.011.024-.011h.044C.275.359.312.291.312.193.312.057.243.028.199.028.156.028.081.045.046.104.081.099.112.121.112.159a.054.054 0 0 1-.056.056C.032.215 0 .201 0 .157 0 .066.093 0 .202 0c.122 0 .213.091.213.193 0 .082-.063.16-.167.181z"/></symbol><use xlink:href="#d" transform="matrix(12.45325 0 0 -12.45325 194.59 427.682)"/><use xlink:href="#d" transform="matrix(12.45325 0 0 -12.45325 194.59 361.245)"/><use xlink:href="#d" transform="matrix(12.45325 0 0 -12.45325 194.59 308.096)"/><use xlink:href="#d" transform="matrix(12.45325 0 0 -12.45325 194.59 254.946)"/><use xlink:href="#d" transform="matrix(12.45325 0 0 -12.45325 194.59 201.797)"/><use xlink:href="#d" transform="matrix(12.45325 0 0 -12.45325 194.59 148.647)"/><symbol id="e"><path d="M.266.165V.078C.266.042.264.031.19.031H.169V0C.21.003.262.003.304.003.346.003.399.003.44 0v.031H.419C.345.031.343.042.343.078v.087h.1v.031h-.1v.455c0 .02 0 .026-.016.026-.009 0-.012 0-.02-.012L0 .196V.165h.266m.006.031H.028l.244.373V.196z"/></symbol><use xlink:href="#e" transform="matrix(12.45325 0 0 -12.45325 229.849 427.408)"/><use xlink:href="#e" transform="matrix(12.45325 0 0 -12.45325 229.849 360.971)"/><use xlink:href="#e" transform="matrix(12.45325 0 0 -12.45325 229.849 307.822)"/><use xlink:href="#e" transform="matrix(12.45325 0 0 -12.45325 229.849 254.672)"/><use xlink:href="#e" transform="matrix(12.45325 0 0 -12.45325 229.849 201.523)"/><use xlink:href="#e" transform="matrix(12.45325 0 0 -12.45325 229.849 148.373)"/><symbol id="f"><path d="M.399.223c0 .119-.082.219-.19.219A.176.176 0 0 1 .082.391v.195A.317.317 0 0 1 .167.573C.29.573.36.664.36.677.36.683.357.688.35.688c-.001 0-.003 0-.008-.003A.33.33 0 0 0 .073.684L.061.687c-.01 0-.01-.008-.01-.024V.367c0-.018 0-.026.014-.026.007 0 .009.003.013.009.011.016.048.07.129.07C.259.42.284.374.292.356A.308.308 0 0 0 .31.23C.31.195.31.135.286.093A.125.125 0 0 0 .179.028.156.156 0 0 0 .032.14C.035.139.038.138.049.138c.033 0 .05.025.05.049a.048.048 0 0 1-.05.049C.035.236 0 .229 0 .183 0 .097.069 0 .181 0a.22.22 0 0 1 .218.223z"/></symbol><use xlink:href="#f" transform="matrix(12.45325 0 0 -12.45325 265.556 427.682)"/><use xlink:href="#f" transform="matrix(12.45325 0 0 -12.45325 265.556 361.245)"/><use xlink:href="#f" transform="matrix(12.45325 0 0 -12.45325 265.556 308.096)"/><use xlink:href="#f" transform="matrix(12.45325 0 0 -12.45325 265.556 254.946)"/><use xlink:href="#f" transform="matrix(12.45325 0 0 -12.45325 265.556 201.797)"/><use xlink:href="#f" transform="matrix(12.45325 0 0 -12.45325 265.556 148.647)"/><symbol id="g"><path d="M.09.35v.024c0 .253.124.289.175.289.024 0 .066-.006.088-.04-.015 0-.055 0-.055-.045 0-.031.024-.046.046-.046C.36.532.39.541.39.58.39.64.346.688.263.688.135.688 0 .559 0 .338 0 .071.116 0 .209 0 .32 0 .415.094.415.226c0 .127-.089.223-.2.223C.147.449.11.398.09.35M.209.028C.146.028.116.088.11.103.092.15.092.23.092.248c0 .078.032.178.122.178.016 0 .062 0 .093-.062C.325.327.325.276.325.227c0-.048 0-.098-.017-.134C.278.033.232.028.209.028z"/></symbol><use xlink:href="#g" transform="matrix(12.45325 0 0 -12.45325 300.89 427.682)"/><use xlink:href="#g" transform="matrix(12.45325 0 0 -12.45325 300.89 361.245)"/><use xlink:href="#g" transform="matrix(12.45325 0 0 -12.45325 300.89 308.096)"/><use xlink:href="#g" transform="matrix(12.45325 0 0 -12.45325 300.89 254.946)"/><use xlink:href="#g" transform="matrix(12.45325 0 0 -12.45325 300.89 201.797)"/><use xlink:href="#g" transform="matrix(12.45325 0 0 -12.45325 300.89 148.647)"/><symbol id="h"><path d="M.42.631c.009.012.009.014.009.035H.186C.064.666.062.679.058.698H.033L0 .492h.025C.028.508.037.571.05.583c.007.006.085.006.098.006h.207C.344.573.265.464.243.431A.699.699 0 0 1 .12.055C.12.045.12 0 .166 0s.046.045.046.055v.051c0 .055.003.11.011.164.004.023.018.109.062.171l.135.19z"/></symbol><use xlink:href="#h" transform="matrix(12.45325 0 0 -12.45325 336.496 427.682)"/><use xlink:href="#h" transform="matrix(12.45325 0 0 -12.45325 336.496 361.245)"/><use xlink:href="#h" transform="matrix(12.45325 0 0 -12.45325 336.496 308.096)"/><use xlink:href="#h" transform="matrix(12.45325 0 0 -12.45325 336.496 254.946)"/><use xlink:href="#h" transform="matrix(12.45325 0 0 -12.45325 336.496 201.797)"/><use xlink:href="#h" transform="matrix(12.45325 0 0 -12.45325 336.496 148.647)"/><symbol id="i"><path d="M.121.479C.075.509.071.543.071.56c0 .061.065.103.136.103C.28.663.344.611.344.539.344.482.305.434.245.399l-.124.08M.267.384c.072.037.121.089.121.155 0 .092-.089.149-.18.149-.1 0-.181-.074-.181-.167a.16.16 0 0 1 .044-.11C.082.399.119.374.144.357.086.328 0 .272 0 .173 0 .067.102 0 .207 0 .32 0 .415.083.415.19a.18.18 0 0 1-.049.123.422.422 0 0 1-.099.071m-.1-.042L.29.264C.318.245.365.215.365.154.365.08.29.028.208.028.122.028.05.09.05.173c0 .058.032.122.117.169z"/></symbol><use xlink:href="#i" transform="matrix(12.45325 0 0 -12.45325 371.755 427.682)"/><use xlink:href="#i" transform="matrix(12.45325 0 0 -12.45325 371.755 361.245)"/><use xlink:href="#i" transform="matrix(12.45325 0 0 -12.45325 371.755 308.096)"/><use xlink:href="#i" transform="matrix(12.45325 0 0 -12.45325 371.755 254.946)"/><use xlink:href="#i" transform="matrix(12.45325 0 0 -12.45325 371.755 201.797)"/><use xlink:href="#i" transform="matrix(12.45325 0 0 -12.45325 371.755 148.647)"/><symbol id="j"><path d="M.325.34V.308c0-.234-.104-.28-.162-.28C.146.028.092.03.065.064c.044 0 .052.029.052.046 0 .031-.024.046-.046.046C.055.156.025.147.025.108.025.041.079 0 .164 0c.129 0 .251.136.251.351C.415.62.3.688.211.688A.193.193 0 0 1 .064.625.214.214 0 0 1 0 .463C0 .338.088.24.2.24c.061 0 .102.042.125.1M.201.263c-.016 0-.062 0-.093.063C.09.363.09.413.09.462.09.516.09.563.111.6c.027.05.065.063.1.063C.257.663.29.629.307.584A.497.497 0 0 0 .323.443C.323.36.289.263.201.263z"/></symbol><use xlink:href="#j" transform="matrix(12.45325 0 0 -12.45325 407.188 427.682)"/><use xlink:href="#j" transform="matrix(12.45325 0 0 -12.45325 407.188 361.245)"/><use xlink:href="#j" transform="matrix(12.45325 0 0 -12.45325 407.188 308.096)"/><use xlink:href="#j" transform="matrix(12.45325 0 0 -12.45325 407.188 254.946)"/><use xlink:href="#j" transform="matrix(12.45325 0 0 -12.45325 407.188 201.797)"/><use xlink:href="#j" transform="matrix(12.45325 0 0 -12.45325 407.188 148.647)"/><symbol id="k"><path d="M.421.342c0 .08-.005.16-.04.234A.185.185 0 0 1 .037.569.535.535 0 0 1 0 .342C0 .267.004.177.045.101A.183.183 0 0 1 .21 0c.054 0 .13.021.174.116a.533.533 0 0 1 .037.226M.21.022C.171.022.112.047.094.143.083.203.083.295.083.354c0 .064 0 .13.008.184C.11.657.185.666.21.666.243.666.309.648.328.549c.01-.056.01-.132.01-.195 0-.075 0-.143-.011-.207C.312.052.255.022.21.022z"/></symbol><use xlink:href="#b" transform="matrix(12.45325 0 0 -12.45325 440.093 427.408)"/><use xlink:href="#k" transform="matrix(12.45325 0 0 -12.45325 445.697 427.682)"/><use xlink:href="#b" transform="matrix(12.45325 0 0 -12.45325 440.093 360.971)"/><use xlink:href="#k" transform="matrix(12.45325 0 0 -12.45325 445.697 361.245)"/><use xlink:href="#b" transform="matrix(12.45325 0 0 -12.45325 440.093 307.822)"/><use xlink:href="#k" transform="matrix(12.45325 0 0 -12.45325 445.697 308.096)"/><use xlink:href="#b" transform="matrix(12.45325 0 0 -12.45325 440.093 254.672)"/><use xlink:href="#k" transform="matrix(12.45325 0 0 -12.45325 445.697 254.946)"/><use xlink:href="#b" transform="matrix(12.45325 0 0 -12.45325 440.093 201.523)"/><use xlink:href="#k" transform="matrix(12.45325 0 0 -12.45325 445.697 201.797)"/><use xlink:href="#b" transform="matrix(12.45325 0 0 -12.45325 440.093 148.373)"/><use xlink:href="#k" transform="matrix(12.45325 0 0 -12.45325 445.697 148.647)"/><use xlink:href="#b" transform="matrix(12.45325 0 0 -12.45325 475.526 427.408)"/><use xlink:href="#b" transform="matrix(12.45325 0 0 -12.45325 481.753 427.408)"/><use xlink:href="#b" transform="matrix(12.45325 0 0 -12.45325 475.526 360.971)"/><use xlink:href="#b" transform="matrix(12.45325 0 0 -12.45325 481.753 360.971)"/><use xlink:href="#b" transform="matrix(12.45325 0 0 -12.45325 475.526 307.822)"/><use xlink:href="#b" transform="matrix(12.45325 0 0 -12.45325 481.753 307.822)"/><use xlink:href="#b" transform="matrix(12.45325 0 0 -12.45325 475.526 254.672)"/><use xlink:href="#b" transform="matrix(12.45325 0 0 -12.45325 481.753 254.672)"/><use xlink:href="#b" transform="matrix(12.45325 0 0 -12.45325 475.526 201.523)"/><use xlink:href="#b" transform="matrix(12.45325 0 0 -12.45325 481.753 201.523)"/><use xlink:href="#b" transform="matrix(12.45325 0 0 -12.45325 475.526 148.373)"/><use xlink:href="#b" transform="matrix(12.45325 0 0 -12.45325 481.753 148.373)"/><use xlink:href="#b" transform="matrix(12.45325 0 0 -12.45325 510.96 427.408)"/><use xlink:href="#c" transform="matrix(12.45325 0 0 -12.45325 516.7 427.408)"/><use xlink:href="#b" transform="matrix(12.45325 0 0 -12.45325 510.96 360.971)"/><use xlink:href="#c" transform="matrix(12.45325 0 0 -12.45325 516.7 360.971)"/><use xlink:href="#b" transform="matrix(12.45325 0 0 -12.45325 510.96 307.822)"/><use xlink:href="#c" transform="matrix(12.45325 0 0 -12.45325 516.7 307.822)"/><use xlink:href="#b" transform="matrix(12.45325 0 0 -12.45325 510.96 254.672)"/><use xlink:href="#c" transform="matrix(12.45325 0 0 -12.45325 516.7 254.672)"/><use xlink:href="#b" transform="matrix(12.45325 0 0 -12.45325 510.96 201.523)"/><use xlink:href="#c" transform="matrix(12.45325 0 0 -12.45325 516.7 201.523)"/><use xlink:href="#b" transform="matrix(12.45325 0 0 -12.45325 510.96 148.373)"/><use xlink:href="#c" transform="matrix(12.45325 0 0 -12.45325 516.7 148.373)"/></svg>