<svg xmlns="http://www.w3.org/2000/svg" xmlns:xlink="http://www.w3.org/1999/xlink" width="816" height="1056" viewBox="0 0 612 792"><path d="M50.882 393.665h510.242v-42.52H50.882z" fill="#fff"/><path stroke-width=".399" stroke-miterlimit="10" fill="none" stroke="#000" d="M50.882 393.665h510.242M50.882 351.16h510.242M50.882 393.665v-42.52m42.52 42.52v-42.52m42.52 42.52v-42.52m42.52 42.52v-42.52m42.52 42.52v-42.52m42.521 42.52v-42.52m42.52 42.52v-42.52m42.52 42.52v-42.52m42.52 42.52v-42.52m42.52 42.52v-42.52m42.521 42.52v-42.52m42.52 42.52v-42.52m42.506 42.52v-42.52m.014 0"/><path stroke-width="1.196" stroke-miterlimit="10" fill="none" stroke="#000" d="M50.882 393.665h510.242v-42.52H50.882z"/><path d="M50.882 313.94h510.242v-42.52H50.882z" fill="#fff"/><path stroke-width=".399" stroke-miterlimit="10" fill="none" stroke="#000" d="M50.882 313.94h510.242M50.882 271.434h510.242M50.882 313.94v-42.52m42.52 42.52v-42.52m42.52 42.52v-42.52m42.52 42.52v-42.52m42.52 42.52v-42.52m42.521 42.52v-42.52m42.52 42.52v-42.52m42.52 42.52v-42.52m42.52 42.52v-42.52m42.52 42.52v-42.52m42.521 42.52v-42.52m42.52 42.52v-42.52m42.506 42.52v-42.52m.014 0"/><path stroke-width="1.196" stroke-miterlimit="10" fill="none" stroke="#000" d="M50.882 313.94h510.242v-42.52H50.882z"/><path d="M50.882 250.16h510.242v-42.52H50.882z" fill="#fff"/><path stroke-width=".399" stroke-miterlimit="10" fill="none" stroke="#000" d="M50.882 250.16h510.242M50.882 207.653h510.242M50.882 250.16v-42.52m42.52 42.52v-42.52m42.52 42.52v-42.52m42.52 42.52v-42.52m42.52 42.52v-42.52m42.521 42.52v-42.52m42.52 42.52v-42.52m42.52 42.52v-42.52m42.52 42.52v-42.52m42.52 42.52v-42.52m42.521 42.52v-42.52m42.52 42.52v-42.52m42.506 42.52v-42.52m.014 0"/><path stroke-width="1.196" stroke-miterlimit="10" fill="none" stroke="#000" d="M50.882 250.16h510.242v-42.52H50.882z"/><path d="M50.882 186.38h510.242v-42.521H50.882z" fill="#fff"/><path stroke-width=".399" stroke-miterlimit="10" fill="none" stroke="#000" d="M50.882 186.38h510.242M50.882 143.873h510.242M50.882 186.379v-42.52m42.52 42.52v-42.52m42.52 42.52v-42.52m42.52 42.52v-42.52m42.52 42.52v-42.52m42.521 42.52v-42.52m42.52 42.52v-42.52m42.52 42.52v-42.52m42.52 42.52v-42.52m42.52 42.52v-42.52m42.521 42.52v-42.52m42.52 42.52v-42.52m42.506 42.52v-42.52m.014 0"/><path stroke-width="1.196" stroke-miterlimit="10" fill="none" stroke="#000" d="M50.882 186.38h510.242v-42.521H50.882z"/><path d="M50.882 122.599h510.242v-42.52H50.882z" fill="#fff"/><path stroke-width=".399" stroke-miterlimit="10" fill="none" stroke="#000" d="M50.882 122.599h510.242M50.882 80.093h510.242M50.882 122.6v-42.52m42.52 42.52v-42.52m42.52 42.52v-42.52m42.52 42.52v-42.52m42.52 42.52v-42.52m42.521 42.52v-42.52m42.52 42.52v-42.52m42.52 42.52v-42.52m42.52 42.52v-42.52m42.52 42.52v-42.52m42.521 42.52v-42.52m42.52 42.52v-42.52m42.506 42.52v-42.52m.014 0"/><path stroke-width="1.196" stroke-miterlimit="10" fill="none" stroke="#000" d="M50.882 122.599h510.242v-42.52H50.882z"/><path d="M50.882 58.818h510.242v-42.52H50.882z" fill="#fff"/><path stroke-width=".399" stroke-miterlimit="10" fill="none" stroke="#000" d="M50.882 58.818h510.242M50.882 16.313h510.242M50.882 58.818v-42.52m42.52 42.52v-42.52m42.52 42.52v-42.52m42.52 42.52v-42.52m42.52 42.52v-42.52m42.521 42.52v-42.52m42.52 42.52v-42.52m42.52 42.52v-42.52m42.52 42.52v-42.52m42.52 42.52v-42.52m42.521 42.52v-42.52m42.52 42.52v-42.52m42.506 42.52v-42.52m.014 0"/><path stroke-width="1.196" stroke-miterlimit="10" fill="none" stroke="#000" d="M50.882 58.818h510.242v-42.52H50.882z"/><path d="M55.134 54.566H89.15V20.551H55.134z" fill="#bfffbf"/><path stroke-width="1.196" stroke-miterlimit="10" fill="none" stroke="#66b3b3" stroke-opacity=".75" d="M55.134 54.566H89.15V20.551H55.134z"/><path d="M97.654 54.566h34.016V20.551H97.654z" fill="#e6ffe6"/><path stroke-width="1.196" stroke-miterlimit="10" fill="none" stroke="#66b3b3" stroke-opacity=".35" d="M97.654 54.566h34.016V20.551H97.654z"/><path d="M140.175 54.566h34.015V20.551h-34.015z" fill="#e6ffe6"/><path stroke-width="1.196" stroke-miterlimit="10" fill="none" stroke="#66b3b3" stroke-opacity=".35" d="M140.175 54.566h34.015V20.551h-34.015z"/><path stroke-width="1.196" stroke-miterlimit="10" fill="none" stroke="#66b3b3" d="M72.142 20.55V7.795h42.52V20.55M114.662 7.794h42.52V20.55"/><path d="M55.134 118.347H89.15V84.33H55.134z" fill="#bfbfff"/><path stroke-width="1.196" stroke-miterlimit="10" fill="none" stroke="#66f" stroke-opacity=".75" d="M55.134 118.347H89.15V84.33H55.134z"/><path d="M97.654 118.347h34.016V84.33H97.654z" fill="#e0e0e0"/><path stroke-width="1.196" stroke-miterlimit="10" fill="none" stroke="#797979" stroke-opacity=".2" d="M97.654 118.347h34.016V84.33H97.654z"/><path d="M140.175 118.347h34.015V84.33h-34.015z" fill="#e0e0e0"/><path stroke-width="1.196" stroke-miterlimit="10" fill="none" stroke="#797979" stroke-opacity=".2" d="M140.175 118.347h34.015V84.33h-34.015z"/><path d="M182.695 118.347h34.015V84.33h-34.015z" fill="#bfffbf"/><path stroke-width="1.196" stroke-miterlimit="10" fill="none" stroke="#66b3b3" stroke-opacity=".75" d="M182.695 118.347h34.015V84.33h-34.015z"/><path d="M352.776 118.347h34.015V84.33h-34.015z" fill="#e6ffe6"/><path stroke-width="1.196" stroke-miterlimit="10" fill="none" stroke="#66b3b3" stroke-opacity=".35" d="M352.776 118.347h34.015V84.33h-34.015z"/><path d="M522.857 118.347h34.015V84.33h-34.015z" fill="#e6ffe6"/><path stroke-width="1.196" stroke-miterlimit="10" fill="none" stroke="#66b3b3" stroke-opacity=".35" d="M522.857 118.347h34.015V84.33h-34.015z"/><path stroke-width="1.196" stroke-miterlimit="10" fill="none" stroke="#66b3b3" d="M199.703 84.33V71.575h170.08v12.757M369.784 71.574h170.08v12.757"/><path d="M55.134 182.127H89.15V148.11H55.134z" fill="#bfbfff"/><path stroke-width="1.196" stroke-miterlimit="10" fill="none" stroke="#66f" stroke-opacity=".75" d="M55.134 182.127H89.15V148.11H55.134z"/><path d="M97.654 182.127h34.016V148.11H97.654z" fill="#e0e0e0"/><path stroke-width="1.196" stroke-miterlimit="10" fill="none" stroke="#797979" stroke-opacity=".2" d="M97.654 182.127h34.016V148.11H97.654z"/><path d="M140.175 182.127h34.015V148.11h-34.015z" fill="#e0e0e0"/><path stroke-width="1.196" stroke-miterlimit="10" fill="none" stroke="#797979" stroke-opacity=".2" d="M140.175 182.127h34.015V148.11h-34.015z"/><path d="M182.695 182.127h34.015V148.11h-34.015z" fill="#bfbfff"/><path stroke-width="1.196" stroke-miterlimit="10" fill="none" stroke="#66f" stroke-opacity=".75" d="M182.695 182.127h34.015V148.11h-34.015z"/><path d="M352.776 182.127h34.015V148.11h-34.015z" fill="#e0e0e0"/><path stroke-width="1.196" stroke-miterlimit="10" fill="none" stroke="#797979" stroke-opacity=".35" d="M352.776 182.127h34.015V148.11h-34.015z"/><path d="M522.857 182.127h34.015V148.11h-34.015z" fill="#e0e0e0"/><path stroke-width="1.196" stroke-miterlimit="10" fill="none" stroke="#797979" stroke-opacity=".35" d="M522.857 182.127h34.015V148.11h-34.015z"/><path d="M225.215 182.127h34.016V148.11h-34.016z" fill="#bfffbf"/><path stroke-width="1.196" stroke-miterlimit="10" fill="none" stroke="#66b3b3" stroke-opacity=".75" d="M225.215 182.127h34.016V148.11h-34.016z"/><path d="M437.816 182.127h34.016V148.11h-34.016z" fill="#e6ffe6"/><path stroke-width="1.196" stroke-miterlimit="10" fill="none" stroke="#66b3b3" stroke-opacity=".35" d="M437.816 182.127h34.016V148.11h-34.016z"/><path stroke-width="1.196" stroke-miterlimit="10" fill="none" stroke="#66b3b3" d="M242.223 148.111v-12.757h212.6v12.757M454.824 135.354h85.04M544.117 135.354h8.504M556.872 135.354h4.252"/><path d="M55.134 245.907H89.15v-34.015H55.134z" fill="#bfbfff"/><path stroke-width="1.196" stroke-miterlimit="10" fill="none" stroke="#66f" stroke-opacity=".75" d="M55.134 245.907H89.15v-34.015H55.134z"/><path d="M97.654 245.907h34.016v-34.015H97.654z" fill="#e0e0e0"/><path stroke-width="1.196" stroke-miterlimit="10" fill="none" stroke="#797979" stroke-opacity=".2" d="M97.654 245.907h34.016v-34.015H97.654z"/><path d="M140.175 245.907h34.015v-34.015h-34.015z" fill="#e0e0e0"/><path stroke-width="1.196" stroke-miterlimit="10" fill="none" stroke="#797979" stroke-opacity=".2" d="M140.175 245.907h34.015v-34.015h-34.015z"/><path d="M182.695 245.907h34.015v-34.015h-34.015z" fill="#bfbfff"/><path stroke-width="1.196" stroke-miterlimit="10" fill="none" stroke="#66f" stroke-opacity=".75" d="M182.695 245.907h34.015v-34.015h-34.015z"/><path d="M352.776 245.907h34.015v-34.015h-34.015z" fill="#e0e0e0"/><path stroke-width="1.196" stroke-miterlimit="10" fill="none" stroke="#797979" stroke-opacity=".35" d="M352.776 245.907h34.015v-34.015h-34.015z"/><path d="M522.857 245.907h34.015v-34.015h-34.015z" fill="#e0e0e0"/><path stroke-width="1.196" stroke-miterlimit="10" fill="none" stroke="#797979" stroke-opacity=".35" d="M522.857 245.907h34.015v-34.015h-34.015z"/><path d="M225.215 245.907h34.016v-34.015h-34.016z" fill="#bfbfff"/><path stroke-width="1.196" stroke-miterlimit="10" fill="none" stroke="#66f" stroke-opacity=".75" d="M225.215 245.907h34.016v-34.015h-34.016z"/><path d="M437.816 245.907h34.016v-34.015h-34.016z" fill="#e0e0e0"/><path stroke-width="1.196" stroke-miterlimit="10" fill="none" stroke="#797979" stroke-opacity=".35" d="M437.816 245.907h34.016v-34.015h-34.016z"/><path d="M267.735 245.907h34.016v-34.015h-34.016z" fill="#ffbfbf"/><path stroke-width="1.196" stroke-miterlimit="10" fill="none" stroke="#f66" stroke-opacity=".75" d="M267.735 245.907h34.016v-34.015h-34.016z"/><path d="M522.857 245.907h4.252l29.763-29.763v-4.252h-4.252l-29.763 29.763z" fill="#f66"/><path d="M522.857 211.892h4.252l29.763 29.763v4.252h-4.252l-29.763-29.763z" fill="#f66"/><path stroke-width="1.196" stroke-miterlimit="10" fill="none" stroke="#f66" d="M284.743 211.892v-12.757h255.121v12.757M544.117 199.135h8.504M556.872 199.135h4.252"/><path d="M55.134 309.688H89.15v-34.016H55.134z" fill="#bfbfff"/><path stroke-width="1.196" stroke-miterlimit="10" fill="none" stroke="#66f" stroke-opacity=".75" d="M55.134 309.688H89.15v-34.016H55.134z"/><path d="M97.654 309.688h34.016v-34.016H97.654z" fill="#e0e0e0"/><path stroke-width="1.196" stroke-miterlimit="10" fill="none" stroke="#797979" stroke-opacity=".2" d="M97.654 309.688h34.016v-34.016H97.654z"/><path d="M140.175 309.688h34.015v-34.016h-34.015z" fill="#e0e0e0"/><path stroke-width="1.196" stroke-miterlimit="10" fill="none" stroke="#797979" stroke-opacity=".2" d="M140.175 309.688h34.015v-34.016h-34.015z"/><path d="M182.695 309.688h34.015v-34.016h-34.015z" fill="#bfbfff"/><path stroke-width="1.196" stroke-miterlimit="10" fill="none" stroke="#66f" stroke-opacity=".75" d="M182.695 309.688h34.015v-34.016h-34.015z"/><path d="M352.776 309.688h34.015v-34.016h-34.015z" fill="#e0e0e0"/><path stroke-width="1.196" stroke-miterlimit="10" fill="none" stroke="#797979" stroke-opacity=".35" d="M352.776 309.688h34.015v-34.016h-34.015z"/><path d="M522.857 309.688h34.015v-34.016h-34.015z" fill="#e0e0e0"/><path stroke-width="1.196" stroke-miterlimit="10" fill="none" stroke="#797979" stroke-opacity=".35" d="M522.857 309.688h34.015v-34.016h-34.015z"/><path d="M225.215 309.688h34.016v-34.016h-34.016z" fill="#bfbfff"/><path stroke-width="1.196" stroke-miterlimit="10" fill="none" stroke="#66f" stroke-opacity=".75" d="M225.215 309.688h34.016v-34.016h-34.016z"/><path d="M437.816 309.688h34.016v-34.016h-34.016z" fill="#e0e0e0"/><path stroke-width="1.196" stroke-miterlimit="10" fill="none" stroke="#797979" stroke-opacity=".35" d="M437.816 309.688h34.016v-34.016h-34.016z"/><path d="M267.735 309.688h34.016v-34.016h-34.016z" fill="#e0e0e0"/><path stroke-width="1.196" stroke-miterlimit="10" fill="none" stroke="#797979" stroke-opacity=".35" d="M267.735 309.688h34.016v-34.016h-34.016z"/><path d="M267.735 309.688h4.253l29.763-29.764v-4.252h-4.252l-29.764 29.763z" fill="#a9a9a9"/><path d="M267.735 275.672h4.253l29.763 29.763v4.253h-4.252l-29.764-29.764z" fill="#a9a9a9"/><path d="M310.255 309.688h34.016v-34.016h-34.016z" fill="#bfffbf"/><path stroke-width="1.196" stroke-miterlimit="10" fill="none" stroke="#66b3b3" stroke-opacity=".75" d="M310.255 309.688h34.016v-34.016h-34.016z"/><path stroke-width="1.196" stroke-miterlimit="10" fill="none" stroke="#66b3b3" d="M327.263 275.672v-12.757h212.601M544.117 262.915h8.504M556.872 262.915h4.252"/><symbol id="a"><path d="M.156.078a.078.078 0 1 1-.156 0 .078.078 0 0 1 .156 0z"/></symbol><use xlink:href="#a" transform="matrix(14.9439 0 0 -14.9439 295.753 333.705)"/><use xlink:href="#a" transform="matrix(14.9439 0 0 -14.9439 303.39 333.705)"/><use xlink:href="#a" transform="matrix(14.9439 0 0 -14.9439 311.011 333.705)"/><path d="M55.134 389.413H89.15v-34.016H55.134z" fill="#bfbfff"/><path stroke-width="1.196" stroke-miterlimit="10" fill="none" stroke="#66f" stroke-opacity=".75" d="M55.134 389.413H89.15v-34.016H55.134z"/><path d="M97.654 389.413h34.016v-34.016H97.654z" fill="#e0e0e0"/><path stroke-width="1.196" stroke-miterlimit="10" fill="none" stroke="#797979" stroke-opacity=".2" d="M97.654 389.413h34.016v-34.016H97.654z"/><path d="M140.175 389.413h34.015v-34.016h-34.015z" fill="#e0e0e0"/><path stroke-width="1.196" stroke-miterlimit="10" fill="none" stroke="#797979" stroke-opacity=".2" d="M140.175 389.413h34.015v-34.016h-34.015z"/><path d="M182.695 389.413h34.015v-34.016h-34.015z" fill="#bfbfff"/><path stroke-width="1.196" stroke-miterlimit="10" fill="none" stroke="#66f" stroke-opacity=".75" d="M182.695 389.413h34.015v-34.016h-34.015z"/><path d="M352.776 389.413h34.015v-34.016h-34.015z" fill="#e0e0e0"/><path stroke-width="1.196" stroke-miterlimit="10" fill="none" stroke="#797979" stroke-opacity=".35" d="M352.776 389.413h34.015v-34.016h-34.015z"/><path d="M522.857 389.413h34.015v-34.016h-34.015z" fill="#e0e0e0"/><path stroke-width="1.196" stroke-miterlimit="10" fill="none" stroke="#797979" stroke-opacity=".35" d="M522.857 389.413h34.015v-34.016h-34.015z"/><path d="M225.215 389.413h34.016v-34.016h-34.016z" fill="#bfbfff"/><path stroke-width="1.196" stroke-miterlimit="10" fill="none" stroke="#66f" stroke-opacity=".75" d="M225.215 389.413h34.016v-34.016h-34.016z"/><path d="M437.816 389.413h34.016v-34.016h-34.016z" fill="#e0e0e0"/><path stroke-width="1.196" stroke-miterlimit="10" fill="none" stroke="#797979" stroke-opacity=".35" d="M437.816 389.413h34.016v-34.016h-34.016z"/><path d="M267.735 389.413h34.016v-34.016h-34.016z" fill="#e0e0e0"/><path stroke-width="1.196" stroke-miterlimit="10" fill="none" stroke="#797979" stroke-opacity=".35" d="M267.735 389.413h34.016v-34.016h-34.016z"/><path d="M267.735 389.413h4.253l29.763-29.763v-4.253h-4.252l-29.764 29.764z" fill="#a9a9a9"/><path d="M267.735 355.397h4.253l29.763 29.764v4.252h-4.252l-29.764-29.763z" fill="#a9a9a9"/><path d="M310.255 389.413h34.016v-34.016h-34.016z" fill="#bfbfff"/><path stroke-width="1.196" stroke-miterlimit="10" fill="none" stroke="#66f" stroke-opacity=".75" d="M310.255 389.413h34.016v-34.016h-34.016z"/><path d="M395.296 389.413h34.016v-34.016h-34.016z" fill="#bfbfff"/><path stroke-width="1.196" stroke-miterlimit="10" fill="none" stroke="#66f" stroke-opacity=".75" d="M395.296 389.413h34.016v-34.016h-34.016z"/><path d="M480.336 389.413h34.016v-34.016h-34.016z" fill="#bfbfff"/><path stroke-width="1.196" stroke-miterlimit="10" fill="none" stroke="#66f" stroke-opacity=".75" d="M480.336 389.413h34.016v-34.016h-34.016z"/><symbol id="b"><path d="M.205.64c0 .024 0 .026-.023.026C.12.602.032.602 0 .602V.571a.3.3 0 0 1 .131.026V.079C.131.043.128.031.038.031H.006V0c.035.003.122.003.162.003.04 0 .127 0 .162-.003v.031H.298c-.09 0-.093.011-.093.048V.64z"/></symbol><use xlink:href="#b" transform="matrix(14.9439 0 0 -14.9439 69.736 377.22)"/><use xlink:href="#b" transform="matrix(14.9439 0 0 -14.9439 69.736 297.496)"/><use xlink:href="#b" transform="matrix(14.9439 0 0 -14.9439 69.736 233.716)"/><use xlink:href="#b" transform="matrix(14.9439 0 0 -14.9439 69.736 169.937)"/><use xlink:href="#b" transform="matrix(14.9439 0 0 -14.9439 69.736 106.157)"/><use xlink:href="#b" transform="matrix(14.9439 0 0 -14.9439 69.736 42.378)"/><symbol id="c"><path d="M.077.077.183.18c.156.138.216.192.216.292 0 .114-.09.194-.212.194A.185.185 0 0 1 0 .485C0 .429.05.429.053.429c.017 0 .052.012.052.053a.05.05 0 0 1-.053.052L.039.533a.144.144 0 0 0 .135.102C.265.635.308.554.308.472c0-.08-.05-.159-.105-.221L.011.037C0 .026 0 .024 0 0h.371l.028.174H.374C.369.144.362.1.352.085.345.077.279.077.257.077h-.18z"/></symbol><use xlink:href="#c" transform="matrix(14.9439 0 0 -14.9439 111.673 377.22)"/><use xlink:href="#c" transform="matrix(14.9439 0 0 -14.9439 111.673 297.496)"/><use xlink:href="#c" transform="matrix(14.9439 0 0 -14.9439 111.673 233.716)"/><use xlink:href="#c" transform="matrix(14.9439 0 0 -14.9439 111.673 169.937)"/><use xlink:href="#c" transform="matrix(14.9439 0 0 -14.9439 111.673 106.157)"/><use xlink:href="#c" transform="matrix(14.9439 0 0 -14.9439 111.673 42.378)"/><symbol id="d"><path d="M.248.374c.082.027.14.097.14.176C.388.632.3.688.204.688.103.688.027.628.027.552.027.519.049.5.078.5.109.5.129.522.129.551c0 .05-.047.05-.062.05C.098.65.164.663.2.663.241.663.296.641.296.551A.25.25 0 0 0 .268.437C.238.389.204.386.179.385A.554.554 0 0 0 .14.382C.132.381.125.38.125.37c0-.011.007-.011.024-.011h.044C.275.359.312.291.312.193.312.057.243.028.199.028.156.028.081.045.046.104.081.099.112.121.112.159a.054.054 0 0 1-.056.056C.032.215 0 .201 0 .157 0 .066.093 0 .202 0c.122 0 .213.091.213.193 0 .082-.063.16-.167.181z"/></symbol><use xlink:href="#d" transform="matrix(14.9439 0 0 -14.9439 154.073 377.549)"/><use xlink:href="#d" transform="matrix(14.9439 0 0 -14.9439 154.073 297.825)"/><use xlink:href="#d" transform="matrix(14.9439 0 0 -14.9439 154.073 234.045)"/><use xlink:href="#d" transform="matrix(14.9439 0 0 -14.9439 154.073 170.266)"/><use xlink:href="#d" transform="matrix(14.9439 0 0 -14.9439 154.073 106.486)"/><use xlink:href="#d" transform="matrix(14.9439 0 0 -14.9439 154.073 42.707)"/><symbol id="e"><path d="M.266.165V.078C.266.042.264.031.19.031H.169V0C.21.003.262.003.304.003.346.003.399.003.44 0v.031H.419C.345.031.343.042.343.078v.087h.1v.031h-.1v.455c0 .02 0 .026-.016.026-.009 0-.012 0-.02-.012L0 .196V.165h.266m.006.031H.028l.244.373V.196z"/></symbol><use xlink:href="#e" transform="matrix(14.9439 0 0 -14.9439 196.383 377.22)"/><use xlink:href="#e" transform="matrix(14.9439 0 0 -14.9439 196.383 297.496)"/><use xlink:href="#e" transform="matrix(14.9439 0 0 -14.9439 196.383 233.716)"/><use xlink:href="#e" transform="matrix(14.9439 0 0 -14.9439 196.383 169.937)"/><use xlink:href="#e" transform="matrix(14.9439 0 0 -14.9439 196.383 106.157)"/><use xlink:href="#e" transform="matrix(14.9439 0 0 -14.9439 196.383 42.378)"/><symbol id="f"><path d="M.399.223c0 .119-.082.219-.19.219A.176.176 0 0 1 .082.391v.195A.317.317 0 0 1 .167.573C.29.573.36.664.36.677.36.683.357.688.35.688c-.001 0-.003 0-.008-.003A.33.33 0 0 0 .073.684L.061.687c-.01 0-.01-.008-.01-.024V.367c0-.018 0-.026.014-.026.007 0 .009.003.013.009.011.016.048.07.129.07C.259.42.284.374.292.356A.308.308 0 0 0 .31.23C.31.195.31.135.286.093A.125.125 0 0 0 .179.028.156.156 0 0 0 .032.14C.035.139.038.138.049.138c.033 0 .05.025.05.049a.048.048 0 0 1-.05.049C.035.236 0 .229 0 .183 0 .097.069 0 .181 0a.22.22 0 0 1 .218.223z"/></symbol><use xlink:href="#f" transform="matrix(14.9439 0 0 -14.9439 239.232 377.549)"/><use xlink:href="#f" transform="matrix(14.9439 0 0 -14.9439 239.232 297.825)"/><use xlink:href="#f" transform="matrix(14.9439 0 0 -14.9439 239.232 234.045)"/><use xlink:href="#f" transform="matrix(14.9439 0 0 -14.9439 239.232 170.266)"/><use xlink:href="#f" transform="matrix(14.9439 0 0 -14.9439 239.232 106.486)"/><use xlink:href="#f" transform="matrix(14.9439 0 0 -14.9439 239.232 42.707)"/><symbol id="g"><path d="M.09.35v.024c0 .253.124.289.175.289.024 0 .066-.006.088-.04-.015 0-.055 0-.055-.045 0-.031.024-.046.046-.046C.36.532.39.541.39.58.39.64.346.688.263.688.135.688 0 .559 0 .338 0 .071.116 0 .209 0 .32 0 .415.094.415.226c0 .127-.089.223-.2.223C.147.449.11.398.09.35M.209.028C.146.028.116.088.11.103.092.15.092.23.092.248c0 .078.032.178.122.178.016 0 .062 0 .093-.062C.325.327.325.276.325.227c0-.048 0-.098-.017-.134C.278.033.232.028.209.028z"/></symbol><use xlink:href="#g" transform="matrix(14.9439 0 0 -14.9439 281.632 377.549)"/><use xlink:href="#g" transform="matrix(14.9439 0 0 -14.9439 281.632 297.825)"/><use xlink:href="#g" transform="matrix(14.9439 0 0 -14.9439 281.632 234.045)"/><use xlink:href="#g" transform="matrix(14.9439 0 0 -14.9439 281.632 170.266)"/><use xlink:href="#g" transform="matrix(14.9439 0 0 -14.9439 281.632 106.486)"/><use xlink:href="#g" transform="matrix(14.9439 0 0 -14.9439 281.632 42.707)"/><symbol id="h"><path d="M.42.631c.009.012.009.014.009.035H.186C.064.666.062.679.058.698H.033L0 .492h.025C.028.508.037.571.05.583c.007.006.085.006.098.006h.207C.344.573.265.464.243.431A.699.699 0 0 1 .12.055C.12.045.12 0 .166 0s.046.045.046.055v.051c0 .055.003.11.011.164.004.023.018.109.062.171l.135.19z"/></symbol><use xlink:href="#h" transform="matrix(14.9439 0 0 -14.9439 324.36 377.549)"/><use xlink:href="#h" transform="matrix(14.9439 0 0 -14.9439 324.36 297.825)"/><use xlink:href="#h" transform="matrix(14.9439 0 0 -14.9439 324.36 234.045)"/><use xlink:href="#h" transform="matrix(14.9439 0 0 -14.9439 324.36 170.266)"/><use xlink:href="#h" transform="matrix(14.9439 0 0 -14.9439 324.36 106.486)"/><use xlink:href="#h" transform="matrix(14.9439 0 0 -14.9439 324.36 42.707)"/><symbol id="i"><path d="M.121.479C.075.509.071.543.071.56c0 .061.065.103.136.103C.28.663.344.611.344.539.344.482.305.434.245.399l-.124.08M.267.384c.072.037.121.089.121.155 0 .092-.089.149-.18.149-.1 0-.181-.074-.181-.167a.16.16 0 0 1 .044-.11C.082.399.119.374.144.357.086.328 0 .272 0 .173 0 .067.102 0 .207 0 .32 0 .415.083.415.19a.18.18 0 0 1-.049.123.422.422 0 0 1-.099.071m-.1-.042L.29.264C.318.245.365.215.365.154.365.08.29.028.208.028.122.028.05.09.05.173c0 .058.032.122.117.169z"/></symbol><use xlink:href="#i" transform="matrix(14.9439 0 0 -14.9439 366.672 377.549)"/><use xlink:href="#i" transform="matrix(14.9439 0 0 -14.9439 366.672 297.825)"/><use xlink:href="#i" transform="matrix(14.9439 0 0 -14.9439 366.672 234.045)"/><use xlink:href="#i" transform="matrix(14.9439 0 0 -14.9439 366.672 170.266)"/><use xlink:href="#i" transform="matrix(14.9439 0 0 -14.9439 366.672 106.486)"/><use xlink:href="#i" transform="matrix(14.9439 0 0 -14.9439 366.672 42.707)"/><symbol id="j"><path d="M.325.34V.308c0-.234-.104-.28-.162-.28C.146.028.092.03.065.064c.044 0 .052.029.052.046 0 .031-.024.046-.046.046C.055.156.025.147.025.108.025.041.079 0 .164 0c.129 0 .251.136.251.351C.415.62.3.688.211.688A.193.193 0 0 1 .064.625.214.214 0 0 1 0 .463C0 .338.088.24.2.24c.061 0 .102.042.125.1M.201.263c-.016 0-.062 0-.093.063C.09.363.09.413.09.462.09.516.09.563.111.6c.027.05.065.063.1.063C.257.663.29.629.307.584A.497.497 0 0 0 .323.443C.323.36.289.263.201.263z"/></symbol><use xlink:href="#j" transform="matrix(14.9439 0 0 -14.9439 409.19 377.549)"/><use xlink:href="#j" transform="matrix(14.9439 0 0 -14.9439 409.19 297.825)"/><use xlink:href="#j" transform="matrix(14.9439 0 0 -14.9439 409.19 234.045)"/><use xlink:href="#j" transform="matrix(14.9439 0 0 -14.9439 409.19 170.266)"/><use xlink:href="#j" transform="matrix(14.9439 0 0 -14.9439 409.19 106.486)"/><use xlink:href="#j" transform="matrix(14.9439 0 0 -14.9439 409.19 42.707)"/><symbol id="k"><path d="M.421.342c0 .08-.005.16-.04.234A.185.185 0 0 1 .037.569.535.535 0 0 1 0 .342C0 .267.004.177.045.101A.183.183 0 0 1 .21 0c.054 0 .13.021.174.116a.533.533 0 0 1 .037.226M.21.022C.171.022.112.047.094.143.083.203.083.295.083.354c0 .064 0 .13.008.184C.11.657.185.666.21.666.243.666.309.648.328.549c.01-.056.01-.132.01-.195 0-.075 0-.143-.011-.207C.312.052.255.022.21.022z"/></symbol><use xlink:href="#b" transform="matrix(14.9439 0 0 -14.9439 448.677 377.22)"/><use xlink:href="#k" transform="matrix(14.9439 0 0 -14.9439 455.402 377.549)"/><use xlink:href="#b" transform="matrix(14.9439 0 0 -14.9439 448.677 297.496)"/><use xlink:href="#k" transform="matrix(14.9439 0 0 -14.9439 455.402 297.825)"/><use xlink:href="#b" transform="matrix(14.9439 0 0 -14.9439 448.677 233.716)"/><use xlink:href="#k" transform="matrix(14.9439 0 0 -14.9439 455.402 234.045)"/><use xlink:href="#b" transform="matrix(14.9439 0 0 -14.9439 448.677 169.937)"/><use xlink:href="#k" transform="matrix(14.9439 0 0 -14.9439 455.402 170.266)"/><use xlink:href="#b" transform="matrix(14.9439 0 0 -14.9439 448.677 106.157)"/><use xlink:href="#k" transform="matrix(14.9439 0 0 -14.9439 455.402 106.486)"/><use xlink:href="#b" transform="matrix(14.9439 0 0 -14.9439 448.677 42.378)"/><use xlink:href="#k" transform="matrix(14.9439 0 0 -14.9439 455.402 42.707)"/><use xlink:href="#b" transform="matrix(14.9439 0 0 -14.9439 491.197 377.22)"/><use xlink:href="#b" transform="matrix(14.9439 0 0 -14.9439 498.669 377.22)"/><use xlink:href="#b" transform="matrix(14.9439 0 0 -14.9439 491.197 297.496)"/><use xlink:href="#b" transform="matrix(14.9439 0 0 -14.9439 498.669 297.496)"/><use xlink:href="#b" transform="matrix(14.9439 0 0 -14.9439 491.197 233.716)"/><use xlink:href="#b" transform="matrix(14.9439 0 0 -14.9439 498.669 233.716)"/><use xlink:href="#b" transform="matrix(14.9439 0 0 -14.9439 491.197 169.937)"/><use xlink:href="#b" transform="matrix(14.9439 0 0 -14.9439 498.669 169.937)"/><use xlink:href="#b" transform="matrix(14.9439 0 0 -14.9439 491.197 106.157)"/><use xlink:href="#b" transform="matrix(14.9439 0 0 -14.9439 498.669 106.157)"/><use xlink:href="#b" transform="matrix(14.9439 0 0 -14.9439 491.197 42.378)"/><use xlink:href="#b" transform="matrix(14.9439 0 0 -14.9439 498.669 42.378)"/><use xlink:href="#b" transform="matrix(14.9439 0 0 -14.9439 533.716 377.22)"/><use xlink:href="#c" transform="matrix(14.9439 0 0 -14.9439 540.605 377.22)"/><use xlink:href="#b" transform="matrix(14.9439 0 0 -14.9439 533.716 297.496)"/><use xlink:href="#c" transform="matrix(14.9439 0 0 -14.9439 540.605 297.496)"/><use xlink:href="#b" transform="matrix(14.9439 0 0 -14.9439 533.716 233.716)"/><use xlink:href="#c" transform="matrix(14.9439 0 0 -14.9439 540.605 233.716)"/><use xlink:href="#b" transform="matrix(14.9439 0 0 -14.9439 533.716 169.937)"/><use xlink:href="#c" transform="matrix(14.9439 0 0 -14.9439 540.605 169.937)"/><use xlink:href="#b" transform="matrix(14.9439 0 0 -14.9439 533.716 106.157)"/><use xlink:href="#c" transform="matrix(14.9439 0 0 -14.9439 540.605 106.157)"/><use xlink:href="#b" transform="matrix(14.9439 0 0 -14.9439 533.716 42.378)"/><use xlink:href="#c" transform="matrix(14.9439 0 0 -14.9439 540.605 42.378)"/></svg>