<svg xmlns="http://www.w3.org/2000/svg" xmlns:xlink="http://www.w3.org/1999/xlink" version="1.1" viewBox="44.29 1.2 523.43 399.05"><path transform="matrix(1,0,0,-1,72.142,356.46)" d="M-21.26009-37.20515H488.98249V5.31505H-21.26009Z" fill="#ffffff"></path><path transform="matrix(1,0,0,-1,72.142,356.46)" stroke-width=".3985" stroke-linecap="butt" stroke-miterlimit="10" stroke-linejoin="miter" fill="none" stroke="#000000" d="M-21.26009-37.20515H488.98249M-21.26009 5.30011H488.98249M-21.26009-37.20515V5.31505M21.26012-37.20515V5.31505M63.78033-37.20515V5.31505M106.30054-37.20515V5.31505M148.82077-37.20515V5.31505M191.34098-37.20515V5.31505M233.86119-37.20515V5.31505M276.3814-37.20515V5.31505M318.90165-37.20515V5.31505M361.42185-37.20515V5.31505M403.94206-37.20515V5.31505M446.46229-37.20515V5.31505M488.96754-37.20515V5.31505M488.98249 5.31505"></path><path transform="matrix(1,0,0,-1,72.142,356.46)" stroke-width="1.19553" stroke-linecap="butt" stroke-miterlimit="10" stroke-linejoin="miter" fill="none" stroke="#000000" d="M-21.26009-37.20515H488.98249V5.31503H-21.26009Z"></path><path transform="matrix(1,0,0,-1,72.142,356.46)" d="M-21.26009 42.52023H488.98249V85.04044H-21.26009Z" fill="#ffffff"></path><path transform="matrix(1,0,0,-1,72.142,356.46)" stroke-width=".3985" stroke-linecap="butt" stroke-miterlimit="10" stroke-linejoin="miter" fill="none" stroke="#000000" d="M-21.26009 42.52023H488.98249M-21.26009 85.02551H488.98249M-21.26009 42.52023V85.04044M21.26012 42.52023V85.04044M63.78033 42.52023V85.04044M106.30054 42.52023V85.04044M148.82077 42.52023V85.04044M191.34098 42.52023V85.04044M233.86119 42.52023V85.04044M276.3814 42.52023V85.04044M318.90165 42.52023V85.04044M361.42185 42.52023V85.04044M403.94206 42.52023V85.04044M446.46229 42.52023V85.04044M488.96754 42.52023V85.04044M488.98249 85.04044"></path><path transform="matrix(1,0,0,-1,72.142,356.46)" stroke-width="1.19553" stroke-linecap="butt" stroke-miterlimit="10" stroke-linejoin="miter" fill="none" stroke="#000000" d="M-21.26009 42.52022H488.98249V85.04042H-21.26009Z"></path><path transform="matrix(1,0,0,-1,72.142,356.46)" d="M-21.26009 106.30057H488.98249V148.82079H-21.26009Z" fill="#ffffff"></path><path transform="matrix(1,0,0,-1,72.142,356.46)" stroke-width=".3985" stroke-linecap="butt" stroke-miterlimit="10" stroke-linejoin="miter" fill="none" stroke="#000000" d="M-21.26009 106.30057H488.98249M-21.26009 148.80585H488.98249M-21.26009 106.30057V148.82079M21.26012 106.30057V148.82079M63.78033 106.30057V148.82079M106.30054 106.30057V148.82079M148.82077 106.30057V148.82079M191.34098 106.30057V148.82079M233.86119 106.30057V148.82079M276.3814 106.30057V148.82079M318.90165 106.30057V148.82079M361.42185 106.30057V148.82079M403.94206 106.30057V148.82079M446.46229 106.30057V148.82079M488.96754 106.30057V148.82079M488.98249 148.82079"></path><path transform="matrix(1,0,0,-1,72.142,356.46)" stroke-width="1.19553" stroke-linecap="butt" stroke-miterlimit="10" stroke-linejoin="miter" fill="none" stroke="#000000" d="M-21.26009 106.30054H488.98249V148.82077H-21.26009Z"></path><path transform="matrix(1,0,0,-1,72.142,356.46)" d="M-21.26009 170.0809H488.98249V212.6011H-21.26009Z" fill="#ffffff"></path><path transform="matrix(1,0,0,-1,72.142,356.46)" stroke-width=".3985" stroke-linecap="butt" stroke-miterlimit="10" stroke-linejoin="miter" fill="none" stroke="#000000" d="M-21.26009 170.0809H488.98249M-21.26009 212.58618H488.98249M-21.26009 170.0809V212.6011M21.26012 170.0809V212.6011M63.78033 170.0809V212.6011M106.30054 170.0809V212.6011M148.82077 170.0809V212.6011M191.34098 170.0809V212.6011M233.86119 170.0809V212.6011M276.3814 170.0809V212.6011M318.90165 170.0809V212.6011M361.42185 170.0809V212.6011M403.94206 170.0809V212.6011M446.46229 170.0809V212.6011M488.96754 170.0809V212.6011M488.98249 212.6011"></path><path transform="matrix(1,0,0,-1,72.142,356.46)" stroke-width="1.19553" stroke-linecap="butt" stroke-miterlimit="10" stroke-linejoin="miter" fill="none" stroke="#000000" d="M-21.26009 170.08086H488.98249V212.60108H-21.26009Z"></path><path transform="matrix(1,0,0,-1,72.142,356.46)" d="M-21.26009 233.86124H488.98249V276.38145H-21.26009Z" fill="#ffffff"></path><path transform="matrix(1,0,0,-1,72.142,356.46)" stroke-width=".3985" stroke-linecap="butt" stroke-miterlimit="10" stroke-linejoin="miter" fill="none" stroke="#000000" d="M-21.26009 233.86124H488.98249M-21.26009 276.36653H488.98249M-21.26009 233.86124V276.38145M21.26012 233.86124V276.38145M63.78033 233.86124V276.38145M106.30054 233.86124V276.38145M148.82077 233.86124V276.38145M191.34098 233.86124V276.38145M233.86119 233.86124V276.38145M276.3814 233.86124V276.38145M318.90165 233.86124V276.38145M361.42185 233.86124V276.38145M403.94206 233.86124V276.38145M446.46229 233.86124V276.38145M488.96754 233.86124V276.38145M488.98249 276.38145"></path><path transform="matrix(1,0,0,-1,72.142,356.46)" stroke-width="1.19553" stroke-linecap="butt" stroke-miterlimit="10" stroke-linejoin="miter" fill="none" stroke="#000000" d="M-21.26009 233.86119H488.98249V276.3814H-21.26009Z"></path><path transform="matrix(1,0,0,-1,72.142,356.46)" d="M-21.26009 297.64158H488.98249V340.16178H-21.26009Z" fill="#ffffff"></path><path transform="matrix(1,0,0,-1,72.142,356.46)" stroke-width=".3985" stroke-linecap="butt" stroke-miterlimit="10" stroke-linejoin="miter" fill="none" stroke="#000000" d="M-21.26009 297.64158H488.98249M-21.26009 340.14686H488.98249M-21.26009 297.64158V340.16178M21.26012 297.64158V340.16178M63.78033 297.64158V340.16178M106.30054 297.64158V340.16178M148.82077 297.64158V340.16178M191.34098 297.64158V340.16178M233.86119 297.64158V340.16178M276.3814 297.64158V340.16178M318.90165 297.64158V340.16178M361.42185 297.64158V340.16178M403.94206 297.64158V340.16178M446.46229 297.64158V340.16178M488.96754 297.64158V340.16178M488.98249 340.16178"></path><path transform="matrix(1,0,0,-1,72.142,356.46)" stroke-width="1.19553" stroke-linecap="butt" stroke-miterlimit="10" stroke-linejoin="miter" fill="none" stroke="#000000" d="M-21.26009 297.6415H488.98249V340.1617H-21.26009Z"></path><path transform="matrix(1,0,0,-1,72.142,356.46)" d="M-17.00781 301.89378H17.00781V335.90946H-17.00781Z" fill="#bfffbf"></path><path transform="matrix(1,0,0,-1,72.142,356.46)" stroke-width="1.19553" stroke-linecap="butt" stroke-miterlimit="10" stroke-linejoin="miter" fill="none" stroke="#66b3b3" stroke-opacity=".75" d="M-17.00781 301.89378H17.00781V335.90946H-17.00781Z"></path><path transform="matrix(1,0,0,-1,72.142,356.46)" d="M25.51239 301.89378H59.52803V335.90946H25.51239Z" fill="#e6ffe6"></path><path transform="matrix(1,0,0,-1,72.142,356.46)" stroke-width="1.19553" stroke-linecap="butt" stroke-miterlimit="10" stroke-linejoin="miter" fill="none" stroke="#66b3b3" stroke-opacity=".35" d="M25.51239 301.89378H59.52803V335.90946H25.51239Z"></path><path transform="matrix(1,0,0,-1,72.142,356.46)" d="M68.03261 301.89378H102.04825V335.90946H68.03261Z" fill="#e6ffe6"></path><path transform="matrix(1,0,0,-1,72.142,356.46)" stroke-width="1.19553" stroke-linecap="butt" stroke-miterlimit="10" stroke-linejoin="miter" fill="none" stroke="#66b3b3" stroke-opacity=".35" d="M68.03261 301.89378H102.04825V335.90946H68.03261Z"></path><path transform="matrix(1,0,0,-1,72.142,356.46)" stroke-width="1.19553" stroke-linecap="butt" stroke-miterlimit="10" stroke-linejoin="miter" fill="none" stroke="#66b3b3" d="M0 335.90946V348.6663H42.52022V335.90946"></path><path transform="matrix(1,0,0,-1,72.142,356.46)" stroke-width="1.19553" stroke-linecap="butt" stroke-miterlimit="10" stroke-linejoin="miter" fill="none" stroke="#66b3b3" d="M42.52022 348.6663H85.04042V335.90946"></path><path transform="matrix(1,0,0,-1,72.142,356.46)" d="M-17.00781 238.11347H17.00781V272.1291H-17.00781Z" fill="#bfbfff"></path><path transform="matrix(1,0,0,-1,72.142,356.46)" stroke-width="1.19553" stroke-linecap="butt" stroke-miterlimit="10" stroke-linejoin="miter" fill="none" stroke="#6666ff" stroke-opacity=".75" d="M-17.00781 238.11347H17.00781V272.1291H-17.00781Z"></path><path transform="matrix(1,0,0,-1,72.142,356.46)" d="M25.51239 238.11347H59.52803V272.1291H25.51239Z" fill="#e0e0e0"></path><path transform="matrix(1,0,0,-1,72.142,356.46)" stroke-width="1.19553" stroke-linecap="butt" stroke-miterlimit="10" stroke-linejoin="miter" fill="none" stroke="#797979" stroke-opacity=".2" d="M25.51239 238.11347H59.52803V272.1291H25.51239Z"></path><path transform="matrix(1,0,0,-1,72.142,356.46)" d="M68.03261 238.11347H102.04825V272.1291H68.03261Z" fill="#e0e0e0"></path><path transform="matrix(1,0,0,-1,72.142,356.46)" stroke-width="1.19553" stroke-linecap="butt" stroke-miterlimit="10" stroke-linejoin="miter" fill="none" stroke="#797979" stroke-opacity=".2" d="M68.03261 238.11347H102.04825V272.1291H68.03261Z"></path><path transform="matrix(1,0,0,-1,72.142,356.46)" d="M110.55283 238.11347H144.56847V272.1291H110.55283Z" fill="#bfffbf"></path><path transform="matrix(1,0,0,-1,72.142,356.46)" stroke-width="1.19553" stroke-linecap="butt" stroke-miterlimit="10" stroke-linejoin="miter" fill="none" stroke="#66b3b3" stroke-opacity=".75" d="M110.55283 238.11347H144.56847V272.1291H110.55283Z"></path><path transform="matrix(1,0,0,-1,72.142,356.46)" d="M280.63368 238.11347H314.64933V272.1291H280.63368Z" fill="#e6ffe6"></path><path transform="matrix(1,0,0,-1,72.142,356.46)" stroke-width="1.19553" stroke-linecap="butt" stroke-miterlimit="10" stroke-linejoin="miter" fill="none" stroke="#66b3b3" stroke-opacity=".35" d="M280.63368 238.11347H314.64933V272.1291H280.63368Z"></path><path transform="matrix(1,0,0,-1,72.142,356.46)" d="M450.71455 238.11347H484.7302V272.1291H450.71455Z" fill="#e6ffe6"></path><path transform="matrix(1,0,0,-1,72.142,356.46)" stroke-width="1.19553" stroke-linecap="butt" stroke-miterlimit="10" stroke-linejoin="miter" fill="none" stroke="#66b3b3" stroke-opacity=".35" d="M450.71455 238.11347H484.7302V272.1291H450.71455Z"></path><path transform="matrix(1,0,0,-1,72.142,356.46)" stroke-width="1.19553" stroke-linecap="butt" stroke-miterlimit="10" stroke-linejoin="miter" fill="none" stroke="#66b3b3" d="M127.56064 272.1291V284.88597H297.6415V272.1291"></path><path transform="matrix(1,0,0,-1,72.142,356.46)" stroke-width="1.19553" stroke-linecap="butt" stroke-miterlimit="10" stroke-linejoin="miter" fill="none" stroke="#66b3b3" d="M297.6415 284.88597H467.72239V272.1291"></path><path transform="matrix(1,0,0,-1,72.142,356.46)" d="M-17.00781 174.33313H17.00781V208.34879H-17.00781Z" fill="#bfbfff"></path><path transform="matrix(1,0,0,-1,72.142,356.46)" stroke-width="1.19553" stroke-linecap="butt" stroke-miterlimit="10" stroke-linejoin="miter" fill="none" stroke="#6666ff" stroke-opacity=".75" d="M-17.00781 174.33313H17.00781V208.34879H-17.00781Z"></path><path transform="matrix(1,0,0,-1,72.142,356.46)" d="M25.51239 174.33313H59.52803V208.34879H25.51239Z" fill="#e0e0e0"></path><path transform="matrix(1,0,0,-1,72.142,356.46)" stroke-width="1.19553" stroke-linecap="butt" stroke-miterlimit="10" stroke-linejoin="miter" fill="none" stroke="#797979" stroke-opacity=".2" d="M25.51239 174.33313H59.52803V208.34879H25.51239Z"></path><path transform="matrix(1,0,0,-1,72.142,356.46)" d="M68.03261 174.33313H102.04825V208.34879H68.03261Z" fill="#e0e0e0"></path><path transform="matrix(1,0,0,-1,72.142,356.46)" stroke-width="1.19553" stroke-linecap="butt" stroke-miterlimit="10" stroke-linejoin="miter" fill="none" stroke="#797979" stroke-opacity=".2" d="M68.03261 174.33313H102.04825V208.34879H68.03261Z"></path><path transform="matrix(1,0,0,-1,72.142,356.46)" d="M110.55283 174.33313H144.56847V208.34879H110.55283Z" fill="#bfbfff"></path><path transform="matrix(1,0,0,-1,72.142,356.46)" stroke-width="1.19553" stroke-linecap="butt" stroke-miterlimit="10" stroke-linejoin="miter" fill="none" stroke="#6666ff" stroke-opacity=".75" d="M110.55283 174.33313H144.56847V208.34879H110.55283Z"></path><path transform="matrix(1,0,0,-1,72.142,356.46)" d="M280.63368 174.33313H314.64933V208.34879H280.63368Z" fill="#e0e0e0"></path><path transform="matrix(1,0,0,-1,72.142,356.46)" stroke-width="1.19553" stroke-linecap="butt" stroke-miterlimit="10" stroke-linejoin="miter" fill="none" stroke="#797979" stroke-opacity=".35" d="M280.63368 174.33313H314.64933V208.34879H280.63368Z"></path><path transform="matrix(1,0,0,-1,72.142,356.46)" d="M450.71455 174.33313H484.7302V208.34879H450.71455Z" fill="#e0e0e0"></path><path transform="matrix(1,0,0,-1,72.142,356.46)" stroke-width="1.19553" stroke-linecap="butt" stroke-miterlimit="10" stroke-linejoin="miter" fill="none" stroke="#797979" stroke-opacity=".35" d="M450.71455 174.33313H484.7302V208.34879H450.71455Z"></path><path transform="matrix(1,0,0,-1,72.142,356.46)" d="M153.07303 174.33313H187.08867V208.34879H153.07303Z" fill="#bfffbf"></path><path transform="matrix(1,0,0,-1,72.142,356.46)" stroke-width="1.19553" stroke-linecap="butt" stroke-miterlimit="10" stroke-linejoin="miter" fill="none" stroke="#66b3b3" stroke-opacity=".75" d="M153.07303 174.33313H187.08867V208.34879H153.07303Z"></path><path transform="matrix(1,0,0,-1,72.142,356.46)" d="M365.67414 174.33313H399.68977V208.34879H365.67414Z" fill="#e6ffe6"></path><path transform="matrix(1,0,0,-1,72.142,356.46)" stroke-width="1.19553" stroke-linecap="butt" stroke-miterlimit="10" stroke-linejoin="miter" fill="none" stroke="#66b3b3" stroke-opacity=".35" d="M365.67414 174.33313H399.68977V208.34879H365.67414Z"></path><path transform="matrix(1,0,0,-1,72.142,356.46)" stroke-width="1.19553" stroke-linecap="butt" stroke-miterlimit="10" stroke-linejoin="miter" fill="none" stroke="#66b3b3" d="M170.08086 208.34879V221.10564H382.68193V208.34879"></path><path transform="matrix(1,0,0,-1,72.142,356.46)" stroke-width="1.19553" stroke-linecap="butt" stroke-miterlimit="10" stroke-linejoin="miter" fill="none" stroke="#66b3b3" d="M382.68193 221.10564H467.72239"></path><path transform="matrix(1,0,0,-1,72.142,356.46)" stroke-width="1.19553" stroke-linecap="butt" stroke-miterlimit="10" stroke-linejoin="miter" fill="none" stroke="#66b3b3" d="M471.9746 221.10564H480.47856"></path><path transform="matrix(1,0,0,-1,72.142,356.46)" stroke-width="1.19553" stroke-linecap="butt" stroke-miterlimit="10" stroke-linejoin="miter" fill="none" stroke="#66b3b3" d="M484.7302 221.10564H488.98249"></path><path transform="matrix(1,0,0,-1,72.142,356.46)" d="M-17.00781 110.55283H17.00781V144.56847H-17.00781Z" fill="#bfbfff"></path><path transform="matrix(1,0,0,-1,72.142,356.46)" stroke-width="1.19553" stroke-linecap="butt" stroke-miterlimit="10" stroke-linejoin="miter" fill="none" stroke="#6666ff" stroke-opacity=".75" d="M-17.00781 110.55283H17.00781V144.56847H-17.00781Z"></path><path transform="matrix(1,0,0,-1,72.142,356.46)" d="M25.51239 110.55283H59.52803V144.56847H25.51239Z" fill="#e0e0e0"></path><path transform="matrix(1,0,0,-1,72.142,356.46)" stroke-width="1.19553" stroke-linecap="butt" stroke-miterlimit="10" stroke-linejoin="miter" fill="none" stroke="#797979" stroke-opacity=".2" d="M25.51239 110.55283H59.52803V144.56847H25.51239Z"></path><path transform="matrix(1,0,0,-1,72.142,356.46)" d="M68.03261 110.55283H102.04825V144.56847H68.03261Z" fill="#e0e0e0"></path><path transform="matrix(1,0,0,-1,72.142,356.46)" stroke-width="1.19553" stroke-linecap="butt" stroke-miterlimit="10" stroke-linejoin="miter" fill="none" stroke="#797979" stroke-opacity=".2" d="M68.03261 110.55283H102.04825V144.56847H68.03261Z"></path><path transform="matrix(1,0,0,-1,72.142,356.46)" d="M110.55283 110.55283H144.56847V144.56847H110.55283Z" fill="#bfbfff"></path><path transform="matrix(1,0,0,-1,72.142,356.46)" stroke-width="1.19553" stroke-linecap="butt" stroke-miterlimit="10" stroke-linejoin="miter" fill="none" stroke="#6666ff" stroke-opacity=".75" d="M110.55283 110.55283H144.56847V144.56847H110.55283Z"></path><path transform="matrix(1,0,0,-1,72.142,356.46)" d="M280.63368 110.55283H314.64933V144.56847H280.63368Z" fill="#e0e0e0"></path><path transform="matrix(1,0,0,-1,72.142,356.46)" stroke-width="1.19553" stroke-linecap="butt" stroke-miterlimit="10" stroke-linejoin="miter" fill="none" stroke="#797979" stroke-opacity=".35" d="M280.63368 110.55283H314.64933V144.56847H280.63368Z"></path><path transform="matrix(1,0,0,-1,72.142,356.46)" d="M450.71455 110.55283H484.7302V144.56847H450.71455Z" fill="#e0e0e0"></path><path transform="matrix(1,0,0,-1,72.142,356.46)" stroke-width="1.19553" stroke-linecap="butt" stroke-miterlimit="10" stroke-linejoin="miter" fill="none" stroke="#797979" stroke-opacity=".35" d="M450.71455 110.55283H484.7302V144.56847H450.71455Z"></path><path transform="matrix(1,0,0,-1,72.142,356.46)" d="M153.07303 110.55283H187.08867V144.56847H153.07303Z" fill="#bfbfff"></path><path transform="matrix(1,0,0,-1,72.142,356.46)" stroke-width="1.19553" stroke-linecap="butt" stroke-miterlimit="10" stroke-linejoin="miter" fill="none" stroke="#6666ff" stroke-opacity=".75" d="M153.07303 110.55283H187.08867V144.56847H153.07303Z"></path><path transform="matrix(1,0,0,-1,72.142,356.46)" d="M365.67414 110.55283H399.68977V144.56847H365.67414Z" fill="#e0e0e0"></path><path transform="matrix(1,0,0,-1,72.142,356.46)" stroke-width="1.19553" stroke-linecap="butt" stroke-miterlimit="10" stroke-linejoin="miter" fill="none" stroke="#797979" stroke-opacity=".35" d="M365.67414 110.55283H399.68977V144.56847H365.67414Z"></path><path transform="matrix(1,0,0,-1,72.142,356.46)" d="M195.59325 110.55283H229.6089V144.56847H195.59325Z" fill="#ffbfbf"></path><path transform="matrix(1,0,0,-1,72.142,356.46)" stroke-width="1.19553" stroke-linecap="butt" stroke-miterlimit="10" stroke-linejoin="miter" fill="none" stroke="#ff6666" stroke-opacity=".75" d="M195.59325 110.55283H229.6089V144.56847H195.59325Z"></path><path transform="matrix(1,0,0,-1,72.142,356.46)" d="M450.71455 110.55283H454.9668L484.7302 140.31618V144.56847H480.4779L450.71455 114.80508Z" fill="#ff6666"></path><path transform="matrix(1,0,0,-1,72.142,356.46)" d="M450.71455 144.56847H454.9668L484.7302 114.80508V110.55283H480.4779L450.71455 140.31618Z" fill="#ff6666"></path><path transform="matrix(1,0,0,-1,72.142,356.46)" stroke-width="1.19553" stroke-linecap="butt" stroke-miterlimit="10" stroke-linejoin="miter" fill="none" stroke="#ff6666" d="M212.60108 144.56847V157.32532H467.72239V144.56847"></path><path transform="matrix(1,0,0,-1,72.142,356.46)" stroke-width="1.19553" stroke-linecap="butt" stroke-miterlimit="10" stroke-linejoin="miter" fill="none" stroke="#ff6666" d="M471.9746 157.32532H480.47856"></path><path transform="matrix(1,0,0,-1,72.142,356.46)" stroke-width="1.19553" stroke-linecap="butt" stroke-miterlimit="10" stroke-linejoin="miter" fill="none" stroke="#ff6666" d="M484.7302 157.32532H488.98249"></path><path transform="matrix(1,0,0,-1,72.142,356.46)" d="M-17.00781 46.77248H17.00781V80.78816H-17.00781Z" fill="#bfbfff"></path><path transform="matrix(1,0,0,-1,72.142,356.46)" stroke-width="1.19553" stroke-linecap="butt" stroke-miterlimit="10" stroke-linejoin="miter" fill="none" stroke="#6666ff" stroke-opacity=".75" d="M-17.00781 46.77248H17.00781V80.78816H-17.00781Z"></path><path transform="matrix(1,0,0,-1,72.142,356.46)" d="M25.51239 46.77248H59.52803V80.78816H25.51239Z" fill="#e0e0e0"></path><path transform="matrix(1,0,0,-1,72.142,356.46)" stroke-width="1.19553" stroke-linecap="butt" stroke-miterlimit="10" stroke-linejoin="miter" fill="none" stroke="#797979" stroke-opacity=".2" d="M25.51239 46.77248H59.52803V80.78816H25.51239Z"></path><path transform="matrix(1,0,0,-1,72.142,356.46)" d="M68.03261 46.77248H102.04825V80.78816H68.03261Z" fill="#e0e0e0"></path><path transform="matrix(1,0,0,-1,72.142,356.46)" stroke-width="1.19553" stroke-linecap="butt" stroke-miterlimit="10" stroke-linejoin="miter" fill="none" stroke="#797979" stroke-opacity=".2" d="M68.03261 46.77248H102.04825V80.78816H68.03261Z"></path><path transform="matrix(1,0,0,-1,72.142,356.46)" d="M110.55283 46.77248H144.56847V80.78816H110.55283Z" fill="#bfbfff"></path><path transform="matrix(1,0,0,-1,72.142,356.46)" stroke-width="1.19553" stroke-linecap="butt" stroke-miterlimit="10" stroke-linejoin="miter" fill="none" stroke="#6666ff" stroke-opacity=".75" d="M110.55283 46.77248H144.56847V80.78816H110.55283Z"></path><path transform="matrix(1,0,0,-1,72.142,356.46)" d="M280.63368 46.77248H314.64933V80.78816H280.63368Z" fill="#e0e0e0"></path><path transform="matrix(1,0,0,-1,72.142,356.46)" stroke-width="1.19553" stroke-linecap="butt" stroke-miterlimit="10" stroke-linejoin="miter" fill="none" stroke="#797979" stroke-opacity=".35" d="M280.63368 46.77248H314.64933V80.78816H280.63368Z"></path><path transform="matrix(1,0,0,-1,72.142,356.46)" d="M450.71455 46.77248H484.7302V80.78816H450.71455Z" fill="#e0e0e0"></path><path transform="matrix(1,0,0,-1,72.142,356.46)" stroke-width="1.19553" stroke-linecap="butt" stroke-miterlimit="10" stroke-linejoin="miter" fill="none" stroke="#797979" stroke-opacity=".35" d="M450.71455 46.77248H484.7302V80.78816H450.71455Z"></path><path transform="matrix(1,0,0,-1,72.142,356.46)" d="M153.07303 46.77248H187.08867V80.78816H153.07303Z" fill="#bfbfff"></path><path transform="matrix(1,0,0,-1,72.142,356.46)" stroke-width="1.19553" stroke-linecap="butt" stroke-miterlimit="10" stroke-linejoin="miter" fill="none" stroke="#6666ff" stroke-opacity=".75" d="M153.07303 46.77248H187.08867V80.78816H153.07303Z"></path><path transform="matrix(1,0,0,-1,72.142,356.46)" d="M365.67414 46.77248H399.68977V80.78816H365.67414Z" fill="#e0e0e0"></path><path transform="matrix(1,0,0,-1,72.142,356.46)" stroke-width="1.19553" stroke-linecap="butt" stroke-miterlimit="10" stroke-linejoin="miter" fill="none" stroke="#797979" stroke-opacity=".35" d="M365.67414 46.77248H399.68977V80.78816H365.67414Z"></path><path transform="matrix(1,0,0,-1,72.142,356.46)" d="M195.59325 46.77248H229.6089V80.78816H195.59325Z" fill="#e0e0e0"></path><path transform="matrix(1,0,0,-1,72.142,356.46)" stroke-width="1.19553" stroke-linecap="butt" stroke-miterlimit="10" stroke-linejoin="miter" fill="none" stroke="#797979" stroke-opacity=".35" d="M195.59325 46.77248H229.6089V80.78816H195.59325Z"></path><path transform="matrix(1,0,0,-1,72.142,356.46)" d="M195.59325 46.77248H199.84552L229.6089 76.53586V80.78816H225.35662L195.59325 51.02478Z" fill="#a9a9a9"></path><path transform="matrix(1,0,0,-1,72.142,356.46)" d="M195.59325 80.78816H199.84552L229.6089 51.02478V46.77248H225.35662L195.59325 76.53586Z" fill="#a9a9a9"></path><path transform="matrix(1,0,0,-1,72.142,356.46)" d="M238.11347 46.77248H272.1291V80.78816H238.11347Z" fill="#bfffbf"></path><path transform="matrix(1,0,0,-1,72.142,356.46)" stroke-width="1.19553" stroke-linecap="butt" stroke-miterlimit="10" stroke-linejoin="miter" fill="none" stroke="#66b3b3" stroke-opacity=".75" d="M238.11347 46.77248H272.1291V80.78816H238.11347Z"></path><path transform="matrix(1,0,0,-1,72.142,356.46)" stroke-width="1.19553" stroke-linecap="butt" stroke-miterlimit="10" stroke-linejoin="miter" fill="none" stroke="#66b3b3" d="M255.12128 80.78816V93.545H467.72239"></path><path transform="matrix(1,0,0,-1,72.142,356.46)" stroke-width="1.19553" stroke-linecap="butt" stroke-miterlimit="10" stroke-linejoin="miter" fill="none" stroke="#66b3b3" d="M471.9746 93.545H480.47856"></path><path transform="matrix(1,0,0,-1,72.142,356.46)" stroke-width="1.19553" stroke-linecap="butt" stroke-miterlimit="10" stroke-linejoin="miter" fill="none" stroke="#66b3b3" d="M484.7302 93.545H488.98249"></path><text xml:space="preserve" transform="matrix(1.5 0 -0 1.5 -147.27152 1021.14749)" font-size="9.9626" font-family="CMBX10" font-weight="bold"><tspan y="-458.295" x="294.543 299.63389 304.7148">...</tspan></text><path transform="matrix(1,0,0,-1,72.142,356.46)" d="M-17.00781-32.95287H17.00781V1.06274H-17.00781Z" fill="#bfbfff"></path><path transform="matrix(1,0,0,-1,72.142,356.46)" stroke-width="1.19553" stroke-linecap="butt" stroke-miterlimit="10" stroke-linejoin="miter" fill="none" stroke="#6666ff" stroke-opacity=".75" d="M-17.00781-32.95287H17.00781V1.06274H-17.00781Z"></path><path transform="matrix(1,0,0,-1,72.142,356.46)" d="M25.51239-32.95287H59.52803V1.06274H25.51239Z" fill="#e0e0e0"></path><path transform="matrix(1,0,0,-1,72.142,356.46)" stroke-width="1.19553" stroke-linecap="butt" stroke-miterlimit="10" stroke-linejoin="miter" fill="none" stroke="#797979" stroke-opacity=".2" d="M25.51239-32.95287H59.52803V1.06274H25.51239Z"></path><path transform="matrix(1,0,0,-1,72.142,356.46)" d="M68.03261-32.95287H102.04825V1.06274H68.03261Z" fill="#e0e0e0"></path><path transform="matrix(1,0,0,-1,72.142,356.46)" stroke-width="1.19553" stroke-linecap="butt" stroke-miterlimit="10" stroke-linejoin="miter" fill="none" stroke="#797979" stroke-opacity=".2" d="M68.03261-32.95287H102.04825V1.06274H68.03261Z"></path><path transform="matrix(1,0,0,-1,72.142,356.46)" d="M110.55283-32.95287H144.56847V1.06274H110.55283Z" fill="#bfbfff"></path><path transform="matrix(1,0,0,-1,72.142,356.46)" stroke-width="1.19553" stroke-linecap="butt" stroke-miterlimit="10" stroke-linejoin="miter" fill="none" stroke="#6666ff" stroke-opacity=".75" d="M110.55283-32.95287H144.56847V1.06274H110.55283Z"></path><path transform="matrix(1,0,0,-1,72.142,356.46)" d="M280.63368-32.95287H314.64933V1.06274H280.63368Z" fill="#e0e0e0"></path><path transform="matrix(1,0,0,-1,72.142,356.46)" stroke-width="1.19553" stroke-linecap="butt" stroke-miterlimit="10" stroke-linejoin="miter" fill="none" stroke="#797979" stroke-opacity=".35" d="M280.63368-32.95287H314.64933V1.06274H280.63368Z"></path><path transform="matrix(1,0,0,-1,72.142,356.46)" d="M450.71455-32.95287H484.7302V1.06274H450.71455Z" fill="#e0e0e0"></path><path transform="matrix(1,0,0,-1,72.142,356.46)" stroke-width="1.19553" stroke-linecap="butt" stroke-miterlimit="10" stroke-linejoin="miter" fill="none" stroke="#797979" stroke-opacity=".35" d="M450.71455-32.95287H484.7302V1.06274H450.71455Z"></path><path transform="matrix(1,0,0,-1,72.142,356.46)" d="M153.07303-32.95287H187.08867V1.06274H153.07303Z" fill="#bfbfff"></path><path transform="matrix(1,0,0,-1,72.142,356.46)" stroke-width="1.19553" stroke-linecap="butt" stroke-miterlimit="10" stroke-linejoin="miter" fill="none" stroke="#6666ff" stroke-opacity=".75" d="M153.07303-32.95287H187.08867V1.06274H153.07303Z"></path><path transform="matrix(1,0,0,-1,72.142,356.46)" d="M365.67414-32.95287H399.68977V1.06274H365.67414Z" fill="#e0e0e0"></path><path transform="matrix(1,0,0,-1,72.142,356.46)" stroke-width="1.19553" stroke-linecap="butt" stroke-miterlimit="10" stroke-linejoin="miter" fill="none" stroke="#797979" stroke-opacity=".35" d="M365.67414-32.95287H399.68977V1.06274H365.67414Z"></path><path transform="matrix(1,0,0,-1,72.142,356.46)" d="M195.59325-32.95287H229.6089V1.06274H195.59325Z" fill="#e0e0e0"></path><path transform="matrix(1,0,0,-1,72.142,356.46)" stroke-width="1.19553" stroke-linecap="butt" stroke-miterlimit="10" stroke-linejoin="miter" fill="none" stroke="#797979" stroke-opacity=".35" d="M195.59325-32.95287H229.6089V1.06274H195.59325Z"></path><path transform="matrix(1,0,0,-1,72.142,356.46)" d="M195.59325-32.95287H199.84552L229.6089-3.18953V1.06274H225.35662L195.59325-28.70059Z" fill="#a9a9a9"></path><path transform="matrix(1,0,0,-1,72.142,356.46)" d="M195.59325 1.06274H199.84552L229.6089-28.70059V-32.95287H225.35662L195.59325-3.18953Z" fill="#a9a9a9"></path><path transform="matrix(1,0,0,-1,72.142,356.46)" d="M238.11347-32.95287H272.1291V1.06274H238.11347Z" fill="#bfbfff"></path><path transform="matrix(1,0,0,-1,72.142,356.46)" stroke-width="1.19553" stroke-linecap="butt" stroke-miterlimit="10" stroke-linejoin="miter" fill="none" stroke="#6666ff" stroke-opacity=".75" d="M238.11347-32.95287H272.1291V1.06274H238.11347Z"></path><path transform="matrix(1,0,0,-1,72.142,356.46)" d="M323.15388-32.95287H357.16954V1.06274H323.15388Z" fill="#bfbfff"></path><path transform="matrix(1,0,0,-1,72.142,356.46)" stroke-width="1.19553" stroke-linecap="butt" stroke-miterlimit="10" stroke-linejoin="miter" fill="none" stroke="#6666ff" stroke-opacity=".75" d="M323.15388-32.95287H357.16954V1.06274H323.15388Z"></path><path transform="matrix(1,0,0,-1,72.142,356.46)" d="M408.1943-32.95287H442.20997V1.06274H408.1943Z" fill="#bfbfff"></path><path transform="matrix(1,0,0,-1,72.142,356.46)" stroke-width="1.19553" stroke-linecap="butt" stroke-miterlimit="10" stroke-linejoin="miter" fill="none" stroke="#6666ff" stroke-opacity=".75" d="M408.1943-32.95287H442.20997V1.06274H408.1943Z"></path><text xml:space="preserve" transform="matrix(1.5 0 -0 1.5 -34.202997 999.39)" font-size="9.9626" font-family="CMR10"><tspan y="-414.78" x="68.406">1</tspan></text><text xml:space="preserve" transform="matrix(1.5 0 -0 1.5 -34.202997 1039.252)" font-size="9.9626" font-family="CMR10"><tspan y="-494.504" x="68.406">1</tspan></text><text xml:space="preserve" transform="matrix(1.5 0 -0 1.5 -34.202997 1071.142)" font-size="9.9626" font-family="CMR10"><tspan y="-558.284" x="68.406">1</tspan></text><text xml:space="preserve" transform="matrix(1.5 0 -0 1.5 -34.202997 1103.0315)" font-size="9.9626" font-family="CMR10"><tspan y="-622.063" x="68.406">1</tspan></text><text xml:space="preserve" transform="matrix(1.5 0 -0 1.5 -34.202997 1134.9215)" font-size="9.9626" font-family="CMR10"><tspan y="-685.843" x="68.406">1</tspan></text><text xml:space="preserve" transform="matrix(1.5 0 -0 1.5 -34.202997 1166.811)" font-size="9.9626" font-family="CMR10"><tspan y="-749.622" x="68.406">1</tspan></text><text xml:space="preserve" transform="matrix(1.5 0 -0 1.5 -55.463014 999.39)" font-size="9.9626" font-family="CMR10"><tspan y="-414.78" x="110.926">2</tspan></text><text xml:space="preserve" transform="matrix(1.5 0 -0 1.5 -55.463014 1039.252)" font-size="9.9626" font-family="CMR10"><tspan y="-494.504" x="110.926">2</tspan></text><text xml:space="preserve" transform="matrix(1.5 0 -0 1.5 -55.463014 1071.142)" font-size="9.9626" font-family="CMR10"><tspan y="-558.284" x="110.926">2</tspan></text><text xml:space="preserve" transform="matrix(1.5 0 -0 1.5 -55.463014 1103.0315)" font-size="9.9626" font-family="CMR10"><tspan y="-622.063" x="110.926">2</tspan></text><text xml:space="preserve" transform="matrix(1.5 0 -0 1.5 -55.463014 1134.9215)" font-size="9.9626" font-family="CMR10"><tspan y="-685.843" x="110.926">2</tspan></text><text xml:space="preserve" transform="matrix(1.5 0 -0 1.5 -55.463014 1166.811)" font-size="9.9626" font-family="CMR10"><tspan y="-749.622" x="110.926">2</tspan></text><text xml:space="preserve" transform="matrix(1.5 0 -0 1.5 -76.7225 999.39)" font-size="9.9626" font-family="CMR10"><tspan y="-414.78" x="153.445">3</tspan></text><text xml:space="preserve" transform="matrix(1.5 0 -0 1.5 -76.7225 1039.252)" font-size="9.9626" font-family="CMR10"><tspan y="-494.504" x="153.445">3</tspan></text><text xml:space="preserve" transform="matrix(1.5 0 -0 1.5 -76.7225 1071.142)" font-size="9.9626" font-family="CMR10"><tspan y="-558.284" x="153.445">3</tspan></text><text xml:space="preserve" transform="matrix(1.5 0 -0 1.5 -76.7225 1103.0315)" font-size="9.9626" font-family="CMR10"><tspan y="-622.063" x="153.445">3</tspan></text><text xml:space="preserve" transform="matrix(1.5 0 -0 1.5 -76.7225 1134.9215)" font-size="9.9626" font-family="CMR10"><tspan y="-685.843" x="153.445">3</tspan></text><text xml:space="preserve" transform="matrix(1.5 0 -0 1.5 -76.7225 1166.811)" font-size="9.9626" font-family="CMR10"><tspan y="-749.622" x="153.445">3</tspan></text><text xml:space="preserve" transform="matrix(1.5 0 -0 1.5 -97.98251 999.39)" font-size="9.9626" font-family="CMR10"><tspan y="-414.78" x="195.965">4</tspan></text><text xml:space="preserve" transform="matrix(1.5 0 -0 1.5 -97.98251 1039.252)" font-size="9.9626" font-family="CMR10"><tspan y="-494.504" x="195.965">4</tspan></text><text xml:space="preserve" transform="matrix(1.5 0 -0 1.5 -97.98251 1071.142)" font-size="9.9626" font-family="CMR10"><tspan y="-558.284" x="195.965">4</tspan></text><text xml:space="preserve" transform="matrix(1.5 0 -0 1.5 -97.98251 1103.0315)" font-size="9.9626" font-family="CMR10"><tspan y="-622.063" x="195.965">4</tspan></text><text xml:space="preserve" transform="matrix(1.5 0 -0 1.5 -97.98251 1134.9215)" font-size="9.9626" font-family="CMR10"><tspan y="-685.843" x="195.965">4</tspan></text><text xml:space="preserve" transform="matrix(1.5 0 -0 1.5 -97.98251 1166.811)" font-size="9.9626" font-family="CMR10"><tspan y="-749.622" x="195.965">4</tspan></text><text xml:space="preserve" transform="matrix(1.5 0 -0 1.5 -119.24251 999.39)" font-size="9.9626" font-family="CMR10"><tspan y="-414.78" x="238.485">5</tspan></text><text xml:space="preserve" transform="matrix(1.5 0 -0 1.5 -119.24251 1039.252)" font-size="9.9626" font-family="CMR10"><tspan y="-494.504" x="238.485">5</tspan></text><text xml:space="preserve" transform="matrix(1.5 0 -0 1.5 -119.24251 1071.142)" font-size="9.9626" font-family="CMR10"><tspan y="-558.284" x="238.485">5</tspan></text><text xml:space="preserve" transform="matrix(1.5 0 -0 1.5 -119.24251 1103.0315)" font-size="9.9626" font-family="CMR10"><tspan y="-622.063" x="238.485">5</tspan></text><text xml:space="preserve" transform="matrix(1.5 0 -0 1.5 -119.24251 1134.9215)" font-size="9.9626" font-family="CMR10"><tspan y="-685.843" x="238.485">5</tspan></text><text xml:space="preserve" transform="matrix(1.5 0 -0 1.5 -119.24251 1166.811)" font-size="9.9626" font-family="CMR10"><tspan y="-749.622" x="238.485">5</tspan></text><text xml:space="preserve" transform="matrix(1.5 0 -0 1.5 -140.50199 999.39)" font-size="9.9626" font-family="CMR10"><tspan y="-414.78" x="281.004">6</tspan></text><text xml:space="preserve" transform="matrix(1.5 0 -0 1.5 -140.50199 1039.252)" font-size="9.9626" font-family="CMR10"><tspan y="-494.504" x="281.004">6</tspan></text><text xml:space="preserve" transform="matrix(1.5 0 -0 1.5 -140.50199 1071.142)" font-size="9.9626" font-family="CMR10"><tspan y="-558.284" x="281.004">6</tspan></text><text xml:space="preserve" transform="matrix(1.5 0 -0 1.5 -140.50199 1103.0315)" font-size="9.9626" font-family="CMR10"><tspan y="-622.063" x="281.004">6</tspan></text><text xml:space="preserve" transform="matrix(1.5 0 -0 1.5 -140.50199 1134.9215)" font-size="9.9626" font-family="CMR10"><tspan y="-685.843" x="281.004">6</tspan></text><text xml:space="preserve" transform="matrix(1.5 0 -0 1.5 -140.50199 1166.811)" font-size="9.9626" font-family="CMR10"><tspan y="-749.622" x="281.004">6</tspan></text><text xml:space="preserve" transform="matrix(1.5 0 -0 1.5 -161.762 999.39)" font-size="9.9626" font-family="CMR10"><tspan y="-414.78" x="323.524">7</tspan></text><text xml:space="preserve" transform="matrix(1.5 0 -0 1.5 -161.762 1039.252)" font-size="9.9626" font-family="CMR10"><tspan y="-494.504" x="323.524">7</tspan></text><text xml:space="preserve" transform="matrix(1.5 0 -0 1.5 -161.762 1071.142)" font-size="9.9626" font-family="CMR10"><tspan y="-558.284" x="323.524">7</tspan></text><text xml:space="preserve" transform="matrix(1.5 0 -0 1.5 -161.762 1103.0315)" font-size="9.9626" font-family="CMR10"><tspan y="-622.063" x="323.524">7</tspan></text><text xml:space="preserve" transform="matrix(1.5 0 -0 1.5 -161.762 1134.9215)" font-size="9.9626" font-family="CMR10"><tspan y="-685.843" x="323.524">7</tspan></text><text xml:space="preserve" transform="matrix(1.5 0 -0 1.5 -161.762 1166.811)" font-size="9.9626" font-family="CMR10"><tspan y="-749.622" x="323.524">7</tspan></text><text xml:space="preserve" transform="matrix(1.5 0 -0 1.5 -183.02204 999.39)" font-size="9.9626" font-family="CMR10"><tspan y="-414.78" x="366.044">8</tspan></text><text xml:space="preserve" transform="matrix(1.5 0 -0 1.5 -183.02204 1039.252)" font-size="9.9626" font-family="CMR10"><tspan y="-494.504" x="366.044">8</tspan></text><text xml:space="preserve" transform="matrix(1.5 0 -0 1.5 -183.02204 1071.142)" font-size="9.9626" font-family="CMR10"><tspan y="-558.284" x="366.044">8</tspan></text><text xml:space="preserve" transform="matrix(1.5 0 -0 1.5 -183.02204 1103.0315)" font-size="9.9626" font-family="CMR10"><tspan y="-622.063" x="366.044">8</tspan></text><text xml:space="preserve" transform="matrix(1.5 0 -0 1.5 -183.02204 1134.9215)" font-size="9.9626" font-family="CMR10"><tspan y="-685.843" x="366.044">8</tspan></text><text xml:space="preserve" transform="matrix(1.5 0 -0 1.5 -183.02204 1166.811)" font-size="9.9626" font-family="CMR10"><tspan y="-749.622" x="366.044">8</tspan></text><text xml:space="preserve" transform="matrix(1.5 0 -0 1.5 -204.2815 999.39)" font-size="9.9626" font-family="CMR10"><tspan y="-414.78" x="408.563">9</tspan></text><text xml:space="preserve" transform="matrix(1.5 0 -0 1.5 -204.2815 1039.252)" font-size="9.9626" font-family="CMR10"><tspan y="-494.504" x="408.563">9</tspan></text><text xml:space="preserve" transform="matrix(1.5 0 -0 1.5 -204.2815 1071.142)" font-size="9.9626" font-family="CMR10"><tspan y="-558.284" x="408.563">9</tspan></text><text xml:space="preserve" transform="matrix(1.5 0 -0 1.5 -204.2815 1103.0315)" font-size="9.9626" font-family="CMR10"><tspan y="-622.063" x="408.563">9</tspan></text><text xml:space="preserve" transform="matrix(1.5 0 -0 1.5 -204.2815 1134.9215)" font-size="9.9626" font-family="CMR10"><tspan y="-685.843" x="408.563">9</tspan></text><text xml:space="preserve" transform="matrix(1.5 0 -0 1.5 -204.2815 1166.811)" font-size="9.9626" font-family="CMR10"><tspan y="-749.622" x="408.563">9</tspan></text><text xml:space="preserve" transform="matrix(1.5 0 -0 1.5 -223.67353 999.39)" font-size="9.9626" font-family="CMR10"><tspan y="-414.78" x="447.347 452.32829">10</tspan></text><text xml:space="preserve" transform="matrix(1.5 0 -0 1.5 -223.67353 1039.252)" font-size="9.9626" font-family="CMR10"><tspan y="-494.504" x="447.347 452.32829">10</tspan></text><text xml:space="preserve" transform="matrix(1.5 0 -0 1.5 -223.67353 1071.142)" font-size="9.9626" font-family="CMR10"><tspan y="-558.284" x="447.347 452.32829">10</tspan></text><text xml:space="preserve" transform="matrix(1.5 0 -0 1.5 -223.67353 1103.0315)" font-size="9.9626" font-family="CMR10"><tspan y="-622.063" x="447.347 452.32829">10</tspan></text><text xml:space="preserve" transform="matrix(1.5 0 -0 1.5 -223.67353 1134.9215)" font-size="9.9626" font-family="CMR10"><tspan y="-685.843" x="447.347 452.32829">10</tspan></text><text xml:space="preserve" transform="matrix(1.5 0 -0 1.5 -223.67353 1166.811)" font-size="9.9626" font-family="CMR10"><tspan y="-749.622" x="447.347 452.32829">10</tspan></text><text xml:space="preserve" transform="matrix(1.5 0 -0 1.5 -244.93354 999.39)" font-size="9.9626" font-family="CMR10"><tspan y="-414.78" x="489.867 494.8483">11</tspan></text><text xml:space="preserve" transform="matrix(1.5 0 -0 1.5 -244.93354 1039.252)" font-size="9.9626" font-family="CMR10"><tspan y="-494.504" x="489.867 494.8483">11</tspan></text><text xml:space="preserve" transform="matrix(1.5 0 -0 1.5 -244.93354 1071.142)" font-size="9.9626" font-family="CMR10"><tspan y="-558.284" x="489.867 494.8483">11</tspan></text><text xml:space="preserve" transform="matrix(1.5 0 -0 1.5 -244.93354 1103.0315)" font-size="9.9626" font-family="CMR10"><tspan y="-622.063" x="489.867 494.8483">11</tspan></text><text xml:space="preserve" transform="matrix(1.5 0 -0 1.5 -244.93354 1134.9215)" font-size="9.9626" font-family="CMR10"><tspan y="-685.843" x="489.867 494.8483">11</tspan></text><text xml:space="preserve" transform="matrix(1.5 0 -0 1.5 -244.93354 1166.811)" font-size="9.9626" font-family="CMR10"><tspan y="-749.622" x="489.867 494.8483">11</tspan></text><text xml:space="preserve" transform="matrix(1.5 0 -0 1.5 -266.193 999.39)" font-size="9.9626" font-family="CMR10"><tspan y="-414.78" x="532.386 537.3673">12</tspan></text><text xml:space="preserve" transform="matrix(1.5 0 -0 1.5 -266.193 1039.252)" font-size="9.9626" font-family="CMR10"><tspan y="-494.504" x="532.386 537.3673">12</tspan></text><text xml:space="preserve" transform="matrix(1.5 0 -0 1.5 -266.193 1071.142)" font-size="9.9626" font-family="CMR10"><tspan y="-558.284" x="532.386 537.3673">12</tspan></text><text xml:space="preserve" transform="matrix(1.5 0 -0 1.5 -266.193 1103.0315)" font-size="9.9626" font-family="CMR10"><tspan y="-622.063" x="532.386 537.3673">12</tspan></text><text xml:space="preserve" transform="matrix(1.5 0 -0 1.5 -266.193 1134.9215)" font-size="9.9626" font-family="CMR10"><tspan y="-685.843" x="532.386 537.3673">12</tspan></text><text xml:space="preserve" transform="matrix(1.5 0 -0 1.5 -266.193 1166.811)" font-size="9.9626" font-family="CMR10"><tspan y="-749.622" x="532.386 537.3673">12</tspan></text></svg>