<svg xmlns="http://www.w3.org/2000/svg" xmlns:xlink="http://www.w3.org/1999/xlink" width="816" height="1056" viewBox="0 0 612 792"><path stroke-width=".399" stroke-miterlimit="10" fill="none" stroke="#000" d="M135.922 365.842h340.161m-340.161-28.336h340.161m-340.161 28.336v-28.346m28.346 28.346v-28.346m28.347 28.346v-28.346m28.347 28.346v-28.346m28.347 28.346v-28.346m28.347 28.346v-28.346m28.346 28.346v-28.346m28.347 28.346v-28.346m28.347 28.346v-28.346m28.347 28.346v-28.346m28.347 28.346v-28.346m28.346 28.346v-28.346m28.337 28.346v-28.346m.01 0"/><path stroke-width="1.196" stroke-miterlimit="10" fill="none" stroke="#000" d="M135.922 365.842h340.161v-28.346H135.922z"/><path stroke-width=".399" stroke-miterlimit="10" fill="none" stroke="#000" d="M135.922 312.692h340.161m-340.161-28.337h340.161m-340.161 28.337v-28.347m28.346 28.347v-28.347m28.347 28.347v-28.347m28.347 28.347v-28.347m28.347 28.347v-28.347m28.347 28.347v-28.347m28.346 28.347v-28.347m28.347 28.347v-28.347m28.347 28.347v-28.347m28.347 28.347v-28.347m28.347 28.347v-28.347m28.346 28.347v-28.347m28.337 28.347v-28.347m.01 0"/><path stroke-width="1.196" stroke-miterlimit="10" fill="none" stroke="#000" d="M135.922 312.692h340.161v-28.347H135.922z"/><path stroke-width=".399" stroke-miterlimit="10" fill="none" stroke="#000" d="M135.922 270.172h340.161m-340.161-28.337h340.161m-340.161 28.337v-28.347m28.346 28.347v-28.347m28.347 28.347v-28.347m28.347 28.347v-28.347m28.347 28.347v-28.347m28.347 28.347v-28.347m28.346 28.347v-28.347m28.347 28.347v-28.347m28.347 28.347v-28.347m28.347 28.347v-28.347m28.347 28.347v-28.347m28.346 28.347v-28.347m28.337 28.347v-28.347m.01 0"/><path stroke-width="1.196" stroke-miterlimit="10" fill="none" stroke="#000" d="M135.922 270.172h340.161v-28.347H135.922z"/><path stroke-width=".399" stroke-miterlimit="10" fill="none" stroke="#000" d="M135.922 227.652h340.161m-340.161-28.337h340.161m-340.161 28.337v-28.347m28.346 28.347v-28.347m28.347 28.347v-28.347m28.347 28.347v-28.347m28.347 28.347v-28.347m28.347 28.347v-28.347m28.346 28.347v-28.347m28.347 28.347v-28.347m28.347 28.347v-28.347m28.347 28.347v-28.347m28.347 28.347v-28.347m28.346 28.347v-28.347m28.337 28.347v-28.347m.01 0"/><path stroke-width="1.196" stroke-miterlimit="10" fill="none" stroke="#000" d="M135.922 227.652h340.161v-28.347H135.922z"/><path stroke-width=".399" stroke-miterlimit="10" fill="none" stroke="#000" d="M135.922 185.132h340.161m-340.161-28.337h340.161m-340.161 28.337v-28.347m28.346 28.347v-28.347m28.347 28.347v-28.347m28.347 28.347v-28.347m28.347 28.347v-28.347m28.347 28.347v-28.347m28.346 28.347v-28.347m28.347 28.347v-28.347m28.347 28.347v-28.347m28.347 28.347v-28.347m28.347 28.347v-28.347m28.346 28.347v-28.347m28.337 28.347v-28.347m.01 0"/><path stroke-width="1.196" stroke-miterlimit="10" fill="none" stroke="#000" d="M135.922 185.132h340.161v-28.347H135.922z"/><path stroke-width=".399" stroke-miterlimit="10" fill="none" stroke="#000" d="M135.922 142.611h340.161m-340.161-28.337h340.161m-340.161 28.337v-28.347m28.346 28.347v-28.347m28.347 28.347v-28.347m28.347 28.347v-28.347m28.347 28.347v-28.347m28.347 28.347v-28.347m28.346 28.347v-28.347m28.347 28.347v-28.347m28.347 28.347v-28.347m28.347 28.347v-28.347m28.347 28.347v-28.347m28.346 28.347v-28.347m28.337 28.347v-28.347m.01 0"/><path stroke-width="1.196" stroke-miterlimit="10" fill="none" stroke="#000" d="M135.922 142.611h340.161v-28.346H135.922z"/><path d="M138.756 139.776h22.678V117.1h-22.678z" fill="#bfffbf"/><path stroke-width="1.196" stroke-miterlimit="10" fill="none" stroke="#66b3b3" stroke-opacity=".75" d="M138.756 139.776h22.678V117.1h-22.678z"/><path d="M167.103 139.776h22.677V117.1h-22.677z" fill="#e6ffe6"/><path stroke-width="1.196" stroke-miterlimit="10" fill="none" stroke="#66b3b3" stroke-opacity=".35" d="M167.103 139.776h22.677V117.1h-22.677z"/><path d="M195.45 139.776h22.677V117.1H195.45z" fill="#e6ffe6"/><path stroke-width="1.196" stroke-miterlimit="10" fill="none" stroke="#66b3b3" stroke-opacity=".35" d="M195.45 139.776h22.677V117.1H195.45z"/><path stroke-width="1.196" stroke-miterlimit="10" fill="none" stroke="#66b3b3" d="M150.095 117.1v-8.505h28.347v8.504M178.442 108.595h28.347v8.504"/><path d="M138.756 182.297h22.678V159.62h-22.678z" fill="#bfbfff"/><path stroke-width="1.196" stroke-miterlimit="10" fill="none" stroke="#66f" stroke-opacity=".75" d="M138.756 182.297h22.678V159.62h-22.678z"/><path d="M167.103 182.297h22.677V159.62h-22.677z" fill="#e0e0e0"/><path stroke-width="1.196" stroke-miterlimit="10" fill="none" stroke="#797979" stroke-opacity=".2" d="M167.103 182.297h22.677V159.62h-22.677z"/><path d="M195.45 182.297h22.677V159.62H195.45z" fill="#e0e0e0"/><path stroke-width="1.196" stroke-miterlimit="10" fill="none" stroke="#797979" stroke-opacity=".2" d="M195.45 182.297h22.677V159.62H195.45z"/><path d="M223.797 182.297h22.677V159.62h-22.677z" fill="#bfffbf"/><path stroke-width="1.196" stroke-miterlimit="10" fill="none" stroke="#66b3b3" stroke-opacity=".75" d="M223.797 182.297h22.677V159.62h-22.677z"/><path d="M337.184 182.297h22.677V159.62h-22.677z" fill="#e6ffe6"/><path stroke-width="1.196" stroke-miterlimit="10" fill="none" stroke="#66b3b3" stroke-opacity=".35" d="M337.184 182.297h22.677V159.62h-22.677z"/><path d="M450.571 182.297h22.677V159.62h-22.677z" fill="#e6ffe6"/><path stroke-width="1.196" stroke-miterlimit="10" fill="none" stroke="#66b3b3" stroke-opacity=".35" d="M450.571 182.297h22.677V159.62h-22.677z"/><path stroke-width="1.196" stroke-miterlimit="10" fill="none" stroke="#66b3b3" d="M235.135 159.62v-8.505h113.388v8.505M348.523 151.115H461.91v8.505"/><path d="M138.756 224.817h22.678V202.14h-22.678z" fill="#bfbfff"/><path stroke-width="1.196" stroke-miterlimit="10" fill="none" stroke="#66f" stroke-opacity=".75" d="M138.756 224.817h22.678V202.14h-22.678z"/><path d="M167.103 224.817h22.677V202.14h-22.677z" fill="#e0e0e0"/><path stroke-width="1.196" stroke-miterlimit="10" fill="none" stroke="#797979" stroke-opacity=".2" d="M167.103 224.817h22.677V202.14h-22.677z"/><path d="M195.45 224.817h22.677V202.14H195.45z" fill="#e0e0e0"/><path stroke-width="1.196" stroke-miterlimit="10" fill="none" stroke="#797979" stroke-opacity=".2" d="M195.45 224.817h22.677V202.14H195.45z"/><path d="M223.797 224.817h22.677V202.14h-22.677z" fill="#bfbfff"/><path stroke-width="1.196" stroke-miterlimit="10" fill="none" stroke="#66f" stroke-opacity=".75" d="M223.797 224.817h22.677V202.14h-22.677z"/><path d="M337.184 224.817h22.677V202.14h-22.677z" fill="#e0e0e0"/><path stroke-width="1.196" stroke-miterlimit="10" fill="none" stroke="#797979" stroke-opacity=".35" d="M337.184 224.817h22.677V202.14h-22.677z"/><path d="M450.571 224.817h22.677V202.14h-22.677z" fill="#e0e0e0"/><path stroke-width="1.196" stroke-miterlimit="10" fill="none" stroke="#797979" stroke-opacity=".35" d="M450.571 224.817h22.677V202.14h-22.677z"/><path d="M252.144 224.817h22.677V202.14h-22.677z" fill="#bfffbf"/><path stroke-width="1.196" stroke-miterlimit="10" fill="none" stroke="#66b3b3" stroke-opacity=".75" d="M252.144 224.817h22.677V202.14h-22.677z"/><path d="M393.878 224.817h22.677V202.14h-22.677z" fill="#e6ffe6"/><path stroke-width="1.196" stroke-miterlimit="10" fill="none" stroke="#66b3b3" stroke-opacity=".35" d="M393.878 224.817h22.677V202.14h-22.677z"/><path stroke-width="1.196" stroke-miterlimit="10" fill="none" stroke="#66b3b3" d="M263.482 202.14v-8.505h141.734v8.505M405.216 193.635h56.694M464.745 193.635h5.669M473.248 193.635h2.835"/><path d="M138.756 267.337h22.678V244.66h-22.678z" fill="#bfbfff"/><path stroke-width="1.196" stroke-miterlimit="10" fill="none" stroke="#66f" stroke-opacity=".75" d="M138.756 267.337h22.678V244.66h-22.678z"/><path d="M167.103 267.337h22.677V244.66h-22.677z" fill="#e0e0e0"/><path stroke-width="1.196" stroke-miterlimit="10" fill="none" stroke="#797979" stroke-opacity=".2" d="M167.103 267.337h22.677V244.66h-22.677z"/><path d="M195.45 267.337h22.677V244.66H195.45z" fill="#e0e0e0"/><path stroke-width="1.196" stroke-miterlimit="10" fill="none" stroke="#797979" stroke-opacity=".2" d="M195.45 267.337h22.677V244.66H195.45z"/><path d="M223.797 267.337h22.677V244.66h-22.677z" fill="#bfbfff"/><path stroke-width="1.196" stroke-miterlimit="10" fill="none" stroke="#66f" stroke-opacity=".75" d="M223.797 267.337h22.677V244.66h-22.677z"/><path d="M337.184 267.337h22.677V244.66h-22.677z" fill="#e0e0e0"/><path stroke-width="1.196" stroke-miterlimit="10" fill="none" stroke="#797979" stroke-opacity=".35" d="M337.184 267.337h22.677V244.66h-22.677z"/><path d="M450.571 267.337h22.677V244.66h-22.677z" fill="#e0e0e0"/><path stroke-width="1.196" stroke-miterlimit="10" fill="none" stroke="#797979" stroke-opacity=".35" d="M450.571 267.337h22.677V244.66h-22.677z"/><path d="M252.144 267.337h22.677V244.66h-22.677z" fill="#bfbfff"/><path stroke-width="1.196" stroke-miterlimit="10" fill="none" stroke="#66f" stroke-opacity=".75" d="M252.144 267.337h22.677V244.66h-22.677z"/><path d="M393.878 267.337h22.677V244.66h-22.677z" fill="#e0e0e0"/><path stroke-width="1.196" stroke-miterlimit="10" fill="none" stroke="#797979" stroke-opacity=".35" d="M393.878 267.337h22.677V244.66h-22.677z"/><path d="M280.49 267.337h22.678V244.66H280.49z" fill="#ffbfbf"/><path stroke-width="1.196" stroke-miterlimit="10" fill="none" stroke="#f66" stroke-opacity=".75" d="M280.49 267.337h22.678V244.66H280.49z"/><path d="M450.571 267.337h2.835l19.842-19.842v-2.835h-2.834l-19.843 19.842z" fill="#f66"/><path d="M450.571 244.66h2.835l19.842 19.842v2.835h-2.834l-19.843-19.842z" fill="#f66"/><path stroke-width="1.196" stroke-miterlimit="10" fill="none" stroke="#f66" d="M291.829 244.66v-8.505h170.08v8.505M464.745 236.155h5.669M473.248 236.155h2.835"/><path d="M138.756 309.857h22.678V287.18h-22.678z" fill="#bfbfff"/><path stroke-width="1.196" stroke-miterlimit="10" fill="none" stroke="#66f" stroke-opacity=".75" d="M138.756 309.857h22.678V287.18h-22.678z"/><path d="M167.103 309.857h22.677V287.18h-22.677z" fill="#e0e0e0"/><path stroke-width="1.196" stroke-miterlimit="10" fill="none" stroke="#797979" stroke-opacity=".2" d="M167.103 309.857h22.677V287.18h-22.677z"/><path d="M195.45 309.857h22.677V287.18H195.45z" fill="#e0e0e0"/><path stroke-width="1.196" stroke-miterlimit="10" fill="none" stroke="#797979" stroke-opacity=".2" d="M195.45 309.857h22.677V287.18H195.45z"/><path d="M223.797 309.857h22.677V287.18h-22.677z" fill="#bfbfff"/><path stroke-width="1.196" stroke-miterlimit="10" fill="none" stroke="#66f" stroke-opacity=".75" d="M223.797 309.857h22.677V287.18h-22.677z"/><path d="M337.184 309.857h22.677V287.18h-22.677z" fill="#e0e0e0"/><path stroke-width="1.196" stroke-miterlimit="10" fill="none" stroke="#797979" stroke-opacity=".35" d="M337.184 309.857h22.677V287.18h-22.677z"/><path d="M450.571 309.857h22.677V287.18h-22.677z" fill="#e0e0e0"/><path stroke-width="1.196" stroke-miterlimit="10" fill="none" stroke="#797979" stroke-opacity=".35" d="M450.571 309.857h22.677V287.18h-22.677z"/><path d="M252.144 309.857h22.677V287.18h-22.677z" fill="#bfbfff"/><path stroke-width="1.196" stroke-miterlimit="10" fill="none" stroke="#66f" stroke-opacity=".75" d="M252.144 309.857h22.677V287.18h-22.677z"/><path d="M393.878 309.857h22.677V287.18h-22.677z" fill="#e0e0e0"/><path stroke-width="1.196" stroke-miterlimit="10" fill="none" stroke="#797979" stroke-opacity=".35" d="M393.878 309.857h22.677V287.18h-22.677z"/><path d="M280.49 309.857h22.678V287.18H280.49z" fill="#e0e0e0"/><path stroke-width="1.196" stroke-miterlimit="10" fill="none" stroke="#797979" stroke-opacity=".35" d="M280.49 309.857h22.678V287.18H280.49z"/><path d="M280.49 309.857h2.835l19.843-19.842v-2.835h-2.835l-19.843 19.842z" fill="#a9a9a9"/><path d="M280.49 287.18h2.835l19.843 19.842v2.835h-2.835l-19.843-19.842z" fill="#a9a9a9"/><path d="M308.837 309.857h22.677V287.18h-22.677z" fill="#bfffbf"/><path stroke-width="1.196" stroke-miterlimit="10" fill="none" stroke="#66b3b3" stroke-opacity=".75" d="M308.837 309.857h22.677V287.18h-22.677z"/><path stroke-width="1.196" stroke-miterlimit="10" fill="none" stroke="#66b3b3" d="M320.176 287.18v-8.504H461.91M464.745 278.676h5.669M473.248 278.676h2.835"/><symbol id="a"><path d="M.156.078a.078.078 0 1 1-.156 0 .078.078 0 0 1 .156 0z"/></symbol><use xlink:href="#a" transform="matrix(9.9626 0 0 -9.9626 299.169 325.869)"/><use xlink:href="#a" transform="matrix(9.9626 0 0 -9.9626 304.26 325.869)"/><use xlink:href="#a" transform="matrix(9.9626 0 0 -9.9626 309.34 325.869)"/><path d="M138.756 363.008h22.678V340.33h-22.678z" fill="#bfbfff"/><path stroke-width="1.196" stroke-miterlimit="10" fill="none" stroke="#66f" stroke-opacity=".75" d="M138.756 363.008h22.678V340.33h-22.678z"/><path d="M167.103 363.008h22.677V340.33h-22.677z" fill="#e0e0e0"/><path stroke-width="1.196" stroke-miterlimit="10" fill="none" stroke="#797979" stroke-opacity=".2" d="M167.103 363.008h22.677V340.33h-22.677z"/><path d="M195.45 363.008h22.677V340.33H195.45z" fill="#e0e0e0"/><path stroke-width="1.196" stroke-miterlimit="10" fill="none" stroke="#797979" stroke-opacity=".2" d="M195.45 363.008h22.677V340.33H195.45z"/><path d="M223.797 363.008h22.677V340.33h-22.677z" fill="#bfbfff"/><path stroke-width="1.196" stroke-miterlimit="10" fill="none" stroke="#66f" stroke-opacity=".75" d="M223.797 363.008h22.677V340.33h-22.677z"/><path d="M337.184 363.008h22.677V340.33h-22.677z" fill="#e0e0e0"/><path stroke-width="1.196" stroke-miterlimit="10" fill="none" stroke="#797979" stroke-opacity=".35" d="M337.184 363.008h22.677V340.33h-22.677z"/><path d="M450.571 363.008h22.677V340.33h-22.677z" fill="#e0e0e0"/><path stroke-width="1.196" stroke-miterlimit="10" fill="none" stroke="#797979" stroke-opacity=".35" d="M450.571 363.008h22.677V340.33h-22.677z"/><path d="M252.144 363.008h22.677V340.33h-22.677z" fill="#bfbfff"/><path stroke-width="1.196" stroke-miterlimit="10" fill="none" stroke="#66f" stroke-opacity=".75" d="M252.144 363.008h22.677V340.33h-22.677z"/><path d="M393.878 363.008h22.677V340.33h-22.677z" fill="#e0e0e0"/><path stroke-width="1.196" stroke-miterlimit="10" fill="none" stroke="#797979" stroke-opacity=".35" d="M393.878 363.008h22.677V340.33h-22.677z"/><path d="M280.49 363.008h22.678V340.33H280.49z" fill="#e0e0e0"/><path stroke-width="1.196" stroke-miterlimit="10" fill="none" stroke="#797979" stroke-opacity=".35" d="M280.49 363.008h22.678V340.33H280.49z"/><path d="M280.49 363.008h2.835l19.843-19.843v-2.835h-2.835l-19.843 19.843z" fill="#a9a9a9"/><path d="M280.49 340.33h2.835l19.843 19.843v2.835h-2.835l-19.843-19.843z" fill="#a9a9a9"/><path d="M308.837 363.008h22.677V340.33h-22.677z" fill="#bfbfff"/><path stroke-width="1.196" stroke-miterlimit="10" fill="none" stroke="#66f" stroke-opacity=".75" d="M308.837 363.008h22.677V340.33h-22.677z"/><path d="M365.53 363.008h22.678V340.33h-22.677z" fill="#bfbfff"/><path stroke-width="1.196" stroke-miterlimit="10" fill="none" stroke="#66f" stroke-opacity=".75" d="M365.53 363.008h22.678V340.33h-22.677z"/><path d="M422.225 363.008h22.677V340.33h-22.677z" fill="#bfbfff"/><path stroke-width="1.196" stroke-miterlimit="10" fill="none" stroke="#66f" stroke-opacity=".75" d="M422.225 363.008h22.677V340.33h-22.677z"/><symbol id="b"><path d="M.205.64c0 .024 0 .026-.023.026C.12.602.032.602 0 .602V.571a.3.3 0 0 1 .131.026V.079C.131.043.128.031.038.031H.006V0c.035.003.122.003.162.003.04 0 .127 0 .162-.003v.031H.298c-.09 0-.093.011-.093.048V.64z"/></symbol><use xlink:href="#b" transform="matrix(9.9626 0 0 -9.9626 148.49 354.879)"/><use xlink:href="#b" transform="matrix(9.9626 0 0 -9.9626 148.49 301.729)"/><use xlink:href="#b" transform="matrix(9.9626 0 0 -9.9626 148.49 259.21)"/><use xlink:href="#b" transform="matrix(9.9626 0 0 -9.9626 148.49 216.69)"/><use xlink:href="#b" transform="matrix(9.9626 0 0 -9.9626 148.49 174.17)"/><use xlink:href="#b" transform="matrix(9.9626 0 0 -9.9626 148.49 131.651)"/><symbol id="c"><path d="M.077.077.183.18c.156.138.216.192.216.292 0 .114-.09.194-.212.194A.185.185 0 0 1 0 .485C0 .429.05.429.053.429c.017 0 .052.012.052.053a.05.05 0 0 1-.053.052L.039.533a.144.144 0 0 0 .135.102C.265.635.308.554.308.472c0-.08-.05-.159-.105-.221L.011.037C0 .026 0 .024 0 0h.371l.028.174H.374C.369.144.362.1.352.085.345.077.279.077.257.077h-.18z"/></symbol><use xlink:href="#c" transform="matrix(9.9626 0 0 -9.9626 176.448 354.879)"/><use xlink:href="#c" transform="matrix(9.9626 0 0 -9.9626 176.448 301.729)"/><use xlink:href="#c" transform="matrix(9.9626 0 0 -9.9626 176.448 259.21)"/><use xlink:href="#c" transform="matrix(9.9626 0 0 -9.9626 176.448 216.69)"/><use xlink:href="#c" transform="matrix(9.9626 0 0 -9.9626 176.448 174.17)"/><use xlink:href="#c" transform="matrix(9.9626 0 0 -9.9626 176.448 131.651)"/><symbol id="d"><path d="M.248.374c.082.027.14.097.14.176C.388.632.3.688.204.688.103.688.027.628.027.552.027.519.049.5.078.5.109.5.129.522.129.551c0 .05-.047.05-.062.05C.098.65.164.663.2.663.241.663.296.641.296.551A.25.25 0 0 0 .268.437C.238.389.204.386.179.385A.554.554 0 0 0 .14.382C.132.381.125.38.125.37c0-.011.007-.011.024-.011h.044C.275.359.312.291.312.193.312.057.243.028.199.028.156.028.081.045.046.104.081.099.112.121.112.159a.054.054 0 0 1-.056.056C.032.215 0 .201 0 .157 0 .066.093 0 .202 0c.122 0 .213.091.213.193 0 .082-.063.16-.167.181z"/></symbol><use xlink:href="#d" transform="matrix(9.9626 0 0 -9.9626 204.715 355.098)"/><use xlink:href="#d" transform="matrix(9.9626 0 0 -9.9626 204.715 301.948)"/><use xlink:href="#d" transform="matrix(9.9626 0 0 -9.9626 204.715 259.43)"/><use xlink:href="#d" transform="matrix(9.9626 0 0 -9.9626 204.715 216.91)"/><use xlink:href="#d" transform="matrix(9.9626 0 0 -9.9626 204.715 174.39)"/><use xlink:href="#d" transform="matrix(9.9626 0 0 -9.9626 204.715 131.87)"/><symbol id="e"><path d="M.266.165V.078C.266.042.264.031.19.031H.169V0C.21.003.262.003.304.003.346.003.399.003.44 0v.031H.419C.345.031.343.042.343.078v.087h.1v.031h-.1v.455c0 .02 0 .026-.016.026-.009 0-.012 0-.02-.012L0 .196V.165h.266m.006.031H.028l.244.373V.196z"/></symbol><use xlink:href="#e" transform="matrix(9.9626 0 0 -9.9626 232.922 354.879)"/><use xlink:href="#e" transform="matrix(9.9626 0 0 -9.9626 232.922 301.729)"/><use xlink:href="#e" transform="matrix(9.9626 0 0 -9.9626 232.922 259.21)"/><use xlink:href="#e" transform="matrix(9.9626 0 0 -9.9626 232.922 216.69)"/><use xlink:href="#e" transform="matrix(9.9626 0 0 -9.9626 232.922 174.17)"/><use xlink:href="#e" transform="matrix(9.9626 0 0 -9.9626 232.922 131.651)"/><symbol id="f"><path d="M.399.223c0 .119-.082.219-.19.219A.176.176 0 0 1 .082.391v.195A.317.317 0 0 1 .167.573C.29.573.36.664.36.677.36.683.357.688.35.688c-.001 0-.003 0-.008-.003A.33.33 0 0 0 .073.684L.061.687c-.01 0-.01-.008-.01-.024V.367c0-.018 0-.026.014-.026.007 0 .009.003.013.009.011.016.048.07.129.07C.259.42.284.374.292.356A.308.308 0 0 0 .31.23C.31.195.31.135.286.093A.125.125 0 0 0 .179.028.156.156 0 0 0 .032.14C.035.139.038.138.049.138c.033 0 .05.025.05.049a.048.048 0 0 1-.05.049C.035.236 0 .229 0 .183 0 .097.069 0 .181 0a.22.22 0 0 1 .218.223z"/></symbol><use xlink:href="#f" transform="matrix(9.9626 0 0 -9.9626 261.488 355.098)"/><use xlink:href="#f" transform="matrix(9.9626 0 0 -9.9626 261.488 301.948)"/><use xlink:href="#f" transform="matrix(9.9626 0 0 -9.9626 261.488 259.43)"/><use xlink:href="#f" transform="matrix(9.9626 0 0 -9.9626 261.488 216.91)"/><use xlink:href="#f" transform="matrix(9.9626 0 0 -9.9626 261.488 174.39)"/><use xlink:href="#f" transform="matrix(9.9626 0 0 -9.9626 261.488 131.87)"/><symbol id="g"><path d="M.09.35v.024c0 .253.124.289.175.289.024 0 .066-.006.088-.04-.015 0-.055 0-.055-.045 0-.031.024-.046.046-.046C.36.532.39.541.39.58.39.64.346.688.263.688.135.688 0 .559 0 .338 0 .071.116 0 .209 0 .32 0 .415.094.415.226c0 .127-.089.223-.2.223C.147.449.11.398.09.35M.209.028C.146.028.116.088.11.103.092.15.092.23.092.248c0 .078.032.178.122.178.016 0 .062 0 .093-.062C.325.327.325.276.325.227c0-.048 0-.098-.017-.134C.278.033.232.028.209.028z"/></symbol><use xlink:href="#g" transform="matrix(9.9626 0 0 -9.9626 289.754 355.098)"/><use xlink:href="#g" transform="matrix(9.9626 0 0 -9.9626 289.754 301.948)"/><use xlink:href="#g" transform="matrix(9.9626 0 0 -9.9626 289.754 259.43)"/><use xlink:href="#g" transform="matrix(9.9626 0 0 -9.9626 289.754 216.91)"/><use xlink:href="#g" transform="matrix(9.9626 0 0 -9.9626 289.754 174.39)"/><use xlink:href="#g" transform="matrix(9.9626 0 0 -9.9626 289.754 131.87)"/><symbol id="h"><path d="M.42.631c.009.012.009.014.009.035H.186C.064.666.062.679.058.698H.033L0 .492h.025C.028.508.037.571.05.583c.007.006.085.006.098.006h.207C.344.573.265.464.243.431A.699.699 0 0 1 .12.055C.12.045.12 0 .166 0s.046.045.046.055v.051c0 .055.003.11.011.164.004.023.018.109.062.171l.135.19z"/></symbol><use xlink:href="#h" transform="matrix(9.9626 0 0 -9.9626 318.24 355.098)"/><use xlink:href="#h" transform="matrix(9.9626 0 0 -9.9626 318.24 301.948)"/><use xlink:href="#h" transform="matrix(9.9626 0 0 -9.9626 318.24 259.43)"/><use xlink:href="#h" transform="matrix(9.9626 0 0 -9.9626 318.24 216.91)"/><use xlink:href="#h" transform="matrix(9.9626 0 0 -9.9626 318.24 174.39)"/><use xlink:href="#h" transform="matrix(9.9626 0 0 -9.9626 318.24 131.87)"/><symbol id="i"><path d="M.121.479C.075.509.071.543.071.56c0 .061.065.103.136.103C.28.663.344.611.344.539.344.482.305.434.245.399l-.124.08M.267.384c.072.037.121.089.121.155 0 .092-.089.149-.18.149-.1 0-.181-.074-.181-.167a.16.16 0 0 1 .044-.11C.082.399.119.374.144.357.086.328 0 .272 0 .173 0 .067.102 0 .207 0 .32 0 .415.083.415.19a.18.18 0 0 1-.049.123.422.422 0 0 1-.099.071m-.1-.042L.29.264C.318.245.365.215.365.154.365.08.29.028.208.028.122.028.05.09.05.173c0 .058.032.122.117.169z"/></symbol><use xlink:href="#i" transform="matrix(9.9626 0 0 -9.9626 346.447 355.098)"/><use xlink:href="#i" transform="matrix(9.9626 0 0 -9.9626 346.447 301.948)"/><use xlink:href="#i" transform="matrix(9.9626 0 0 -9.9626 346.447 259.43)"/><use xlink:href="#i" transform="matrix(9.9626 0 0 -9.9626 346.447 216.91)"/><use xlink:href="#i" transform="matrix(9.9626 0 0 -9.9626 346.447 174.39)"/><use xlink:href="#i" transform="matrix(9.9626 0 0 -9.9626 346.447 131.87)"/><symbol id="j"><path d="M.325.34V.308c0-.234-.104-.28-.162-.28C.146.028.092.03.065.064c.044 0 .052.029.052.046 0 .031-.024.046-.046.046C.055.156.025.147.025.108.025.041.079 0 .164 0c.129 0 .251.136.251.351C.415.62.3.688.211.688A.193.193 0 0 1 .064.625.214.214 0 0 1 0 .463C0 .338.088.24.2.24c.061 0 .102.042.125.1M.201.263c-.016 0-.062 0-.093.063C.09.363.09.413.09.462.09.516.09.563.111.6c.027.05.065.063.1.063C.257.663.29.629.307.584A.497.497 0 0 0 .323.443C.323.36.289.263.201.263z"/></symbol><use xlink:href="#j" transform="matrix(9.9626 0 0 -9.9626 374.793 355.098)"/><use xlink:href="#j" transform="matrix(9.9626 0 0 -9.9626 374.793 301.948)"/><use xlink:href="#j" transform="matrix(9.9626 0 0 -9.9626 374.793 259.43)"/><use xlink:href="#j" transform="matrix(9.9626 0 0 -9.9626 374.793 216.91)"/><use xlink:href="#j" transform="matrix(9.9626 0 0 -9.9626 374.793 174.39)"/><use xlink:href="#j" transform="matrix(9.9626 0 0 -9.9626 374.793 131.87)"/><symbol id="k"><path d="M.421.342c0 .08-.005.16-.04.234A.185.185 0 0 1 .037.569.535.535 0 0 1 0 .342C0 .267.004.177.045.101A.183.183 0 0 1 .21 0c.054 0 .13.021.174.116a.533.533 0 0 1 .037.226M.21.022C.171.022.112.047.094.143.083.203.083.295.083.354c0 .064 0 .13.008.184C.11.657.185.666.21.666.243.666.309.648.328.549c.01-.056.01-.132.01-.195 0-.075 0-.143-.011-.207C.312.052.255.022.21.022z"/></symbol><use xlink:href="#b" transform="matrix(9.9626 0 0 -9.9626 401.118 354.879)"/><use xlink:href="#k" transform="matrix(9.9626 0 0 -9.9626 405.6 355.098)"/><use xlink:href="#b" transform="matrix(9.9626 0 0 -9.9626 401.118 301.729)"/><use xlink:href="#k" transform="matrix(9.9626 0 0 -9.9626 405.6 301.948)"/><use xlink:href="#b" transform="matrix(9.9626 0 0 -9.9626 401.118 259.21)"/><use xlink:href="#k" transform="matrix(9.9626 0 0 -9.9626 405.6 259.43)"/><use xlink:href="#b" transform="matrix(9.9626 0 0 -9.9626 401.118 216.69)"/><use xlink:href="#k" transform="matrix(9.9626 0 0 -9.9626 405.6 216.91)"/><use xlink:href="#b" transform="matrix(9.9626 0 0 -9.9626 401.118 174.17)"/><use xlink:href="#k" transform="matrix(9.9626 0 0 -9.9626 405.6 174.39)"/><use xlink:href="#b" transform="matrix(9.9626 0 0 -9.9626 401.118 131.651)"/><use xlink:href="#k" transform="matrix(9.9626 0 0 -9.9626 405.6 131.87)"/><use xlink:href="#b" transform="matrix(9.9626 0 0 -9.9626 429.465 354.879)"/><use xlink:href="#b" transform="matrix(9.9626 0 0 -9.9626 434.446 354.879)"/><use xlink:href="#b" transform="matrix(9.9626 0 0 -9.9626 429.465 301.729)"/><use xlink:href="#b" transform="matrix(9.9626 0 0 -9.9626 434.446 301.729)"/><use xlink:href="#b" transform="matrix(9.9626 0 0 -9.9626 429.465 259.21)"/><use xlink:href="#b" transform="matrix(9.9626 0 0 -9.9626 434.446 259.21)"/><use xlink:href="#b" transform="matrix(9.9626 0 0 -9.9626 429.465 216.69)"/><use xlink:href="#b" transform="matrix(9.9626 0 0 -9.9626 434.446 216.69)"/><use xlink:href="#b" transform="matrix(9.9626 0 0 -9.9626 429.465 174.17)"/><use xlink:href="#b" transform="matrix(9.9626 0 0 -9.9626 434.446 174.17)"/><use xlink:href="#b" transform="matrix(9.9626 0 0 -9.9626 429.465 131.651)"/><use xlink:href="#b" transform="matrix(9.9626 0 0 -9.9626 434.446 131.651)"/><use xlink:href="#b" transform="matrix(9.9626 0 0 -9.9626 457.81 354.879)"/><use xlink:href="#c" transform="matrix(9.9626 0 0 -9.9626 462.403 354.879)"/><use xlink:href="#b" transform="matrix(9.9626 0 0 -9.9626 457.81 301.729)"/><use xlink:href="#c" transform="matrix(9.9626 0 0 -9.9626 462.403 301.729)"/><use xlink:href="#b" transform="matrix(9.9626 0 0 -9.9626 457.81 259.21)"/><use xlink:href="#c" transform="matrix(9.9626 0 0 -9.9626 462.403 259.21)"/><use xlink:href="#b" transform="matrix(9.9626 0 0 -9.9626 457.81 216.69)"/><use xlink:href="#c" transform="matrix(9.9626 0 0 -9.9626 462.403 216.69)"/><use xlink:href="#b" transform="matrix(9.9626 0 0 -9.9626 457.81 174.17)"/><use xlink:href="#c" transform="matrix(9.9626 0 0 -9.9626 462.403 174.17)"/><use xlink:href="#b" transform="matrix(9.9626 0 0 -9.9626 457.81 131.651)"/><use xlink:href="#c" transform="matrix(9.9626 0 0 -9.9626 462.403 131.651)"/></svg>