<svg xmlns:dc="http://purl.org/dc/elements/1.1/" xmlns:cc="http://creativecommons.org/ns#" xmlns:rdf="http://www.w3.org/1999/02/22-rdf-syntax-ns#" xmlns:svg="http://www.w3.org/2000/svg" xmlns="http://www.w3.org/2000/svg" xml:space="preserve" id="svg2" version="1.1" viewBox="59.25 1.8 697.5 158.93"><metadata id="metadata8"><rdf:RDF><cc:Work rdf:about=""><dc:format>image/svg+xml</dc:format><dc:type rdf:resource="http://purl.org/dc/dcmitype/StillImage"></dc:type></cc:Work></rdf:RDF></metadata><defs id="defs6"></defs><g transform="matrix(1.3333333,0,0,-1.3333333,0,1056)" id="g10"><g transform="translate(72.142,699.162)" id="g12"><g id="g14"><g id="g16"><g id="g18"><g id="g20"><path id="path22" style="fill:#ffffff;fill-opacity:1;fill-rule:nonzero;stroke:none" d="M -21.26009,-21.26009 H 488.98248 V 21.26012 H -21.26009 Z"></path></g><path id="path24" style="fill:none;stroke:#000000;stroke-width:0.3985;stroke-linecap:butt;stroke-linejoin:miter;stroke-miterlimit:10;stroke-dasharray:none;stroke-opacity:1" d="M -21.26009,-21.26009 H 488.98248 M -21.26009,21.24518 H 488.98248 M -21.26009,-21.26009 v 42.52021 m 42.52021,-42.52021 v 42.52021 m 42.52021,-42.52021 v 42.52021 m 42.52021,-42.52021 v 42.52021 m 42.52023,-42.52021 v 42.52021 m 42.5202,-42.52021 v 42.52021 m 42.52022,-42.52021 v 42.52021 m 42.52021,-42.52021 v 42.52021 m 42.52023,-42.52021 v 42.52021 m 42.5202,-42.52021 v 42.52021 m 42.52022,-42.52021 v 42.52021 m 42.52022,-42.52021 v 42.52021 m 42.50527,-42.52021 v 42.52021"></path><g id="g26"><path id="path28" style="fill:none;stroke:#000000;stroke-width:1.19553006;stroke-linecap:butt;stroke-linejoin:miter;stroke-miterlimit:10;stroke-dasharray:none;stroke-opacity:1" d="M -21.26009,-21.26009 H 488.98248 V 21.26012 H -21.26009 Z"></path></g><g id="g30"><path id="path32" style="fill:#ffffff;fill-opacity:1;fill-rule:nonzero;stroke:none" d="M -21.26009,42.52023 H 488.98248 V 85.04044 H -21.26009 Z"></path></g><path id="path34" style="fill:none;stroke:#000000;stroke-width:0.3985;stroke-linecap:butt;stroke-linejoin:miter;stroke-miterlimit:10;stroke-dasharray:none;stroke-opacity:1" d="M -21.26009,42.52023 H 488.98248 M -21.26009,85.02551 H 488.98248 M -21.26009,42.52023 V 85.04044 M 21.26012,42.52023 V 85.04044 M 63.78033,42.52023 v 42.52021 m 42.52021,-42.52021 v 42.52021 m 42.52023,-42.52021 v 42.52021 m 42.5202,-42.52021 V 85.04044 M 233.86119,42.52023 V 85.04044 M 276.3814,42.52023 v 42.52021 m 42.52023,-42.52021 v 42.52021 m 42.5202,-42.52021 v 42.52021 m 42.52022,-42.52021 v 42.52021 m 42.52022,-42.52021 v 42.52021 m 42.50527,-42.52021 v 42.52021"></path><g id="g36"><path id="path38" style="fill:none;stroke:#000000;stroke-width:1.19553006;stroke-linecap:butt;stroke-linejoin:miter;stroke-miterlimit:10;stroke-dasharray:none;stroke-opacity:1" d="m -21.26009,42.52022 h 510.24257 v 42.5202 H -21.26009 Z"></path></g><g id="g40"><path id="path42" style="fill:#bfbfff;fill-opacity:1;fill-rule:nonzero;stroke:none" d="M -17.00781,-17.00781 H 17.00781 V 17.00781 H -17.00781 Z"></path></g><g id="g44"><path id="path46" style="fill:none;stroke:#6666ff;stroke-width:1.19553006;stroke-linecap:butt;stroke-linejoin:miter;stroke-miterlimit:10;stroke-dasharray:none;stroke-opacity:0.75" d="M -17.00781,-17.00781 H 17.00781 V 17.00781 H -17.00781 Z"></path></g><g id="g48"><path id="path50" style="fill:#d9d9d9;fill-opacity:1;fill-rule:nonzero;stroke:none" d="M 25.51239,-17.00781 H 59.52803 V 17.00781 H 25.51239 Z"></path></g><g id="g52"><path id="path54" style="fill:none;stroke:#666666;stroke-width:1.19553006;stroke-linecap:butt;stroke-linejoin:miter;stroke-miterlimit:10;stroke-dasharray:none;stroke-opacity:0.2" d="M 25.51239,-17.00781 H 59.52803 V 17.00781 H 25.51239 Z"></path></g><g id="g56"><path id="path58" style="fill:#e6e6ff;fill-opacity:1;fill-rule:nonzero;stroke:none" d="m 68.03261,-17.00781 h 34.01564 V 17.00781 H 68.03261 Z"></path></g><g id="g60"><path id="path62" style="fill:none;stroke:#6666ff;stroke-width:1.19553006;stroke-linecap:butt;stroke-linejoin:miter;stroke-miterlimit:10;stroke-dasharray:none;stroke-opacity:0.35" d="m 68.03261,-17.00781 h 34.01564 V 17.00781 H 68.03261 Z"></path></g><g id="g64"><path id="path66" style="fill:#e6e6ff;fill-opacity:1;fill-rule:nonzero;stroke:none" d="m 110.55283,-17.00781 h 34.01564 v 34.01562 h -34.01564 z"></path></g><g id="g68"><path id="path70" style="fill:none;stroke:#6666ff;stroke-width:1.19553006;stroke-linecap:butt;stroke-linejoin:miter;stroke-miterlimit:10;stroke-dasharray:none;stroke-opacity:0.35" d="m 110.55283,-17.00781 h 34.01564 v 34.01562 h -34.01564 z"></path></g><g id="g72"><path id="path74" style="fill:none;stroke:#6666ff;stroke-width:1.19553006;stroke-linecap:butt;stroke-linejoin:miter;stroke-miterlimit:10;stroke-dasharray:none;stroke-opacity:1" d="M 0,17.00781 V 29.76466 H 85.04042 V 17.00781"></path></g><g id="g76"><path id="path78" style="fill:none;stroke:#6666ff;stroke-width:1.19553006;stroke-linecap:butt;stroke-linejoin:miter;stroke-miterlimit:10;stroke-dasharray:none;stroke-opacity:1" d="m 85.04042,29.76466 h 42.52022 V 17.00781"></path></g><g id="g80"><path id="path82" style="fill:#d9d9d9;fill-opacity:1;fill-rule:nonzero;stroke:none" d="m 153.07303,-17.00781 h 34.01564 v 34.01562 h -34.01564 z"></path></g><g id="g84"><path id="path86" style="fill:none;stroke:#666666;stroke-width:1.19553006;stroke-linecap:butt;stroke-linejoin:miter;stroke-miterlimit:10;stroke-dasharray:none;stroke-opacity:0.2" d="m 153.07303,-17.00781 h 34.01564 v 34.01562 h -34.01564 z"></path></g><g id="g88"><path id="path90" style="fill:#bfbfff;fill-opacity:1;fill-rule:nonzero;stroke:none" d="M 195.59325,-17.00781 H 229.6089 V 17.00781 H 195.59325 Z"></path></g><g id="g92"><path id="path94" style="fill:none;stroke:#6666ff;stroke-width:1.19553006;stroke-linecap:butt;stroke-linejoin:miter;stroke-miterlimit:10;stroke-dasharray:none;stroke-opacity:0.75" d="M 195.59325,-17.00781 H 229.6089 V 17.00781 H 195.59325 Z"></path></g><g id="g96"><path id="path98" style="fill:#d9d9d9;fill-opacity:1;fill-rule:nonzero;stroke:none" d="M 238.11346,-17.00781 H 272.1291 V 17.00781 H 238.11346 Z"></path></g><g id="g100"><path id="path102" style="fill:none;stroke:#666666;stroke-width:1.19553006;stroke-linecap:butt;stroke-linejoin:miter;stroke-miterlimit:10;stroke-dasharray:none;stroke-opacity:0.2" d="M 238.11346,-17.00781 H 272.1291 V 17.00781 H 238.11346 Z"></path></g><g id="g104"><path id="path106" style="fill:#e6e6ff;fill-opacity:1;fill-rule:nonzero;stroke:none" d="m 280.63368,-17.00781 h 34.01564 v 34.01562 h -34.01564 z"></path></g><g id="g108"><path id="path110" style="fill:none;stroke:#6666ff;stroke-width:1.19553006;stroke-linecap:butt;stroke-linejoin:miter;stroke-miterlimit:10;stroke-dasharray:none;stroke-opacity:0.35" d="m 280.63368,-17.00781 h 34.01564 v 34.01562 h -34.01564 z"></path></g><g id="g112"><path id="path114" style="fill:#e6e6ff;fill-opacity:1;fill-rule:nonzero;stroke:none" d="m 323.15388,-17.00781 h 34.01565 v 34.01562 h -34.01565 z"></path></g><g id="g116"><path id="path118" style="fill:none;stroke:#6666ff;stroke-width:1.19553006;stroke-linecap:butt;stroke-linejoin:miter;stroke-miterlimit:10;stroke-dasharray:none;stroke-opacity:0.35" d="m 323.15388,-17.00781 h 34.01565 v 34.01562 h -34.01565 z"></path></g><g id="g120"><path id="path122" style="fill:none;stroke:#6666ff;stroke-width:1.19553006;stroke-linecap:butt;stroke-linejoin:miter;stroke-miterlimit:10;stroke-dasharray:none;stroke-opacity:1" d="m 212.60107,17.00781 v 12.75685 h 85.04044 V 17.00781"></path></g><g id="g124"><path id="path126" style="fill:none;stroke:#6666ff;stroke-width:1.19553006;stroke-linecap:butt;stroke-linejoin:miter;stroke-miterlimit:10;stroke-dasharray:none;stroke-opacity:1" d="m 297.64151,29.76466 h 42.5202 V 17.00781"></path></g><g id="g128"><path id="path130" style="fill:#bfbfff;fill-opacity:1;fill-rule:nonzero;stroke:none" d="m 365.67412,-17.00781 h 34.01564 v 34.01562 h -34.01564 z"></path></g><g id="g132"><path id="path134" style="fill:none;stroke:#6666ff;stroke-width:1.19553006;stroke-linecap:butt;stroke-linejoin:miter;stroke-miterlimit:10;stroke-dasharray:none;stroke-opacity:0.75" d="m 365.67412,-17.00781 h 34.01564 v 34.01562 h -34.01564 z"></path></g><g id="g136"><path id="path138" style="fill:#d9d9d9;fill-opacity:1;fill-rule:nonzero;stroke:none" d="m 408.19432,-17.00781 h 34.01564 v 34.01562 h -34.01564 z"></path></g><g id="g140"><path id="path142" style="fill:none;stroke:#666666;stroke-width:1.19553006;stroke-linecap:butt;stroke-linejoin:miter;stroke-miterlimit:10;stroke-dasharray:none;stroke-opacity:0.2" d="m 408.19432,-17.00781 h 34.01564 v 34.01562 h -34.01564 z"></path></g><g id="g144"><path id="path146" style="fill:#e6e6ff;fill-opacity:1;fill-rule:nonzero;stroke:none" d="m 450.71454,-17.00781 h 34.01564 v 34.01562 h -34.01564 z"></path></g><g id="g148"><path id="path150" style="fill:none;stroke:#6666ff;stroke-width:1.19553006;stroke-linecap:butt;stroke-linejoin:miter;stroke-miterlimit:10;stroke-dasharray:none;stroke-opacity:0.35" d="m 450.71454,-17.00781 h 34.01564 v 34.01562 h -34.01564 z"></path></g><g id="g152"><path id="path154" style="fill:none;stroke:#6666ff;stroke-width:1.19553006;stroke-linecap:butt;stroke-linejoin:miter;stroke-miterlimit:10;stroke-dasharray:none;stroke-opacity:1" d="m 382.68193,17.00781 v 12.75685 h 85.04044 V 17.00781"></path></g><g id="g156"><path id="path158" style="fill:none;stroke:#6666ff;stroke-width:1.19553006;stroke-linecap:butt;stroke-linejoin:miter;stroke-miterlimit:10;stroke-dasharray:none;stroke-opacity:1" d="m 467.72237,29.76466 h 4.25225"></path></g><g id="g160"><path id="path162" style="fill:none;stroke:#6666ff;stroke-width:1.19553006;stroke-linecap:butt;stroke-linejoin:miter;stroke-miterlimit:10;stroke-dasharray:none;stroke-opacity:1" d="m 476.22627,29.76466 h 4.25228"></path></g><g id="g164"><path id="path166" style="fill:none;stroke:#6666ff;stroke-width:1.19553006;stroke-linecap:butt;stroke-linejoin:miter;stroke-miterlimit:10;stroke-dasharray:none;stroke-opacity:1" d="m 484.73018,29.76466 h 4.2523"></path></g></g><g id="g168"><g transform="matrix(1.25,0,0,1.25,-13.665,-3.857)" id="g170"><g id="g172"><g transform="translate(-58.477,-695.305)" id="g174"><text id="text178" style="font-variant:normal;font-weight:normal;font-size:9.96259975px;font-family:CMMI10;-inkscape-font-specification:CMMI10;writing-mode:lr-tb;fill:#000000;fill-opacity:1;fill-rule:nonzero;stroke:none" transform="matrix(1,0,0,-1,58.477,695.305)"><tspan id="tspan176" y="0" x="0">v</tspan></text><text id="text182" style="font-variant:normal;font-weight:normal;font-size:9.96259975px;font-family:CMSY10;-inkscape-font-specification:CMSY10;writing-mode:lr-tb;fill:#000000;fill-opacity:1;fill-rule:nonzero;stroke:none" transform="matrix(1,0,0,-1,65.878,695.305)"><tspan id="tspan180" y="0" x="0">·</tspan></text><text id="text186" style="font-variant:normal;font-weight:normal;font-size:9.96259975px;font-family:CMMI10;-inkscape-font-specification:CMMI10;writing-mode:lr-tb;fill:#000000;fill-opacity:1;fill-rule:nonzero;stroke:none" transform="matrix(1,0,0,-1,70.859,695.305)"><tspan id="tspan184" y="0" x="0">p</tspan></text><text id="text190" style="font-variant:normal;font-weight:normal;font-size:6.97380018px;font-family:CMR7;-inkscape-font-specification:CMR7;writing-mode:lr-tb;fill:#000000;fill-opacity:1;fill-rule:nonzero;stroke:none" transform="matrix(1,0,0,-1,75.871,698.92)"><tspan id="tspan188" y="0" x="0">0</tspan></text><g transform="translate(58.477,695.305)" id="g192"></g></g></g><g transform="translate(13.665,3.857)" id="g194"></g></g></g><g id="g196"><g transform="matrix(1.25,0,0,1.25,-13.665,59.922)" id="g198"><g id="g200"><g transform="translate(-58.477,-759.084)" id="g202"><text id="text206" style="font-variant:normal;font-weight:normal;font-size:9.96259975px;font-family:CMMI10;-inkscape-font-specification:CMMI10;writing-mode:lr-tb;fill:#000000;fill-opacity:1;fill-rule:nonzero;stroke:none" transform="matrix(1,0,0,-1,58.477,759.084)"><tspan id="tspan204" y="0" x="0">v</tspan></text><text id="text210" style="font-variant:normal;font-weight:normal;font-size:9.96259975px;font-family:CMSY10;-inkscape-font-specification:CMSY10;writing-mode:lr-tb;fill:#000000;fill-opacity:1;fill-rule:nonzero;stroke:none" transform="matrix(1,0,0,-1,65.878,759.084)"><tspan id="tspan208" y="0" x="0">·</tspan></text><text id="text214" style="font-variant:normal;font-weight:normal;font-size:9.96259975px;font-family:CMMI10;-inkscape-font-specification:CMMI10;writing-mode:lr-tb;fill:#000000;fill-opacity:1;fill-rule:nonzero;stroke:none" transform="matrix(1,0,0,-1,70.859,759.084)"><tspan id="tspan212" y="0" x="0">p</tspan></text><text id="text218" style="font-variant:normal;font-weight:normal;font-size:6.97380018px;font-family:CMR7;-inkscape-font-specification:CMR7;writing-mode:lr-tb;fill:#000000;fill-opacity:1;fill-rule:nonzero;stroke:none" transform="matrix(1,0,0,-1,75.871,762.7)"><tspan id="tspan216" y="0" x="0">0</tspan></text><g transform="translate(58.477,759.084)" id="g220"></g></g></g><g transform="translate(13.665,-59.922)" id="g222"></g></g></g><g id="g224"><g transform="matrix(1.25,0,0,1.25,28.855,-3.857)" id="g226"><g id="g228"><g transform="translate(-100.997,-695.305)" id="g230"><text id="text234" style="font-variant:normal;font-weight:normal;font-size:9.96259975px;font-family:CMMI10;-inkscape-font-specification:CMMI10;writing-mode:lr-tb;fill:#000000;fill-opacity:1;fill-rule:nonzero;stroke:none" transform="matrix(1,0,0,-1,100.997,695.305)"><tspan id="tspan232" y="0" x="0">v</tspan></text><text id="text238" style="font-variant:normal;font-weight:normal;font-size:9.96259975px;font-family:CMSY10;-inkscape-font-specification:CMSY10;writing-mode:lr-tb;fill:#000000;fill-opacity:1;fill-rule:nonzero;stroke:none" transform="matrix(1,0,0,-1,108.397,695.305)"><tspan id="tspan236" y="0" x="0">·</tspan></text><text id="text242" style="font-variant:normal;font-weight:normal;font-size:9.96259975px;font-family:CMMI10;-inkscape-font-specification:CMMI10;writing-mode:lr-tb;fill:#000000;fill-opacity:1;fill-rule:nonzero;stroke:none" transform="matrix(1,0,0,-1,113.379,695.305)"><tspan id="tspan240" y="0" x="0">p</tspan></text><text id="text246" style="font-variant:normal;font-weight:normal;font-size:6.97380018px;font-family:CMR7;-inkscape-font-specification:CMR7;writing-mode:lr-tb;fill:#000000;fill-opacity:1;fill-rule:nonzero;stroke:none" transform="matrix(1,0,0,-1,118.391,698.92)"><tspan id="tspan244" y="0" x="0">1</tspan></text><g transform="translate(100.997,695.305)" id="g248"></g></g></g><g transform="translate(-28.855,3.857)" id="g250"></g></g></g><g id="g252"><g transform="matrix(1.25,0,0,1.25,28.855,59.922)" id="g254"><g id="g256"><g transform="translate(-100.997,-759.084)" id="g258"><text id="text262" style="font-variant:normal;font-weight:normal;font-size:9.96259975px;font-family:CMMI10;-inkscape-font-specification:CMMI10;writing-mode:lr-tb;fill:#000000;fill-opacity:1;fill-rule:nonzero;stroke:none" transform="matrix(1,0,0,-1,100.997,759.084)"><tspan id="tspan260" y="0" x="0">v</tspan></text><text id="text266" style="font-variant:normal;font-weight:normal;font-size:9.96259975px;font-family:CMSY10;-inkscape-font-specification:CMSY10;writing-mode:lr-tb;fill:#000000;fill-opacity:1;fill-rule:nonzero;stroke:none" transform="matrix(1,0,0,-1,108.397,759.084)"><tspan id="tspan264" y="0" x="0">·</tspan></text><text id="text270" style="font-variant:normal;font-weight:normal;font-size:9.96259975px;font-family:CMMI10;-inkscape-font-specification:CMMI10;writing-mode:lr-tb;fill:#000000;fill-opacity:1;fill-rule:nonzero;stroke:none" transform="matrix(1,0,0,-1,113.379,759.084)"><tspan id="tspan268" y="0" x="0">p</tspan></text><text id="text274" style="font-variant:normal;font-weight:normal;font-size:6.97380018px;font-family:CMR7;-inkscape-font-specification:CMR7;writing-mode:lr-tb;fill:#000000;fill-opacity:1;fill-rule:nonzero;stroke:none" transform="matrix(1,0,0,-1,118.391,762.7)"><tspan id="tspan272" y="0" x="0">1</tspan></text><g transform="translate(100.997,759.084)" id="g276"></g></g></g><g transform="translate(-28.855,-59.922)" id="g278"></g></g></g><g id="g280"><g transform="matrix(1.25,0,0,1.25,71.375,-3.857)" id="g282"><g id="g284"><g transform="translate(-143.517,-695.305)" id="g286"><text id="text290" style="font-variant:normal;font-weight:normal;font-size:9.96259975px;font-family:CMMI10;-inkscape-font-specification:CMMI10;writing-mode:lr-tb;fill:#000000;fill-opacity:1;fill-rule:nonzero;stroke:none" transform="matrix(1,0,0,-1,143.517,695.305)"><tspan id="tspan288" y="0" x="0">v</tspan></text><text id="text294" style="font-variant:normal;font-weight:normal;font-size:9.96259975px;font-family:CMSY10;-inkscape-font-specification:CMSY10;writing-mode:lr-tb;fill:#000000;fill-opacity:1;fill-rule:nonzero;stroke:none" transform="matrix(1,0,0,-1,150.917,695.305)"><tspan id="tspan292" y="0" x="0">·</tspan></text><text id="text298" style="font-variant:normal;font-weight:normal;font-size:9.96259975px;font-family:CMMI10;-inkscape-font-specification:CMMI10;writing-mode:lr-tb;fill:#000000;fill-opacity:1;fill-rule:nonzero;stroke:none" transform="matrix(1,0,0,-1,155.898,695.305)"><tspan id="tspan296" y="0" x="0">p</tspan></text><text id="text302" style="font-variant:normal;font-weight:normal;font-size:6.97380018px;font-family:CMR7;-inkscape-font-specification:CMR7;writing-mode:lr-tb;fill:#000000;fill-opacity:1;fill-rule:nonzero;stroke:none" transform="matrix(1,0,0,-1,160.911,698.92)"><tspan id="tspan300" y="0" x="0">2</tspan></text><g transform="translate(143.517,695.305)" id="g304"></g></g></g><g transform="translate(-71.375,3.857)" id="g306"></g></g></g><g id="g308"><g transform="matrix(1.25,0,0,1.25,71.375,59.922)" id="g310"><g id="g312"><g transform="translate(-143.517,-759.084)" id="g314"><text id="text318" style="font-variant:normal;font-weight:normal;font-size:9.96259975px;font-family:CMMI10;-inkscape-font-specification:CMMI10;writing-mode:lr-tb;fill:#000000;fill-opacity:1;fill-rule:nonzero;stroke:none" transform="matrix(1,0,0,-1,143.517,759.084)"><tspan id="tspan316" y="0" x="0">v</tspan></text><text id="text322" style="font-variant:normal;font-weight:normal;font-size:9.96259975px;font-family:CMSY10;-inkscape-font-specification:CMSY10;writing-mode:lr-tb;fill:#000000;fill-opacity:1;fill-rule:nonzero;stroke:none" transform="matrix(1,0,0,-1,150.917,759.084)"><tspan id="tspan320" y="0" x="0">·</tspan></text><text id="text326" style="font-variant:normal;font-weight:normal;font-size:9.96259975px;font-family:CMMI10;-inkscape-font-specification:CMMI10;writing-mode:lr-tb;fill:#000000;fill-opacity:1;fill-rule:nonzero;stroke:none" transform="matrix(1,0,0,-1,155.898,759.084)"><tspan id="tspan324" y="0" x="0">p</tspan></text><text id="text330" style="font-variant:normal;font-weight:normal;font-size:6.97380018px;font-family:CMR7;-inkscape-font-specification:CMR7;writing-mode:lr-tb;fill:#000000;fill-opacity:1;fill-rule:nonzero;stroke:none" transform="matrix(1,0,0,-1,160.911,762.7)"><tspan id="tspan328" y="0" x="0">2</tspan></text><g transform="translate(143.517,759.084)" id="g332"></g></g></g><g transform="translate(-71.375,-59.922)" id="g334"></g></g></g><g id="g336"><g transform="matrix(1.25,0,0,1.25,113.894,-3.857)" id="g338"><g id="g340"><g transform="translate(-186.036,-695.305)" id="g342"><text id="text346" style="font-variant:normal;font-weight:normal;font-size:9.96259975px;font-family:CMMI10;-inkscape-font-specification:CMMI10;writing-mode:lr-tb;fill:#000000;fill-opacity:1;fill-rule:nonzero;stroke:none" transform="matrix(1,0,0,-1,186.036,695.305)"><tspan id="tspan344" y="0" x="0">v</tspan></text><text id="text350" style="font-variant:normal;font-weight:normal;font-size:9.96259975px;font-family:CMSY10;-inkscape-font-specification:CMSY10;writing-mode:lr-tb;fill:#000000;fill-opacity:1;fill-rule:nonzero;stroke:none" transform="matrix(1,0,0,-1,193.437,695.305)"><tspan id="tspan348" y="0" x="0">·</tspan></text><text id="text354" style="font-variant:normal;font-weight:normal;font-size:9.96259975px;font-family:CMMI10;-inkscape-font-specification:CMMI10;writing-mode:lr-tb;fill:#000000;fill-opacity:1;fill-rule:nonzero;stroke:none" transform="matrix(1,0,0,-1,198.418,695.305)"><tspan id="tspan352" y="0" x="0">p</tspan></text><text id="text358" style="font-variant:normal;font-weight:normal;font-size:6.97380018px;font-family:CMR7;-inkscape-font-specification:CMR7;writing-mode:lr-tb;fill:#000000;fill-opacity:1;fill-rule:nonzero;stroke:none" transform="matrix(1,0,0,-1,203.43,698.92)"><tspan id="tspan356" y="0" x="0">3</tspan></text><g transform="translate(186.036,695.305)" id="g360"></g></g></g><g transform="translate(-113.894,3.857)" id="g362"></g></g></g><g id="g364"><g transform="matrix(1.25,0,0,1.25,113.894,59.922)" id="g366"><g id="g368"><g transform="translate(-186.036,-759.084)" id="g370"><text id="text374" style="font-variant:normal;font-weight:normal;font-size:9.96259975px;font-family:CMMI10;-inkscape-font-specification:CMMI10;writing-mode:lr-tb;fill:#000000;fill-opacity:1;fill-rule:nonzero;stroke:none" transform="matrix(1,0,0,-1,186.036,759.084)"><tspan id="tspan372" y="0" x="0">v</tspan></text><text id="text378" style="font-variant:normal;font-weight:normal;font-size:9.96259975px;font-family:CMSY10;-inkscape-font-specification:CMSY10;writing-mode:lr-tb;fill:#000000;fill-opacity:1;fill-rule:nonzero;stroke:none" transform="matrix(1,0,0,-1,193.437,759.084)"><tspan id="tspan376" y="0" x="0">·</tspan></text><text id="text382" style="font-variant:normal;font-weight:normal;font-size:9.96259975px;font-family:CMMI10;-inkscape-font-specification:CMMI10;writing-mode:lr-tb;fill:#000000;fill-opacity:1;fill-rule:nonzero;stroke:none" transform="matrix(1,0,0,-1,198.418,759.084)"><tspan id="tspan380" y="0" x="0">p</tspan></text><text id="text386" style="font-variant:normal;font-weight:normal;font-size:6.97380018px;font-family:CMR7;-inkscape-font-specification:CMR7;writing-mode:lr-tb;fill:#000000;fill-opacity:1;fill-rule:nonzero;stroke:none" transform="matrix(1,0,0,-1,203.43,762.7)"><tspan id="tspan384" y="0" x="0">3</tspan></text><g transform="translate(186.036,759.084)" id="g388"></g></g></g><g transform="translate(-113.894,-59.922)" id="g390"></g></g></g><g id="g392"><g transform="matrix(1.25,0,0,1.25,156.414,-3.857)" id="g394"><g id="g396"><g transform="translate(-228.556,-695.305)" id="g398"><text id="text402" style="font-variant:normal;font-weight:normal;font-size:9.96259975px;font-family:CMMI10;-inkscape-font-specification:CMMI10;writing-mode:lr-tb;fill:#000000;fill-opacity:1;fill-rule:nonzero;stroke:none" transform="matrix(1,0,0,-1,228.556,695.305)"><tspan id="tspan400" y="0" x="0">v</tspan></text><text id="text406" style="font-variant:normal;font-weight:normal;font-size:9.96259975px;font-family:CMSY10;-inkscape-font-specification:CMSY10;writing-mode:lr-tb;fill:#000000;fill-opacity:1;fill-rule:nonzero;stroke:none" transform="matrix(1,0,0,-1,235.956,695.305)"><tspan id="tspan404" y="0" x="0">·</tspan></text><text id="text410" style="font-variant:normal;font-weight:normal;font-size:9.96259975px;font-family:CMMI10;-inkscape-font-specification:CMMI10;writing-mode:lr-tb;fill:#000000;fill-opacity:1;fill-rule:nonzero;stroke:none" transform="matrix(1,0,0,-1,240.938,695.305)"><tspan id="tspan408" y="0" x="0">p</tspan></text><text id="text414" style="font-variant:normal;font-weight:normal;font-size:6.97380018px;font-family:CMR7;-inkscape-font-specification:CMR7;writing-mode:lr-tb;fill:#000000;fill-opacity:1;fill-rule:nonzero;stroke:none" transform="matrix(1,0,0,-1,245.95,698.92)"><tspan id="tspan412" y="0" x="0">4</tspan></text><g transform="translate(228.556,695.305)" id="g416"></g></g></g><g transform="translate(-156.414,3.857)" id="g418"></g></g></g><g id="g420"><g transform="matrix(1.25,0,0,1.25,156.414,59.922)" id="g422"><g id="g424"><g transform="translate(-228.556,-759.084)" id="g426"><text id="text430" style="font-variant:normal;font-weight:normal;font-size:9.96259975px;font-family:CMMI10;-inkscape-font-specification:CMMI10;writing-mode:lr-tb;fill:#000000;fill-opacity:1;fill-rule:nonzero;stroke:none" transform="matrix(1,0,0,-1,228.556,759.084)"><tspan id="tspan428" y="0" x="0">v</tspan></text><text id="text434" style="font-variant:normal;font-weight:normal;font-size:9.96259975px;font-family:CMSY10;-inkscape-font-specification:CMSY10;writing-mode:lr-tb;fill:#000000;fill-opacity:1;fill-rule:nonzero;stroke:none" transform="matrix(1,0,0,-1,235.956,759.084)"><tspan id="tspan432" y="0" x="0">·</tspan></text><text id="text438" style="font-variant:normal;font-weight:normal;font-size:9.96259975px;font-family:CMMI10;-inkscape-font-specification:CMMI10;writing-mode:lr-tb;fill:#000000;fill-opacity:1;fill-rule:nonzero;stroke:none" transform="matrix(1,0,0,-1,240.938,759.084)"><tspan id="tspan436" y="0" x="0">p</tspan></text><text id="text442" style="font-variant:normal;font-weight:normal;font-size:6.97380018px;font-family:CMR7;-inkscape-font-specification:CMR7;writing-mode:lr-tb;fill:#000000;fill-opacity:1;fill-rule:nonzero;stroke:none" transform="matrix(1,0,0,-1,245.95,762.7)"><tspan id="tspan440" y="0" x="0">4</tspan></text><g transform="translate(228.556,759.084)" id="g444"></g></g></g><g transform="translate(-156.414,-59.922)" id="g446"></g></g></g><g id="g448"><g transform="matrix(1.25,0,0,1.25,198.934,-3.857)" id="g450"><g id="g452"><g transform="translate(-271.076,-695.305)" id="g454"><text id="text458" style="font-variant:normal;font-weight:normal;font-size:9.96259975px;font-family:CMMI10;-inkscape-font-specification:CMMI10;writing-mode:lr-tb;fill:#000000;fill-opacity:1;fill-rule:nonzero;stroke:none" transform="matrix(1,0,0,-1,271.076,695.305)"><tspan id="tspan456" y="0" x="0">v</tspan></text><text id="text462" style="font-variant:normal;font-weight:normal;font-size:9.96259975px;font-family:CMSY10;-inkscape-font-specification:CMSY10;writing-mode:lr-tb;fill:#000000;fill-opacity:1;fill-rule:nonzero;stroke:none" transform="matrix(1,0,0,-1,278.476,695.305)"><tspan id="tspan460" y="0" x="0">·</tspan></text><text id="text466" style="font-variant:normal;font-weight:normal;font-size:9.96259975px;font-family:CMMI10;-inkscape-font-specification:CMMI10;writing-mode:lr-tb;fill:#000000;fill-opacity:1;fill-rule:nonzero;stroke:none" transform="matrix(1,0,0,-1,283.457,695.305)"><tspan id="tspan464" y="0" x="0">p</tspan></text><text id="text470" style="font-variant:normal;font-weight:normal;font-size:6.97380018px;font-family:CMR7;-inkscape-font-specification:CMR7;writing-mode:lr-tb;fill:#000000;fill-opacity:1;fill-rule:nonzero;stroke:none" transform="matrix(1,0,0,-1,288.47,698.92)"><tspan id="tspan468" y="0" x="0">5</tspan></text><g transform="translate(271.076,695.305)" id="g472"></g></g></g><g transform="translate(-198.934,3.857)" id="g474"></g></g></g><g id="g476"><g transform="matrix(1.25,0,0,1.25,198.934,59.922)" id="g478"><g id="g480"><g transform="translate(-271.076,-759.084)" id="g482"><text id="text486" style="font-variant:normal;font-weight:normal;font-size:9.96259975px;font-family:CMMI10;-inkscape-font-specification:CMMI10;writing-mode:lr-tb;fill:#000000;fill-opacity:1;fill-rule:nonzero;stroke:none" transform="matrix(1,0,0,-1,271.076,759.084)"><tspan id="tspan484" y="0" x="0">v</tspan></text><text id="text490" style="font-variant:normal;font-weight:normal;font-size:9.96259975px;font-family:CMSY10;-inkscape-font-specification:CMSY10;writing-mode:lr-tb;fill:#000000;fill-opacity:1;fill-rule:nonzero;stroke:none" transform="matrix(1,0,0,-1,278.476,759.084)"><tspan id="tspan488" y="0" x="0">·</tspan></text><text id="text494" style="font-variant:normal;font-weight:normal;font-size:9.96259975px;font-family:CMMI10;-inkscape-font-specification:CMMI10;writing-mode:lr-tb;fill:#000000;fill-opacity:1;fill-rule:nonzero;stroke:none" transform="matrix(1,0,0,-1,283.457,759.084)"><tspan id="tspan492" y="0" x="0">p</tspan></text><text id="text498" style="font-variant:normal;font-weight:normal;font-size:6.97380018px;font-family:CMR7;-inkscape-font-specification:CMR7;writing-mode:lr-tb;fill:#000000;fill-opacity:1;fill-rule:nonzero;stroke:none" transform="matrix(1,0,0,-1,288.47,762.7)"><tspan id="tspan496" y="0" x="0">5</tspan></text><g transform="translate(271.076,759.084)" id="g500"></g></g></g><g transform="translate(-198.934,-59.922)" id="g502"></g></g></g><g id="g504"><g transform="matrix(1.25,0,0,1.25,241.453,-3.857)" id="g506"><g id="g508"><g transform="translate(-313.595,-695.305)" id="g510"><text id="text514" style="font-variant:normal;font-weight:normal;font-size:9.96259975px;font-family:CMMI10;-inkscape-font-specification:CMMI10;writing-mode:lr-tb;fill:#000000;fill-opacity:1;fill-rule:nonzero;stroke:none" transform="matrix(1,0,0,-1,313.595,695.305)"><tspan id="tspan512" y="0" x="0">v</tspan></text><text id="text518" style="font-variant:normal;font-weight:normal;font-size:9.96259975px;font-family:CMSY10;-inkscape-font-specification:CMSY10;writing-mode:lr-tb;fill:#000000;fill-opacity:1;fill-rule:nonzero;stroke:none" transform="matrix(1,0,0,-1,320.996,695.305)"><tspan id="tspan516" y="0" x="0">·</tspan></text><text id="text522" style="font-variant:normal;font-weight:normal;font-size:9.96259975px;font-family:CMMI10;-inkscape-font-specification:CMMI10;writing-mode:lr-tb;fill:#000000;fill-opacity:1;fill-rule:nonzero;stroke:none" transform="matrix(1,0,0,-1,325.977,695.305)"><tspan id="tspan520" y="0" x="0">p</tspan></text><text id="text526" style="font-variant:normal;font-weight:normal;font-size:6.97380018px;font-family:CMR7;-inkscape-font-specification:CMR7;writing-mode:lr-tb;fill:#000000;fill-opacity:1;fill-rule:nonzero;stroke:none" transform="matrix(1,0,0,-1,330.989,698.92)"><tspan id="tspan524" y="0" x="0">6</tspan></text><g transform="translate(313.595,695.305)" id="g528"></g></g></g><g transform="translate(-241.453,3.857)" id="g530"></g></g></g><g id="g532"><g transform="matrix(1.25,0,0,1.25,241.453,59.922)" id="g534"><g id="g536"><g transform="translate(-313.595,-759.084)" id="g538"><text id="text542" style="font-variant:normal;font-weight:normal;font-size:9.96259975px;font-family:CMMI10;-inkscape-font-specification:CMMI10;writing-mode:lr-tb;fill:#000000;fill-opacity:1;fill-rule:nonzero;stroke:none" transform="matrix(1,0,0,-1,313.595,759.084)"><tspan id="tspan540" y="0" x="0">v</tspan></text><text id="text546" style="font-variant:normal;font-weight:normal;font-size:9.96259975px;font-family:CMSY10;-inkscape-font-specification:CMSY10;writing-mode:lr-tb;fill:#000000;fill-opacity:1;fill-rule:nonzero;stroke:none" transform="matrix(1,0,0,-1,320.996,759.084)"><tspan id="tspan544" y="0" x="0">·</tspan></text><text id="text550" style="font-variant:normal;font-weight:normal;font-size:9.96259975px;font-family:CMMI10;-inkscape-font-specification:CMMI10;writing-mode:lr-tb;fill:#000000;fill-opacity:1;fill-rule:nonzero;stroke:none" transform="matrix(1,0,0,-1,325.977,759.084)"><tspan id="tspan548" y="0" x="0">p</tspan></text><text id="text554" style="font-variant:normal;font-weight:normal;font-size:6.97380018px;font-family:CMR7;-inkscape-font-specification:CMR7;writing-mode:lr-tb;fill:#000000;fill-opacity:1;fill-rule:nonzero;stroke:none" transform="matrix(1,0,0,-1,330.989,762.7)"><tspan id="tspan552" y="0" x="0">6</tspan></text><g transform="translate(313.595,759.084)" id="g556"></g></g></g><g transform="translate(-241.453,-59.922)" id="g558"></g></g></g><g id="g560"><g transform="matrix(1.25,0,0,1.25,283.973,-3.857)" id="g562"><g id="g564"><g transform="translate(-356.115,-695.305)" id="g566"><text id="text570" style="font-variant:normal;font-weight:normal;font-size:9.96259975px;font-family:CMMI10;-inkscape-font-specification:CMMI10;writing-mode:lr-tb;fill:#000000;fill-opacity:1;fill-rule:nonzero;stroke:none" transform="matrix(1,0,0,-1,356.115,695.305)"><tspan id="tspan568" y="0" x="0">v</tspan></text><text id="text574" style="font-variant:normal;font-weight:normal;font-size:9.96259975px;font-family:CMSY10;-inkscape-font-specification:CMSY10;writing-mode:lr-tb;fill:#000000;fill-opacity:1;fill-rule:nonzero;stroke:none" transform="matrix(1,0,0,-1,363.515,695.305)"><tspan id="tspan572" y="0" x="0">·</tspan></text><text id="text578" style="font-variant:normal;font-weight:normal;font-size:9.96259975px;font-family:CMMI10;-inkscape-font-specification:CMMI10;writing-mode:lr-tb;fill:#000000;fill-opacity:1;fill-rule:nonzero;stroke:none" transform="matrix(1,0,0,-1,368.497,695.305)"><tspan id="tspan576" y="0" x="0">p</tspan></text><text id="text582" style="font-variant:normal;font-weight:normal;font-size:6.97380018px;font-family:CMR7;-inkscape-font-specification:CMR7;writing-mode:lr-tb;fill:#000000;fill-opacity:1;fill-rule:nonzero;stroke:none" transform="matrix(1,0,0,-1,373.509,698.92)"><tspan id="tspan580" y="0" x="0">7</tspan></text><g transform="translate(356.115,695.305)" id="g584"></g></g></g><g transform="translate(-283.973,3.857)" id="g586"></g></g></g><g id="g588"><g transform="matrix(1.25,0,0,1.25,283.973,59.922)" id="g590"><g id="g592"><g transform="translate(-356.115,-759.084)" id="g594"><text id="text598" style="font-variant:normal;font-weight:normal;font-size:9.96259975px;font-family:CMMI10;-inkscape-font-specification:CMMI10;writing-mode:lr-tb;fill:#000000;fill-opacity:1;fill-rule:nonzero;stroke:none" transform="matrix(1,0,0,-1,356.115,759.084)"><tspan id="tspan596" y="0" x="0">v</tspan></text><text id="text602" style="font-variant:normal;font-weight:normal;font-size:9.96259975px;font-family:CMSY10;-inkscape-font-specification:CMSY10;writing-mode:lr-tb;fill:#000000;fill-opacity:1;fill-rule:nonzero;stroke:none" transform="matrix(1,0,0,-1,363.515,759.084)"><tspan id="tspan600" y="0" x="0">·</tspan></text><text id="text606" style="font-variant:normal;font-weight:normal;font-size:9.96259975px;font-family:CMMI10;-inkscape-font-specification:CMMI10;writing-mode:lr-tb;fill:#000000;fill-opacity:1;fill-rule:nonzero;stroke:none" transform="matrix(1,0,0,-1,368.497,759.084)"><tspan id="tspan604" y="0" x="0">p</tspan></text><text id="text610" style="font-variant:normal;font-weight:normal;font-size:6.97380018px;font-family:CMR7;-inkscape-font-specification:CMR7;writing-mode:lr-tb;fill:#000000;fill-opacity:1;fill-rule:nonzero;stroke:none" transform="matrix(1,0,0,-1,373.509,762.7)"><tspan id="tspan608" y="0" x="0">7</tspan></text><g transform="translate(356.115,759.084)" id="g612"></g></g></g><g transform="translate(-283.973,-59.922)" id="g614"></g></g></g><g id="g616"><g transform="matrix(1.25,0,0,1.25,326.493,-3.857)" id="g618"><g id="g620"><g transform="translate(-398.635,-695.305)" id="g622"><text id="text626" style="font-variant:normal;font-weight:normal;font-size:9.96259975px;font-family:CMMI10;-inkscape-font-specification:CMMI10;writing-mode:lr-tb;fill:#000000;fill-opacity:1;fill-rule:nonzero;stroke:none" transform="matrix(1,0,0,-1,398.635,695.305)"><tspan id="tspan624" y="0" x="0">v</tspan></text><text id="text630" style="font-variant:normal;font-weight:normal;font-size:9.96259975px;font-family:CMSY10;-inkscape-font-specification:CMSY10;writing-mode:lr-tb;fill:#000000;fill-opacity:1;fill-rule:nonzero;stroke:none" transform="matrix(1,0,0,-1,406.035,695.305)"><tspan id="tspan628" y="0" x="0">·</tspan></text><text id="text634" style="font-variant:normal;font-weight:normal;font-size:9.96259975px;font-family:CMMI10;-inkscape-font-specification:CMMI10;writing-mode:lr-tb;fill:#000000;fill-opacity:1;fill-rule:nonzero;stroke:none" transform="matrix(1,0,0,-1,411.016,695.305)"><tspan id="tspan632" y="0" x="0">p</tspan></text><text id="text638" style="font-variant:normal;font-weight:normal;font-size:6.97380018px;font-family:CMR7;-inkscape-font-specification:CMR7;writing-mode:lr-tb;fill:#000000;fill-opacity:1;fill-rule:nonzero;stroke:none" transform="matrix(1,0,0,-1,416.029,698.92)"><tspan id="tspan636" y="0" x="0">8</tspan></text><g transform="translate(398.635,695.305)" id="g640"></g></g></g><g transform="translate(-326.493,3.857)" id="g642"></g></g></g><g id="g644"><g transform="matrix(1.25,0,0,1.25,326.493,59.922)" id="g646"><g id="g648"><g transform="translate(-398.635,-759.084)" id="g650"><text id="text654" style="font-variant:normal;font-weight:normal;font-size:9.96259975px;font-family:CMMI10;-inkscape-font-specification:CMMI10;writing-mode:lr-tb;fill:#000000;fill-opacity:1;fill-rule:nonzero;stroke:none" transform="matrix(1,0,0,-1,398.635,759.084)"><tspan id="tspan652" y="0" x="0">v</tspan></text><text id="text658" style="font-variant:normal;font-weight:normal;font-size:9.96259975px;font-family:CMSY10;-inkscape-font-specification:CMSY10;writing-mode:lr-tb;fill:#000000;fill-opacity:1;fill-rule:nonzero;stroke:none" transform="matrix(1,0,0,-1,406.035,759.084)"><tspan id="tspan656" y="0" x="0">·</tspan></text><text id="text662" style="font-variant:normal;font-weight:normal;font-size:9.96259975px;font-family:CMMI10;-inkscape-font-specification:CMMI10;writing-mode:lr-tb;fill:#000000;fill-opacity:1;fill-rule:nonzero;stroke:none" transform="matrix(1,0,0,-1,411.016,759.084)"><tspan id="tspan660" y="0" x="0">p</tspan></text><text id="text666" style="font-variant:normal;font-weight:normal;font-size:6.97380018px;font-family:CMR7;-inkscape-font-specification:CMR7;writing-mode:lr-tb;fill:#000000;fill-opacity:1;fill-rule:nonzero;stroke:none" transform="matrix(1,0,0,-1,416.029,762.7)"><tspan id="tspan664" y="0" x="0">8</tspan></text><g transform="translate(398.635,759.084)" id="g668"></g></g></g><g transform="translate(-326.493,-59.922)" id="g670"></g></g></g><g id="g672"><g transform="matrix(1.25,0,0,1.25,369.012,-3.857)" id="g674"><g id="g676"><g transform="translate(-441.154,-695.305)" id="g678"><text id="text682" style="font-variant:normal;font-weight:normal;font-size:9.96259975px;font-family:CMMI10;-inkscape-font-specification:CMMI10;writing-mode:lr-tb;fill:#000000;fill-opacity:1;fill-rule:nonzero;stroke:none" transform="matrix(1,0,0,-1,441.154,695.305)"><tspan id="tspan680" y="0" x="0">v</tspan></text><text id="text686" style="font-variant:normal;font-weight:normal;font-size:9.96259975px;font-family:CMSY10;-inkscape-font-specification:CMSY10;writing-mode:lr-tb;fill:#000000;fill-opacity:1;fill-rule:nonzero;stroke:none" transform="matrix(1,0,0,-1,448.555,695.305)"><tspan id="tspan684" y="0" x="0">·</tspan></text><text id="text690" style="font-variant:normal;font-weight:normal;font-size:9.96259975px;font-family:CMMI10;-inkscape-font-specification:CMMI10;writing-mode:lr-tb;fill:#000000;fill-opacity:1;fill-rule:nonzero;stroke:none" transform="matrix(1,0,0,-1,453.536,695.305)"><tspan id="tspan688" y="0" x="0">p</tspan></text><text id="text694" style="font-variant:normal;font-weight:normal;font-size:6.97380018px;font-family:CMR7;-inkscape-font-specification:CMR7;writing-mode:lr-tb;fill:#000000;fill-opacity:1;fill-rule:nonzero;stroke:none" transform="matrix(1,0,0,-1,458.548,698.92)"><tspan id="tspan692" y="0" x="0">9</tspan></text><g transform="translate(441.154,695.305)" id="g696"></g></g></g><g transform="translate(-369.012,3.857)" id="g698"></g></g></g><g id="g700"><g transform="matrix(1.25,0,0,1.25,369.012,59.922)" id="g702"><g id="g704"><g transform="translate(-441.154,-759.084)" id="g706"><text id="text710" style="font-variant:normal;font-weight:normal;font-size:9.96259975px;font-family:CMMI10;-inkscape-font-specification:CMMI10;writing-mode:lr-tb;fill:#000000;fill-opacity:1;fill-rule:nonzero;stroke:none" transform="matrix(1,0,0,-1,441.154,759.084)"><tspan id="tspan708" y="0" x="0">v</tspan></text><text id="text714" style="font-variant:normal;font-weight:normal;font-size:9.96259975px;font-family:CMSY10;-inkscape-font-specification:CMSY10;writing-mode:lr-tb;fill:#000000;fill-opacity:1;fill-rule:nonzero;stroke:none" transform="matrix(1,0,0,-1,448.555,759.084)"><tspan id="tspan712" y="0" x="0">·</tspan></text><text id="text718" style="font-variant:normal;font-weight:normal;font-size:9.96259975px;font-family:CMMI10;-inkscape-font-specification:CMMI10;writing-mode:lr-tb;fill:#000000;fill-opacity:1;fill-rule:nonzero;stroke:none" transform="matrix(1,0,0,-1,453.536,759.084)"><tspan id="tspan716" y="0" x="0">p</tspan></text><text id="text722" style="font-variant:normal;font-weight:normal;font-size:6.97380018px;font-family:CMR7;-inkscape-font-specification:CMR7;writing-mode:lr-tb;fill:#000000;fill-opacity:1;fill-rule:nonzero;stroke:none" transform="matrix(1,0,0,-1,458.548,762.7)"><tspan id="tspan720" y="0" x="0">9</tspan></text><g transform="translate(441.154,759.084)" id="g724"></g></g></g><g transform="translate(-369.012,-59.922)" id="g726"></g></g></g><g id="g728"><g transform="matrix(1.25,0,0,1.25,409.05,-3.857)" id="g730"><g id="g732"><g transform="translate(-481.192,-695.305)" id="g734"><text id="text738" style="font-variant:normal;font-weight:normal;font-size:9.96259975px;font-family:CMMI10;-inkscape-font-specification:CMMI10;writing-mode:lr-tb;fill:#000000;fill-opacity:1;fill-rule:nonzero;stroke:none" transform="matrix(1,0,0,-1,481.192,695.305)"><tspan id="tspan736" y="0" x="0">v</tspan></text><text id="text742" style="font-variant:normal;font-weight:normal;font-size:9.96259975px;font-family:CMSY10;-inkscape-font-specification:CMSY10;writing-mode:lr-tb;fill:#000000;fill-opacity:1;fill-rule:nonzero;stroke:none" transform="matrix(1,0,0,-1,488.592,695.305)"><tspan id="tspan740" y="0" x="0">·</tspan></text><text id="text746" style="font-variant:normal;font-weight:normal;font-size:9.96259975px;font-family:CMMI10;-inkscape-font-specification:CMMI10;writing-mode:lr-tb;fill:#000000;fill-opacity:1;fill-rule:nonzero;stroke:none" transform="matrix(1,0,0,-1,493.574,695.305)"><tspan id="tspan744" y="0" x="0">p</tspan></text><text id="text750" style="font-variant:normal;font-weight:normal;font-size:6.97380018px;font-family:CMR7;-inkscape-font-specification:CMR7;writing-mode:lr-tb;fill:#000000;fill-opacity:1;fill-rule:nonzero;stroke:none" transform="matrix(1,0,0,-1,498.586,698.92)"><tspan id="tspan748" y="0" x="0 3.9715791">10</tspan></text><g transform="translate(481.192,695.305)" id="g752"></g></g></g><g transform="translate(-409.05,3.857)" id="g754"></g></g></g><g id="g756"><g transform="matrix(1.25,0,0,1.25,409.05,59.922)" id="g758"><g id="g760"><g transform="translate(-481.192,-759.084)" id="g762"><text id="text766" style="font-variant:normal;font-weight:normal;font-size:9.96259975px;font-family:CMMI10;-inkscape-font-specification:CMMI10;writing-mode:lr-tb;fill:#000000;fill-opacity:1;fill-rule:nonzero;stroke:none" transform="matrix(1,0,0,-1,481.192,759.084)"><tspan id="tspan764" y="0" x="0">v</tspan></text><text id="text770" style="font-variant:normal;font-weight:normal;font-size:9.96259975px;font-family:CMSY10;-inkscape-font-specification:CMSY10;writing-mode:lr-tb;fill:#000000;fill-opacity:1;fill-rule:nonzero;stroke:none" transform="matrix(1,0,0,-1,488.592,759.084)"><tspan id="tspan768" y="0" x="0">·</tspan></text><text id="text774" style="font-variant:normal;font-weight:normal;font-size:9.96259975px;font-family:CMMI10;-inkscape-font-specification:CMMI10;writing-mode:lr-tb;fill:#000000;fill-opacity:1;fill-rule:nonzero;stroke:none" transform="matrix(1,0,0,-1,493.574,759.084)"><tspan id="tspan772" y="0" x="0">p</tspan></text><text id="text778" style="font-variant:normal;font-weight:normal;font-size:6.97380018px;font-family:CMR7;-inkscape-font-specification:CMR7;writing-mode:lr-tb;fill:#000000;fill-opacity:1;fill-rule:nonzero;stroke:none" transform="matrix(1,0,0,-1,498.586,762.7)"><tspan id="tspan776" y="0" x="0 3.9715791">10</tspan></text><g transform="translate(481.192,759.084)" id="g780"></g></g></g><g transform="translate(-409.05,-59.922)" id="g782"></g></g></g><g id="g784"><g transform="matrix(1.25,0,0,1.25,451.57,-3.857)" id="g786"><g id="g788"><g transform="translate(-523.712,-695.305)" id="g790"><text id="text794" style="font-variant:normal;font-weight:normal;font-size:9.96259975px;font-family:CMMI10;-inkscape-font-specification:CMMI10;writing-mode:lr-tb;fill:#000000;fill-opacity:1;fill-rule:nonzero;stroke:none" transform="matrix(1,0,0,-1,523.712,695.305)"><tspan id="tspan792" y="0" x="0">v</tspan></text><text id="text798" style="font-variant:normal;font-weight:normal;font-size:9.96259975px;font-family:CMSY10;-inkscape-font-specification:CMSY10;writing-mode:lr-tb;fill:#000000;fill-opacity:1;fill-rule:nonzero;stroke:none" transform="matrix(1,0,0,-1,531.112,695.305)"><tspan id="tspan796" y="0" x="0">·</tspan></text><text id="text802" style="font-variant:normal;font-weight:normal;font-size:9.96259975px;font-family:CMMI10;-inkscape-font-specification:CMMI10;writing-mode:lr-tb;fill:#000000;fill-opacity:1;fill-rule:nonzero;stroke:none" transform="matrix(1,0,0,-1,536.093,695.305)"><tspan id="tspan800" y="0" x="0">p</tspan></text><text id="text806" style="font-variant:normal;font-weight:normal;font-size:6.97380018px;font-family:CMR7;-inkscape-font-specification:CMR7;writing-mode:lr-tb;fill:#000000;fill-opacity:1;fill-rule:nonzero;stroke:none" transform="matrix(1,0,0,-1,541.106,698.92)"><tspan id="tspan804" y="0" x="0 3.9715791">11</tspan></text><g transform="translate(523.712,695.305)" id="g808"></g></g></g><g transform="translate(-451.57,3.857)" id="g810"></g></g></g><g id="g812"><g transform="matrix(1.25,0,0,1.25,451.57,59.922)" id="g814"><g id="g816"><g transform="translate(-523.712,-759.084)" id="g818"><text id="text822" style="font-variant:normal;font-weight:normal;font-size:9.96259975px;font-family:CMMI10;-inkscape-font-specification:CMMI10;writing-mode:lr-tb;fill:#000000;fill-opacity:1;fill-rule:nonzero;stroke:none" transform="matrix(1,0,0,-1,523.712,759.084)"><tspan id="tspan820" y="0" x="0">v</tspan></text><text id="text826" style="font-variant:normal;font-weight:normal;font-size:9.96259975px;font-family:CMSY10;-inkscape-font-specification:CMSY10;writing-mode:lr-tb;fill:#000000;fill-opacity:1;fill-rule:nonzero;stroke:none" transform="matrix(1,0,0,-1,531.112,759.084)"><tspan id="tspan824" y="0" x="0">·</tspan></text><text id="text830" style="font-variant:normal;font-weight:normal;font-size:9.96259975px;font-family:CMMI10;-inkscape-font-specification:CMMI10;writing-mode:lr-tb;fill:#000000;fill-opacity:1;fill-rule:nonzero;stroke:none" transform="matrix(1,0,0,-1,536.093,759.084)"><tspan id="tspan828" y="0" x="0">p</tspan></text><text id="text834" style="font-variant:normal;font-weight:normal;font-size:6.97380018px;font-family:CMR7;-inkscape-font-specification:CMR7;writing-mode:lr-tb;fill:#000000;fill-opacity:1;fill-rule:nonzero;stroke:none" transform="matrix(1,0,0,-1,541.106,762.7)"><tspan id="tspan832" y="0" x="0 3.9715791">11</tspan></text><g transform="translate(523.712,759.084)" id="g836"></g></g></g><g transform="translate(-451.57,-59.922)" id="g838"></g></g></g></g></g></g></g></svg>