<?xml version="1.0" standalone="no"?>
<!DOCTYPE svg PUBLIC "-//W3C//DTD SVG 1.1//EN" "http://www.w3.org/Graphics/SVG/1.1/DTD/svg11.dtd"><svg xmlns="http://www.w3.org/2000/svg" style="background-color:#FFF" width="816" height="1056"><path stroke="black" fill="none" stroke-width="1" d="M50.882, 135.697L50.882, 93.177L561.124, 93.177L561.124, 135.697L50.882, 135.697"/><path stroke="black" fill="none" stroke-width="1" d="M561.124, 135.697L50.882, 135.697"/><path stroke="black" fill="none" stroke-width="1" d="M561.124, 93.192L50.882, 93.192"/><path stroke="black" fill="none" stroke-width="1" d="M50.882, 135.697L50.882, 93.177"/><path stroke="black" fill="none" stroke-width="1" d="M93.402, 135.697L93.402, 93.177"/><path stroke="black" fill="none" stroke-width="1" d="M135.922, 135.697L135.922, 93.177"/><path stroke="black" fill="none" stroke-width="1" d="M178.442, 135.697L178.442, 93.177"/><path stroke="black" fill="none" stroke-width="1" d="M220.962, 135.697L220.962, 93.177"/><path stroke="black" fill="none" stroke-width="1" d="M263.483, 135.697L263.483, 93.177"/><path stroke="black" fill="none" stroke-width="1" d="M306.003, 135.697L306.003, 93.177"/><path stroke="black" fill="none" stroke-width="1" d="M348.523, 135.697L348.523, 93.177"/><path stroke="black" fill="none" stroke-width="1" d="M391.043, 135.697L391.043, 93.177"/><path stroke="black" fill="none" stroke-width="1" d="M433.563, 135.697L433.563, 93.177"/><path stroke="black" fill="none" stroke-width="1" d="M476.084, 135.697L476.084, 93.177"/><path stroke="black" fill="none" stroke-width="1" d="M518.604, 135.697L518.604, 93.177"/><path stroke="black" fill="none" stroke-width="1" d="M561.11, 135.697L561.11, 93.177"/><path stroke="black" fill="none" stroke-width="1" d="M50.882, 135.697L50.882, 93.177L561.124, 93.177L561.124, 135.697L50.882, 135.697"/><path stroke="black" fill="none" stroke-width="1" d="M50.882, 71.917L50.882, 29.397L561.124, 29.397L561.124, 71.917L50.882, 71.917"/><path stroke="black" fill="none" stroke-width="1" d="M561.124, 71.917L50.882, 71.917"/><path stroke="black" fill="none" stroke-width="1" d="M561.124, 29.412L50.882, 29.412"/><path stroke="black" fill="none" stroke-width="1" d="M50.882, 71.917L50.882, 29.397"/><path stroke="black" fill="none" stroke-width="1" d="M93.402, 71.917L93.402, 29.397"/><path stroke="black" fill="none" stroke-width="1" d="M135.922, 71.917L135.922, 29.397"/><path stroke="black" fill="none" stroke-width="1" d="M178.442, 71.917L178.442, 29.397"/><path stroke="black" fill="none" stroke-width="1" d="M220.962, 71.917L220.962, 29.397"/><path stroke="black" fill="none" stroke-width="1" d="M263.483, 71.917L263.483, 29.397"/><path stroke="black" fill="none" stroke-width="1" d="M306.003, 71.917L306.003, 29.397"/><path stroke="black" fill="none" stroke-width="1" d="M348.523, 71.917L348.523, 29.397"/><path stroke="black" fill="none" stroke-width="1" d="M391.043, 71.917L391.043, 29.397"/><path stroke="black" fill="none" stroke-width="1" d="M433.563, 71.917L433.563, 29.397"/><path stroke="black" fill="none" stroke-width="1" d="M476.084, 71.917L476.084, 29.397"/><path stroke="black" fill="none" stroke-width="1" d="M518.604, 71.917L518.604, 29.397"/><path stroke="black" fill="none" stroke-width="1" d="M561.11, 71.917L561.11, 29.397"/><path stroke="black" fill="none" stroke-width="1" d="M50.882, 71.917L50.882, 29.397L561.124, 29.397L561.124, 71.917L50.882, 71.917"/><path stroke="black" fill="none" stroke-width="1" d="M55.134, 131.445L55.134, 97.429L89.15, 97.429L89.15, 131.445L55.134, 131.445"/><path stroke="black" fill="none" stroke-width="1" d="M55.134, 131.445L55.134, 97.429L89.15, 97.429L89.15, 131.445L55.134, 131.445"/><path stroke="black" fill="none" stroke-width="1" d="M97.654, 131.445L97.654, 97.429L131.67, 97.429L131.67, 131.445L97.654, 131.445"/><path stroke="black" fill="none" stroke-width="1" d="M97.654, 131.445L97.654, 97.429L131.67, 97.429L131.67, 131.445L97.654, 131.445"/><path stroke="black" fill="none" stroke-width="1" d="M140.175, 131.445L140.175, 97.429L174.19, 97.429L174.19, 131.445L140.175, 131.445"/><path stroke="black" fill="none" stroke-width="1" d="M140.175, 131.445L140.175, 97.429L174.19, 97.429L174.19, 131.445L140.175, 131.445"/><path stroke="black" fill="none" stroke-width="1" d="M182.695, 131.445L182.695, 97.429L216.71, 97.429L216.71, 131.445L182.695, 131.445"/><path stroke="black" fill="none" stroke-width="1" d="M182.695, 131.445L182.695, 97.429L216.71, 97.429L216.71, 131.445L182.695, 131.445"/><path stroke="black" fill="none" stroke-width="1" d="M72.142, 97.43L72.142, 84.671L157.182, 84.671L157.182, 97.43"/><path stroke="black" fill="none" stroke-width="1" d="M157.182, 84.672L199.702, 84.672L199.702, 97.43"/><path stroke="black" fill="none" stroke-width="1" d="M225.215, 131.445L225.215, 97.429L259.231, 97.429L259.231, 131.445L225.215, 131.445"/><path stroke="black" fill="none" stroke-width="1" d="M225.215, 131.445L225.215, 97.429L259.231, 97.429L259.231, 131.445L225.215, 131.445"/><path stroke="black" fill="none" stroke-width="1" d="M267.735, 131.445L267.735, 97.429L301.751, 97.429L301.751, 131.445L267.735, 131.445"/><path stroke="black" fill="none" stroke-width="1" d="M267.735, 131.445L267.735, 97.429L301.751, 97.429L301.751, 131.445L267.735, 131.445"/><path stroke="black" fill="none" stroke-width="1" d="M310.255, 131.445L310.255, 97.429L344.271, 97.429L344.271, 131.445L310.255, 131.445"/><path stroke="black" fill="none" stroke-width="1" d="M310.255, 131.445L310.255, 97.429L344.271, 97.429L344.271, 131.445L310.255, 131.445"/><path stroke="black" fill="none" stroke-width="1" d="M352.776, 131.445L352.776, 97.429L386.791, 97.429L386.791, 131.445L352.776, 131.445"/><path stroke="black" fill="none" stroke-width="1" d="M352.776, 131.445L352.776, 97.429L386.791, 97.429L386.791, 131.445L352.776, 131.445"/><path stroke="black" fill="none" stroke-width="1" d="M395.296, 131.445L395.296, 97.429L429.312, 97.429L429.312, 131.445L395.296, 131.445"/><path stroke="black" fill="none" stroke-width="1" d="M395.296, 131.445L395.296, 97.429L429.312, 97.429L429.312, 131.445L395.296, 131.445"/><path stroke="black" fill="none" stroke-width="1" d="M284.743, 97.43L284.743, 84.671L369.783, 84.671L369.783, 97.43"/><path stroke="black" fill="none" stroke-width="1" d="M369.784, 84.672L412.304, 84.672L412.304, 97.43"/><path stroke="black" fill="none" stroke-width="1" d="M437.816, 131.445L437.816, 97.429L471.832, 97.429L471.832, 131.445L437.816, 131.445"/><path stroke="black" fill="none" stroke-width="1" d="M437.816, 131.445L437.816, 97.429L471.832, 97.429L471.832, 131.445L437.816, 131.445"/><path stroke="black" fill="none" stroke-width="1" d="M480.336, 131.445L480.336, 97.429L514.352, 97.429L514.352, 131.445L480.336, 131.445"/><path stroke="black" fill="none" stroke-width="1" d="M480.336, 131.445L480.336, 97.429L514.352, 97.429L514.352, 131.445L480.336, 131.445"/><path stroke="black" fill="none" stroke-width="1" d="M522.857, 131.445L522.857, 97.429L556.872, 97.429L556.872, 131.445L522.857, 131.445"/><path stroke="black" fill="none" stroke-width="1" d="M522.857, 131.445L522.857, 97.429L556.872, 97.429L556.872, 131.445L522.857, 131.445"/><path stroke="black" fill="none" stroke-width="1" d="M454.824, 97.43L454.824, 84.671L539.864, 84.671L539.864, 97.43"/><path stroke="black" fill="none" stroke-width="1" d="M544.117, 84.672L539.864, 84.672"/><path stroke="black" fill="none" stroke-width="1" d="M552.621, 84.672L548.368, 84.672"/><path stroke="black" fill="none" stroke-width="1" d="M561.124, 84.672L556.872, 84.672"/></svg>